%TF.GenerationSoftware,KiCad,Pcbnew,8.0.4*%
%TF.CreationDate,2025-01-29T09:39:19+01:00*%
%TF.ProjectId,DA_Sender,44415f53-656e-4646-9572-2e6b69636164,rev?*%
%TF.SameCoordinates,Original*%
%TF.FileFunction,Legend,Top*%
%TF.FilePolarity,Positive*%
%FSLAX46Y46*%
G04 Gerber Fmt 4.6, Leading zero omitted, Abs format (unit mm)*
G04 Created by KiCad (PCBNEW 8.0.4) date 2025-01-29 09:39:19*
%MOMM*%
%LPD*%
G01*
G04 APERTURE LIST*
%ADD10C,0.150000*%
%ADD11C,0.120000*%
G04 APERTURE END LIST*
D10*
X121994819Y-77636666D02*
X121518628Y-77969999D01*
X121994819Y-78208094D02*
X120994819Y-78208094D01*
X120994819Y-78208094D02*
X120994819Y-77827142D01*
X120994819Y-77827142D02*
X121042438Y-77731904D01*
X121042438Y-77731904D02*
X121090057Y-77684285D01*
X121090057Y-77684285D02*
X121185295Y-77636666D01*
X121185295Y-77636666D02*
X121328152Y-77636666D01*
X121328152Y-77636666D02*
X121423390Y-77684285D01*
X121423390Y-77684285D02*
X121471009Y-77731904D01*
X121471009Y-77731904D02*
X121518628Y-77827142D01*
X121518628Y-77827142D02*
X121518628Y-78208094D01*
X121328152Y-76779523D02*
X121994819Y-76779523D01*
X120947200Y-77017618D02*
X121661485Y-77255713D01*
X121661485Y-77255713D02*
X121661485Y-76636666D01*
X132966866Y-109815130D02*
X133014486Y-109862749D01*
X133014486Y-109862749D02*
X133062105Y-110005606D01*
X133062105Y-110005606D02*
X133062105Y-110100844D01*
X133062105Y-110100844D02*
X133014486Y-110243701D01*
X133014486Y-110243701D02*
X132919247Y-110338939D01*
X132919247Y-110338939D02*
X132824009Y-110386558D01*
X132824009Y-110386558D02*
X132633533Y-110434177D01*
X132633533Y-110434177D02*
X132490676Y-110434177D01*
X132490676Y-110434177D02*
X132300200Y-110386558D01*
X132300200Y-110386558D02*
X132204962Y-110338939D01*
X132204962Y-110338939D02*
X132109724Y-110243701D01*
X132109724Y-110243701D02*
X132062105Y-110100844D01*
X132062105Y-110100844D02*
X132062105Y-110005606D01*
X132062105Y-110005606D02*
X132109724Y-109862749D01*
X132109724Y-109862749D02*
X132157343Y-109815130D01*
X132062105Y-109481796D02*
X132062105Y-108862749D01*
X132062105Y-108862749D02*
X132443057Y-109196082D01*
X132443057Y-109196082D02*
X132443057Y-109053225D01*
X132443057Y-109053225D02*
X132490676Y-108957987D01*
X132490676Y-108957987D02*
X132538295Y-108910368D01*
X132538295Y-108910368D02*
X132633533Y-108862749D01*
X132633533Y-108862749D02*
X132871628Y-108862749D01*
X132871628Y-108862749D02*
X132966866Y-108910368D01*
X132966866Y-108910368D02*
X133014486Y-108957987D01*
X133014486Y-108957987D02*
X133062105Y-109053225D01*
X133062105Y-109053225D02*
X133062105Y-109338939D01*
X133062105Y-109338939D02*
X133014486Y-109434177D01*
X133014486Y-109434177D02*
X132966866Y-109481796D01*
X149693333Y-107039580D02*
X149645714Y-107087200D01*
X149645714Y-107087200D02*
X149502857Y-107134819D01*
X149502857Y-107134819D02*
X149407619Y-107134819D01*
X149407619Y-107134819D02*
X149264762Y-107087200D01*
X149264762Y-107087200D02*
X149169524Y-106991961D01*
X149169524Y-106991961D02*
X149121905Y-106896723D01*
X149121905Y-106896723D02*
X149074286Y-106706247D01*
X149074286Y-106706247D02*
X149074286Y-106563390D01*
X149074286Y-106563390D02*
X149121905Y-106372914D01*
X149121905Y-106372914D02*
X149169524Y-106277676D01*
X149169524Y-106277676D02*
X149264762Y-106182438D01*
X149264762Y-106182438D02*
X149407619Y-106134819D01*
X149407619Y-106134819D02*
X149502857Y-106134819D01*
X149502857Y-106134819D02*
X149645714Y-106182438D01*
X149645714Y-106182438D02*
X149693333Y-106230057D01*
X150550476Y-106134819D02*
X150360000Y-106134819D01*
X150360000Y-106134819D02*
X150264762Y-106182438D01*
X150264762Y-106182438D02*
X150217143Y-106230057D01*
X150217143Y-106230057D02*
X150121905Y-106372914D01*
X150121905Y-106372914D02*
X150074286Y-106563390D01*
X150074286Y-106563390D02*
X150074286Y-106944342D01*
X150074286Y-106944342D02*
X150121905Y-107039580D01*
X150121905Y-107039580D02*
X150169524Y-107087200D01*
X150169524Y-107087200D02*
X150264762Y-107134819D01*
X150264762Y-107134819D02*
X150455238Y-107134819D01*
X150455238Y-107134819D02*
X150550476Y-107087200D01*
X150550476Y-107087200D02*
X150598095Y-107039580D01*
X150598095Y-107039580D02*
X150645714Y-106944342D01*
X150645714Y-106944342D02*
X150645714Y-106706247D01*
X150645714Y-106706247D02*
X150598095Y-106611009D01*
X150598095Y-106611009D02*
X150550476Y-106563390D01*
X150550476Y-106563390D02*
X150455238Y-106515771D01*
X150455238Y-106515771D02*
X150264762Y-106515771D01*
X150264762Y-106515771D02*
X150169524Y-106563390D01*
X150169524Y-106563390D02*
X150121905Y-106611009D01*
X150121905Y-106611009D02*
X150074286Y-106706247D01*
X130374819Y-95898548D02*
X129898628Y-96231881D01*
X130374819Y-96469976D02*
X129374819Y-96469976D01*
X129374819Y-96469976D02*
X129374819Y-96089024D01*
X129374819Y-96089024D02*
X129422438Y-95993786D01*
X129422438Y-95993786D02*
X129470057Y-95946167D01*
X129470057Y-95946167D02*
X129565295Y-95898548D01*
X129565295Y-95898548D02*
X129708152Y-95898548D01*
X129708152Y-95898548D02*
X129803390Y-95946167D01*
X129803390Y-95946167D02*
X129851009Y-95993786D01*
X129851009Y-95993786D02*
X129898628Y-96089024D01*
X129898628Y-96089024D02*
X129898628Y-96469976D01*
X130374819Y-94946167D02*
X130374819Y-95517595D01*
X130374819Y-95231881D02*
X129374819Y-95231881D01*
X129374819Y-95231881D02*
X129517676Y-95327119D01*
X129517676Y-95327119D02*
X129612914Y-95422357D01*
X129612914Y-95422357D02*
X129660533Y-95517595D01*
X130374819Y-93993786D02*
X130374819Y-94565214D01*
X130374819Y-94279500D02*
X129374819Y-94279500D01*
X129374819Y-94279500D02*
X129517676Y-94374738D01*
X129517676Y-94374738D02*
X129612914Y-94469976D01*
X129612914Y-94469976D02*
X129660533Y-94565214D01*
X141925889Y-96245074D02*
X141592556Y-95768883D01*
X141354461Y-96245074D02*
X141354461Y-95245074D01*
X141354461Y-95245074D02*
X141735413Y-95245074D01*
X141735413Y-95245074D02*
X141830651Y-95292693D01*
X141830651Y-95292693D02*
X141878270Y-95340312D01*
X141878270Y-95340312D02*
X141925889Y-95435550D01*
X141925889Y-95435550D02*
X141925889Y-95578407D01*
X141925889Y-95578407D02*
X141878270Y-95673645D01*
X141878270Y-95673645D02*
X141830651Y-95721264D01*
X141830651Y-95721264D02*
X141735413Y-95768883D01*
X141735413Y-95768883D02*
X141354461Y-95768883D01*
X142878270Y-96245074D02*
X142306842Y-96245074D01*
X142592556Y-96245074D02*
X142592556Y-95245074D01*
X142592556Y-95245074D02*
X142497318Y-95387931D01*
X142497318Y-95387931D02*
X142402080Y-95483169D01*
X142402080Y-95483169D02*
X142306842Y-95530788D01*
X143259223Y-95340312D02*
X143306842Y-95292693D01*
X143306842Y-95292693D02*
X143402080Y-95245074D01*
X143402080Y-95245074D02*
X143640175Y-95245074D01*
X143640175Y-95245074D02*
X143735413Y-95292693D01*
X143735413Y-95292693D02*
X143783032Y-95340312D01*
X143783032Y-95340312D02*
X143830651Y-95435550D01*
X143830651Y-95435550D02*
X143830651Y-95530788D01*
X143830651Y-95530788D02*
X143783032Y-95673645D01*
X143783032Y-95673645D02*
X143211604Y-96245074D01*
X143211604Y-96245074D02*
X143830651Y-96245074D01*
X182126761Y-116079181D02*
X182126761Y-116793466D01*
X182126761Y-116793466D02*
X182079142Y-116936323D01*
X182079142Y-116936323D02*
X181983904Y-117031562D01*
X181983904Y-117031562D02*
X181841047Y-117079181D01*
X181841047Y-117079181D02*
X181745809Y-117079181D01*
X182507714Y-116079181D02*
X183174380Y-116079181D01*
X183174380Y-116079181D02*
X182745809Y-117079181D01*
X108586667Y-99197200D02*
X108729524Y-99244819D01*
X108729524Y-99244819D02*
X108967619Y-99244819D01*
X108967619Y-99244819D02*
X109062857Y-99197200D01*
X109062857Y-99197200D02*
X109110476Y-99149580D01*
X109110476Y-99149580D02*
X109158095Y-99054342D01*
X109158095Y-99054342D02*
X109158095Y-98959104D01*
X109158095Y-98959104D02*
X109110476Y-98863866D01*
X109110476Y-98863866D02*
X109062857Y-98816247D01*
X109062857Y-98816247D02*
X108967619Y-98768628D01*
X108967619Y-98768628D02*
X108777143Y-98721009D01*
X108777143Y-98721009D02*
X108681905Y-98673390D01*
X108681905Y-98673390D02*
X108634286Y-98625771D01*
X108634286Y-98625771D02*
X108586667Y-98530533D01*
X108586667Y-98530533D02*
X108586667Y-98435295D01*
X108586667Y-98435295D02*
X108634286Y-98340057D01*
X108634286Y-98340057D02*
X108681905Y-98292438D01*
X108681905Y-98292438D02*
X108777143Y-98244819D01*
X108777143Y-98244819D02*
X109015238Y-98244819D01*
X109015238Y-98244819D02*
X109158095Y-98292438D01*
X109491429Y-98244819D02*
X109729524Y-99244819D01*
X109729524Y-99244819D02*
X109920000Y-98530533D01*
X109920000Y-98530533D02*
X110110476Y-99244819D01*
X110110476Y-99244819D02*
X110348572Y-98244819D01*
X110634286Y-98244819D02*
X111253333Y-98244819D01*
X111253333Y-98244819D02*
X110920000Y-98625771D01*
X110920000Y-98625771D02*
X111062857Y-98625771D01*
X111062857Y-98625771D02*
X111158095Y-98673390D01*
X111158095Y-98673390D02*
X111205714Y-98721009D01*
X111205714Y-98721009D02*
X111253333Y-98816247D01*
X111253333Y-98816247D02*
X111253333Y-99054342D01*
X111253333Y-99054342D02*
X111205714Y-99149580D01*
X111205714Y-99149580D02*
X111158095Y-99197200D01*
X111158095Y-99197200D02*
X111062857Y-99244819D01*
X111062857Y-99244819D02*
X110777143Y-99244819D01*
X110777143Y-99244819D02*
X110681905Y-99197200D01*
X110681905Y-99197200D02*
X110634286Y-99149580D01*
X118569819Y-119723333D02*
X119284104Y-119723333D01*
X119284104Y-119723333D02*
X119426961Y-119770952D01*
X119426961Y-119770952D02*
X119522200Y-119866190D01*
X119522200Y-119866190D02*
X119569819Y-120009047D01*
X119569819Y-120009047D02*
X119569819Y-120104285D01*
X118903152Y-118818571D02*
X119569819Y-118818571D01*
X118522200Y-119056666D02*
X119236485Y-119294761D01*
X119236485Y-119294761D02*
X119236485Y-118675714D01*
X115041999Y-70015720D02*
X115041999Y-70730005D01*
X115041999Y-70730005D02*
X114994380Y-70872862D01*
X114994380Y-70872862D02*
X114899142Y-70968101D01*
X114899142Y-70968101D02*
X114756285Y-71015720D01*
X114756285Y-71015720D02*
X114661047Y-71015720D01*
X115565809Y-71015720D02*
X115756285Y-71015720D01*
X115756285Y-71015720D02*
X115851523Y-70968101D01*
X115851523Y-70968101D02*
X115899142Y-70920481D01*
X115899142Y-70920481D02*
X115994380Y-70777624D01*
X115994380Y-70777624D02*
X116041999Y-70587148D01*
X116041999Y-70587148D02*
X116041999Y-70206196D01*
X116041999Y-70206196D02*
X115994380Y-70110958D01*
X115994380Y-70110958D02*
X115946761Y-70063339D01*
X115946761Y-70063339D02*
X115851523Y-70015720D01*
X115851523Y-70015720D02*
X115661047Y-70015720D01*
X115661047Y-70015720D02*
X115565809Y-70063339D01*
X115565809Y-70063339D02*
X115518190Y-70110958D01*
X115518190Y-70110958D02*
X115470571Y-70206196D01*
X115470571Y-70206196D02*
X115470571Y-70444291D01*
X115470571Y-70444291D02*
X115518190Y-70539529D01*
X115518190Y-70539529D02*
X115565809Y-70587148D01*
X115565809Y-70587148D02*
X115661047Y-70634767D01*
X115661047Y-70634767D02*
X115851523Y-70634767D01*
X115851523Y-70634767D02*
X115946761Y-70587148D01*
X115946761Y-70587148D02*
X115994380Y-70539529D01*
X115994380Y-70539529D02*
X116041999Y-70444291D01*
X144059955Y-119744017D02*
X144774240Y-119744017D01*
X144774240Y-119744017D02*
X144917097Y-119791636D01*
X144917097Y-119791636D02*
X145012336Y-119886874D01*
X145012336Y-119886874D02*
X145059955Y-120029731D01*
X145059955Y-120029731D02*
X145059955Y-120124969D01*
X144155193Y-119315445D02*
X144107574Y-119267826D01*
X144107574Y-119267826D02*
X144059955Y-119172588D01*
X144059955Y-119172588D02*
X144059955Y-118934493D01*
X144059955Y-118934493D02*
X144107574Y-118839255D01*
X144107574Y-118839255D02*
X144155193Y-118791636D01*
X144155193Y-118791636D02*
X144250431Y-118744017D01*
X144250431Y-118744017D02*
X144345669Y-118744017D01*
X144345669Y-118744017D02*
X144488526Y-118791636D01*
X144488526Y-118791636D02*
X145059955Y-119363064D01*
X145059955Y-119363064D02*
X145059955Y-118744017D01*
X172889104Y-96053326D02*
X172889104Y-95577136D01*
X173174819Y-96148564D02*
X172174819Y-95815231D01*
X172174819Y-95815231D02*
X173174819Y-95481898D01*
X173174819Y-94624755D02*
X173174819Y-95196183D01*
X173174819Y-94910469D02*
X172174819Y-94910469D01*
X172174819Y-94910469D02*
X172317676Y-95005707D01*
X172317676Y-95005707D02*
X172412914Y-95100945D01*
X172412914Y-95100945D02*
X172460533Y-95196183D01*
X132625180Y-82558095D02*
X131815657Y-82558095D01*
X131815657Y-82558095D02*
X131720419Y-82605714D01*
X131720419Y-82605714D02*
X131672800Y-82653333D01*
X131672800Y-82653333D02*
X131625180Y-82748571D01*
X131625180Y-82748571D02*
X131625180Y-82939047D01*
X131625180Y-82939047D02*
X131672800Y-83034285D01*
X131672800Y-83034285D02*
X131720419Y-83081904D01*
X131720419Y-83081904D02*
X131815657Y-83129523D01*
X131815657Y-83129523D02*
X132625180Y-83129523D01*
X131672800Y-83558095D02*
X131625180Y-83700952D01*
X131625180Y-83700952D02*
X131625180Y-83939047D01*
X131625180Y-83939047D02*
X131672800Y-84034285D01*
X131672800Y-84034285D02*
X131720419Y-84081904D01*
X131720419Y-84081904D02*
X131815657Y-84129523D01*
X131815657Y-84129523D02*
X131910895Y-84129523D01*
X131910895Y-84129523D02*
X132006133Y-84081904D01*
X132006133Y-84081904D02*
X132053752Y-84034285D01*
X132053752Y-84034285D02*
X132101371Y-83939047D01*
X132101371Y-83939047D02*
X132148990Y-83748571D01*
X132148990Y-83748571D02*
X132196609Y-83653333D01*
X132196609Y-83653333D02*
X132244228Y-83605714D01*
X132244228Y-83605714D02*
X132339466Y-83558095D01*
X132339466Y-83558095D02*
X132434704Y-83558095D01*
X132434704Y-83558095D02*
X132529942Y-83605714D01*
X132529942Y-83605714D02*
X132577561Y-83653333D01*
X132577561Y-83653333D02*
X132625180Y-83748571D01*
X132625180Y-83748571D02*
X132625180Y-83986666D01*
X132625180Y-83986666D02*
X132577561Y-84129523D01*
X132148990Y-84891428D02*
X132101371Y-85034285D01*
X132101371Y-85034285D02*
X132053752Y-85081904D01*
X132053752Y-85081904D02*
X131958514Y-85129523D01*
X131958514Y-85129523D02*
X131815657Y-85129523D01*
X131815657Y-85129523D02*
X131720419Y-85081904D01*
X131720419Y-85081904D02*
X131672800Y-85034285D01*
X131672800Y-85034285D02*
X131625180Y-84939047D01*
X131625180Y-84939047D02*
X131625180Y-84558095D01*
X131625180Y-84558095D02*
X132625180Y-84558095D01*
X132625180Y-84558095D02*
X132625180Y-84891428D01*
X132625180Y-84891428D02*
X132577561Y-84986666D01*
X132577561Y-84986666D02*
X132529942Y-85034285D01*
X132529942Y-85034285D02*
X132434704Y-85081904D01*
X132434704Y-85081904D02*
X132339466Y-85081904D01*
X132339466Y-85081904D02*
X132244228Y-85034285D01*
X132244228Y-85034285D02*
X132196609Y-84986666D01*
X132196609Y-84986666D02*
X132148990Y-84891428D01*
X132148990Y-84891428D02*
X132148990Y-84558095D01*
X140663386Y-95243549D02*
X140615767Y-95338787D01*
X140615767Y-95338787D02*
X140520529Y-95434025D01*
X140520529Y-95434025D02*
X140377671Y-95576882D01*
X140377671Y-95576882D02*
X140330052Y-95672120D01*
X140330052Y-95672120D02*
X140330052Y-95767358D01*
X140568148Y-95719739D02*
X140520529Y-95814977D01*
X140520529Y-95814977D02*
X140425290Y-95910215D01*
X140425290Y-95910215D02*
X140234814Y-95957834D01*
X140234814Y-95957834D02*
X139901481Y-95957834D01*
X139901481Y-95957834D02*
X139711005Y-95910215D01*
X139711005Y-95910215D02*
X139615767Y-95814977D01*
X139615767Y-95814977D02*
X139568148Y-95719739D01*
X139568148Y-95719739D02*
X139568148Y-95529263D01*
X139568148Y-95529263D02*
X139615767Y-95434025D01*
X139615767Y-95434025D02*
X139711005Y-95338787D01*
X139711005Y-95338787D02*
X139901481Y-95291168D01*
X139901481Y-95291168D02*
X140234814Y-95291168D01*
X140234814Y-95291168D02*
X140425290Y-95338787D01*
X140425290Y-95338787D02*
X140520529Y-95434025D01*
X140520529Y-95434025D02*
X140568148Y-95529263D01*
X140568148Y-95529263D02*
X140568148Y-95719739D01*
X140568148Y-94338787D02*
X140568148Y-94910215D01*
X140568148Y-94624501D02*
X139568148Y-94624501D01*
X139568148Y-94624501D02*
X139711005Y-94719739D01*
X139711005Y-94719739D02*
X139806243Y-94814977D01*
X139806243Y-94814977D02*
X139853862Y-94910215D01*
X182099722Y-70049341D02*
X182099722Y-70763626D01*
X182099722Y-70763626D02*
X182052103Y-70906483D01*
X182052103Y-70906483D02*
X181956865Y-71001722D01*
X181956865Y-71001722D02*
X181814008Y-71049341D01*
X181814008Y-71049341D02*
X181718770Y-71049341D01*
X182718770Y-70477912D02*
X182623532Y-70430293D01*
X182623532Y-70430293D02*
X182575913Y-70382674D01*
X182575913Y-70382674D02*
X182528294Y-70287436D01*
X182528294Y-70287436D02*
X182528294Y-70239817D01*
X182528294Y-70239817D02*
X182575913Y-70144579D01*
X182575913Y-70144579D02*
X182623532Y-70096960D01*
X182623532Y-70096960D02*
X182718770Y-70049341D01*
X182718770Y-70049341D02*
X182909246Y-70049341D01*
X182909246Y-70049341D02*
X183004484Y-70096960D01*
X183004484Y-70096960D02*
X183052103Y-70144579D01*
X183052103Y-70144579D02*
X183099722Y-70239817D01*
X183099722Y-70239817D02*
X183099722Y-70287436D01*
X183099722Y-70287436D02*
X183052103Y-70382674D01*
X183052103Y-70382674D02*
X183004484Y-70430293D01*
X183004484Y-70430293D02*
X182909246Y-70477912D01*
X182909246Y-70477912D02*
X182718770Y-70477912D01*
X182718770Y-70477912D02*
X182623532Y-70525531D01*
X182623532Y-70525531D02*
X182575913Y-70573150D01*
X182575913Y-70573150D02*
X182528294Y-70668388D01*
X182528294Y-70668388D02*
X182528294Y-70858864D01*
X182528294Y-70858864D02*
X182575913Y-70954102D01*
X182575913Y-70954102D02*
X182623532Y-71001722D01*
X182623532Y-71001722D02*
X182718770Y-71049341D01*
X182718770Y-71049341D02*
X182909246Y-71049341D01*
X182909246Y-71049341D02*
X183004484Y-71001722D01*
X183004484Y-71001722D02*
X183052103Y-70954102D01*
X183052103Y-70954102D02*
X183099722Y-70858864D01*
X183099722Y-70858864D02*
X183099722Y-70668388D01*
X183099722Y-70668388D02*
X183052103Y-70573150D01*
X183052103Y-70573150D02*
X183004484Y-70525531D01*
X183004484Y-70525531D02*
X182909246Y-70477912D01*
X148757388Y-95444015D02*
X148281197Y-95777348D01*
X148757388Y-96015443D02*
X147757388Y-96015443D01*
X147757388Y-96015443D02*
X147757388Y-95634491D01*
X147757388Y-95634491D02*
X147805007Y-95539253D01*
X147805007Y-95539253D02*
X147852626Y-95491634D01*
X147852626Y-95491634D02*
X147947864Y-95444015D01*
X147947864Y-95444015D02*
X148090721Y-95444015D01*
X148090721Y-95444015D02*
X148185959Y-95491634D01*
X148185959Y-95491634D02*
X148233578Y-95539253D01*
X148233578Y-95539253D02*
X148281197Y-95634491D01*
X148281197Y-95634491D02*
X148281197Y-96015443D01*
X147757388Y-95110681D02*
X147757388Y-94491634D01*
X147757388Y-94491634D02*
X148138340Y-94824967D01*
X148138340Y-94824967D02*
X148138340Y-94682110D01*
X148138340Y-94682110D02*
X148185959Y-94586872D01*
X148185959Y-94586872D02*
X148233578Y-94539253D01*
X148233578Y-94539253D02*
X148328816Y-94491634D01*
X148328816Y-94491634D02*
X148566911Y-94491634D01*
X148566911Y-94491634D02*
X148662149Y-94539253D01*
X148662149Y-94539253D02*
X148709769Y-94586872D01*
X148709769Y-94586872D02*
X148757388Y-94682110D01*
X148757388Y-94682110D02*
X148757388Y-94967824D01*
X148757388Y-94967824D02*
X148709769Y-95063062D01*
X148709769Y-95063062D02*
X148662149Y-95110681D01*
X115079630Y-116085937D02*
X115079630Y-116800222D01*
X115079630Y-116800222D02*
X115032011Y-116943079D01*
X115032011Y-116943079D02*
X114936773Y-117038318D01*
X114936773Y-117038318D02*
X114793916Y-117085937D01*
X114793916Y-117085937D02*
X114698678Y-117085937D01*
X115984392Y-116085937D02*
X115793916Y-116085937D01*
X115793916Y-116085937D02*
X115698678Y-116133556D01*
X115698678Y-116133556D02*
X115651059Y-116181175D01*
X115651059Y-116181175D02*
X115555821Y-116324032D01*
X115555821Y-116324032D02*
X115508202Y-116514508D01*
X115508202Y-116514508D02*
X115508202Y-116895460D01*
X115508202Y-116895460D02*
X115555821Y-116990698D01*
X115555821Y-116990698D02*
X115603440Y-117038318D01*
X115603440Y-117038318D02*
X115698678Y-117085937D01*
X115698678Y-117085937D02*
X115889154Y-117085937D01*
X115889154Y-117085937D02*
X115984392Y-117038318D01*
X115984392Y-117038318D02*
X116032011Y-116990698D01*
X116032011Y-116990698D02*
X116079630Y-116895460D01*
X116079630Y-116895460D02*
X116079630Y-116657365D01*
X116079630Y-116657365D02*
X116032011Y-116562127D01*
X116032011Y-116562127D02*
X115984392Y-116514508D01*
X115984392Y-116514508D02*
X115889154Y-116466889D01*
X115889154Y-116466889D02*
X115698678Y-116466889D01*
X115698678Y-116466889D02*
X115603440Y-116514508D01*
X115603440Y-116514508D02*
X115555821Y-116562127D01*
X115555821Y-116562127D02*
X115508202Y-116657365D01*
X154504819Y-95416666D02*
X154028628Y-95749999D01*
X154504819Y-95988094D02*
X153504819Y-95988094D01*
X153504819Y-95988094D02*
X153504819Y-95607142D01*
X153504819Y-95607142D02*
X153552438Y-95511904D01*
X153552438Y-95511904D02*
X153600057Y-95464285D01*
X153600057Y-95464285D02*
X153695295Y-95416666D01*
X153695295Y-95416666D02*
X153838152Y-95416666D01*
X153838152Y-95416666D02*
X153933390Y-95464285D01*
X153933390Y-95464285D02*
X153981009Y-95511904D01*
X153981009Y-95511904D02*
X154028628Y-95607142D01*
X154028628Y-95607142D02*
X154028628Y-95988094D01*
X153600057Y-95035713D02*
X153552438Y-94988094D01*
X153552438Y-94988094D02*
X153504819Y-94892856D01*
X153504819Y-94892856D02*
X153504819Y-94654761D01*
X153504819Y-94654761D02*
X153552438Y-94559523D01*
X153552438Y-94559523D02*
X153600057Y-94511904D01*
X153600057Y-94511904D02*
X153695295Y-94464285D01*
X153695295Y-94464285D02*
X153790533Y-94464285D01*
X153790533Y-94464285D02*
X153933390Y-94511904D01*
X153933390Y-94511904D02*
X154504819Y-95083332D01*
X154504819Y-95083332D02*
X154504819Y-94464285D01*
X177948397Y-78734765D02*
X177996017Y-78782384D01*
X177996017Y-78782384D02*
X178043636Y-78925241D01*
X178043636Y-78925241D02*
X178043636Y-79020479D01*
X178043636Y-79020479D02*
X177996017Y-79163336D01*
X177996017Y-79163336D02*
X177900778Y-79258574D01*
X177900778Y-79258574D02*
X177805540Y-79306193D01*
X177805540Y-79306193D02*
X177615064Y-79353812D01*
X177615064Y-79353812D02*
X177472207Y-79353812D01*
X177472207Y-79353812D02*
X177281731Y-79306193D01*
X177281731Y-79306193D02*
X177186493Y-79258574D01*
X177186493Y-79258574D02*
X177091255Y-79163336D01*
X177091255Y-79163336D02*
X177043636Y-79020479D01*
X177043636Y-79020479D02*
X177043636Y-78925241D01*
X177043636Y-78925241D02*
X177091255Y-78782384D01*
X177091255Y-78782384D02*
X177138874Y-78734765D01*
X177043636Y-78401431D02*
X177043636Y-77734765D01*
X177043636Y-77734765D02*
X178043636Y-78163336D01*
X136726671Y-100388418D02*
X136393338Y-99912227D01*
X136155243Y-100388418D02*
X136155243Y-99388418D01*
X136155243Y-99388418D02*
X136536195Y-99388418D01*
X136536195Y-99388418D02*
X136631433Y-99436037D01*
X136631433Y-99436037D02*
X136679052Y-99483656D01*
X136679052Y-99483656D02*
X136726671Y-99578894D01*
X136726671Y-99578894D02*
X136726671Y-99721751D01*
X136726671Y-99721751D02*
X136679052Y-99816989D01*
X136679052Y-99816989D02*
X136631433Y-99864608D01*
X136631433Y-99864608D02*
X136536195Y-99912227D01*
X136536195Y-99912227D02*
X136155243Y-99912227D01*
X137679052Y-100388418D02*
X137107624Y-100388418D01*
X137393338Y-100388418D02*
X137393338Y-99388418D01*
X137393338Y-99388418D02*
X137298100Y-99531275D01*
X137298100Y-99531275D02*
X137202862Y-99626513D01*
X137202862Y-99626513D02*
X137107624Y-99674132D01*
X138012386Y-99388418D02*
X138631433Y-99388418D01*
X138631433Y-99388418D02*
X138298100Y-99769370D01*
X138298100Y-99769370D02*
X138440957Y-99769370D01*
X138440957Y-99769370D02*
X138536195Y-99816989D01*
X138536195Y-99816989D02*
X138583814Y-99864608D01*
X138583814Y-99864608D02*
X138631433Y-99959846D01*
X138631433Y-99959846D02*
X138631433Y-100197941D01*
X138631433Y-100197941D02*
X138583814Y-100293179D01*
X138583814Y-100293179D02*
X138536195Y-100340799D01*
X138536195Y-100340799D02*
X138440957Y-100388418D01*
X138440957Y-100388418D02*
X138155243Y-100388418D01*
X138155243Y-100388418D02*
X138060005Y-100340799D01*
X138060005Y-100340799D02*
X138012386Y-100293179D01*
X133804819Y-95946839D02*
X133328628Y-96280172D01*
X133804819Y-96518267D02*
X132804819Y-96518267D01*
X132804819Y-96518267D02*
X132804819Y-96137315D01*
X132804819Y-96137315D02*
X132852438Y-96042077D01*
X132852438Y-96042077D02*
X132900057Y-95994458D01*
X132900057Y-95994458D02*
X132995295Y-95946839D01*
X132995295Y-95946839D02*
X133138152Y-95946839D01*
X133138152Y-95946839D02*
X133233390Y-95994458D01*
X133233390Y-95994458D02*
X133281009Y-96042077D01*
X133281009Y-96042077D02*
X133328628Y-96137315D01*
X133328628Y-96137315D02*
X133328628Y-96518267D01*
X133804819Y-94994458D02*
X133804819Y-95565886D01*
X133804819Y-95280172D02*
X132804819Y-95280172D01*
X132804819Y-95280172D02*
X132947676Y-95375410D01*
X132947676Y-95375410D02*
X133042914Y-95470648D01*
X133042914Y-95470648D02*
X133090533Y-95565886D01*
X132804819Y-94375410D02*
X132804819Y-94280172D01*
X132804819Y-94280172D02*
X132852438Y-94184934D01*
X132852438Y-94184934D02*
X132900057Y-94137315D01*
X132900057Y-94137315D02*
X132995295Y-94089696D01*
X132995295Y-94089696D02*
X133185771Y-94042077D01*
X133185771Y-94042077D02*
X133423866Y-94042077D01*
X133423866Y-94042077D02*
X133614342Y-94089696D01*
X133614342Y-94089696D02*
X133709580Y-94137315D01*
X133709580Y-94137315D02*
X133757200Y-94184934D01*
X133757200Y-94184934D02*
X133804819Y-94280172D01*
X133804819Y-94280172D02*
X133804819Y-94375410D01*
X133804819Y-94375410D02*
X133757200Y-94470648D01*
X133757200Y-94470648D02*
X133709580Y-94518267D01*
X133709580Y-94518267D02*
X133614342Y-94565886D01*
X133614342Y-94565886D02*
X133423866Y-94613505D01*
X133423866Y-94613505D02*
X133185771Y-94613505D01*
X133185771Y-94613505D02*
X132995295Y-94565886D01*
X132995295Y-94565886D02*
X132900057Y-94518267D01*
X132900057Y-94518267D02*
X132852438Y-94470648D01*
X132852438Y-94470648D02*
X132804819Y-94375410D01*
X151362336Y-120744016D02*
X151409955Y-120601159D01*
X151409955Y-120601159D02*
X151409955Y-120363064D01*
X151409955Y-120363064D02*
X151362336Y-120267826D01*
X151362336Y-120267826D02*
X151314716Y-120220207D01*
X151314716Y-120220207D02*
X151219478Y-120172588D01*
X151219478Y-120172588D02*
X151124240Y-120172588D01*
X151124240Y-120172588D02*
X151029002Y-120220207D01*
X151029002Y-120220207D02*
X150981383Y-120267826D01*
X150981383Y-120267826D02*
X150933764Y-120363064D01*
X150933764Y-120363064D02*
X150886145Y-120553540D01*
X150886145Y-120553540D02*
X150838526Y-120648778D01*
X150838526Y-120648778D02*
X150790907Y-120696397D01*
X150790907Y-120696397D02*
X150695669Y-120744016D01*
X150695669Y-120744016D02*
X150600431Y-120744016D01*
X150600431Y-120744016D02*
X150505193Y-120696397D01*
X150505193Y-120696397D02*
X150457574Y-120648778D01*
X150457574Y-120648778D02*
X150409955Y-120553540D01*
X150409955Y-120553540D02*
X150409955Y-120315445D01*
X150409955Y-120315445D02*
X150457574Y-120172588D01*
X150409955Y-119839254D02*
X151409955Y-119601159D01*
X151409955Y-119601159D02*
X150695669Y-119410683D01*
X150695669Y-119410683D02*
X151409955Y-119220207D01*
X151409955Y-119220207D02*
X150409955Y-118982112D01*
X150409955Y-118124969D02*
X150409955Y-118601159D01*
X150409955Y-118601159D02*
X150886145Y-118648778D01*
X150886145Y-118648778D02*
X150838526Y-118601159D01*
X150838526Y-118601159D02*
X150790907Y-118505921D01*
X150790907Y-118505921D02*
X150790907Y-118267826D01*
X150790907Y-118267826D02*
X150838526Y-118172588D01*
X150838526Y-118172588D02*
X150886145Y-118124969D01*
X150886145Y-118124969D02*
X150981383Y-118077350D01*
X150981383Y-118077350D02*
X151219478Y-118077350D01*
X151219478Y-118077350D02*
X151314716Y-118124969D01*
X151314716Y-118124969D02*
X151362336Y-118172588D01*
X151362336Y-118172588D02*
X151409955Y-118267826D01*
X151409955Y-118267826D02*
X151409955Y-118505921D01*
X151409955Y-118505921D02*
X151362336Y-118601159D01*
X151362336Y-118601159D02*
X151314716Y-118648778D01*
X168984819Y-104306666D02*
X168508628Y-104639999D01*
X168984819Y-104878094D02*
X167984819Y-104878094D01*
X167984819Y-104878094D02*
X167984819Y-104497142D01*
X167984819Y-104497142D02*
X168032438Y-104401904D01*
X168032438Y-104401904D02*
X168080057Y-104354285D01*
X168080057Y-104354285D02*
X168175295Y-104306666D01*
X168175295Y-104306666D02*
X168318152Y-104306666D01*
X168318152Y-104306666D02*
X168413390Y-104354285D01*
X168413390Y-104354285D02*
X168461009Y-104401904D01*
X168461009Y-104401904D02*
X168508628Y-104497142D01*
X168508628Y-104497142D02*
X168508628Y-104878094D01*
X168984819Y-103830475D02*
X168984819Y-103639999D01*
X168984819Y-103639999D02*
X168937200Y-103544761D01*
X168937200Y-103544761D02*
X168889580Y-103497142D01*
X168889580Y-103497142D02*
X168746723Y-103401904D01*
X168746723Y-103401904D02*
X168556247Y-103354285D01*
X168556247Y-103354285D02*
X168175295Y-103354285D01*
X168175295Y-103354285D02*
X168080057Y-103401904D01*
X168080057Y-103401904D02*
X168032438Y-103449523D01*
X168032438Y-103449523D02*
X167984819Y-103544761D01*
X167984819Y-103544761D02*
X167984819Y-103735237D01*
X167984819Y-103735237D02*
X168032438Y-103830475D01*
X168032438Y-103830475D02*
X168080057Y-103878094D01*
X168080057Y-103878094D02*
X168175295Y-103925713D01*
X168175295Y-103925713D02*
X168413390Y-103925713D01*
X168413390Y-103925713D02*
X168508628Y-103878094D01*
X168508628Y-103878094D02*
X168556247Y-103830475D01*
X168556247Y-103830475D02*
X168603866Y-103735237D01*
X168603866Y-103735237D02*
X168603866Y-103544761D01*
X168603866Y-103544761D02*
X168556247Y-103449523D01*
X168556247Y-103449523D02*
X168508628Y-103401904D01*
X168508628Y-103401904D02*
X168413390Y-103354285D01*
X179387613Y-104228616D02*
X179530470Y-104276235D01*
X179530470Y-104276235D02*
X179768565Y-104276235D01*
X179768565Y-104276235D02*
X179863803Y-104228616D01*
X179863803Y-104228616D02*
X179911422Y-104180996D01*
X179911422Y-104180996D02*
X179959041Y-104085758D01*
X179959041Y-104085758D02*
X179959041Y-103990520D01*
X179959041Y-103990520D02*
X179911422Y-103895282D01*
X179911422Y-103895282D02*
X179863803Y-103847663D01*
X179863803Y-103847663D02*
X179768565Y-103800044D01*
X179768565Y-103800044D02*
X179578089Y-103752425D01*
X179578089Y-103752425D02*
X179482851Y-103704806D01*
X179482851Y-103704806D02*
X179435232Y-103657187D01*
X179435232Y-103657187D02*
X179387613Y-103561949D01*
X179387613Y-103561949D02*
X179387613Y-103466711D01*
X179387613Y-103466711D02*
X179435232Y-103371473D01*
X179435232Y-103371473D02*
X179482851Y-103323854D01*
X179482851Y-103323854D02*
X179578089Y-103276235D01*
X179578089Y-103276235D02*
X179816184Y-103276235D01*
X179816184Y-103276235D02*
X179959041Y-103323854D01*
X180292375Y-103276235D02*
X180530470Y-104276235D01*
X180530470Y-104276235D02*
X180720946Y-103561949D01*
X180720946Y-103561949D02*
X180911422Y-104276235D01*
X180911422Y-104276235D02*
X181149518Y-103276235D01*
X182054279Y-104276235D02*
X181482851Y-104276235D01*
X181768565Y-104276235D02*
X181768565Y-103276235D01*
X181768565Y-103276235D02*
X181673327Y-103419092D01*
X181673327Y-103419092D02*
X181578089Y-103514330D01*
X181578089Y-103514330D02*
X181482851Y-103561949D01*
X125104660Y-111868283D02*
X125104660Y-112677806D01*
X125104660Y-112677806D02*
X125152279Y-112773044D01*
X125152279Y-112773044D02*
X125199898Y-112820664D01*
X125199898Y-112820664D02*
X125295136Y-112868283D01*
X125295136Y-112868283D02*
X125485612Y-112868283D01*
X125485612Y-112868283D02*
X125580850Y-112820664D01*
X125580850Y-112820664D02*
X125628469Y-112773044D01*
X125628469Y-112773044D02*
X125676088Y-112677806D01*
X125676088Y-112677806D02*
X125676088Y-111868283D01*
X126676088Y-112868283D02*
X126104660Y-112868283D01*
X126390374Y-112868283D02*
X126390374Y-111868283D01*
X126390374Y-111868283D02*
X126295136Y-112011140D01*
X126295136Y-112011140D02*
X126199898Y-112106378D01*
X126199898Y-112106378D02*
X126104660Y-112153997D01*
X135989404Y-95865021D02*
X135513213Y-96198354D01*
X135989404Y-96436449D02*
X134989404Y-96436449D01*
X134989404Y-96436449D02*
X134989404Y-96055497D01*
X134989404Y-96055497D02*
X135037023Y-95960259D01*
X135037023Y-95960259D02*
X135084642Y-95912640D01*
X135084642Y-95912640D02*
X135179880Y-95865021D01*
X135179880Y-95865021D02*
X135322737Y-95865021D01*
X135322737Y-95865021D02*
X135417975Y-95912640D01*
X135417975Y-95912640D02*
X135465594Y-95960259D01*
X135465594Y-95960259D02*
X135513213Y-96055497D01*
X135513213Y-96055497D02*
X135513213Y-96436449D01*
X135989404Y-94912640D02*
X135989404Y-95484068D01*
X135989404Y-95198354D02*
X134989404Y-95198354D01*
X134989404Y-95198354D02*
X135132261Y-95293592D01*
X135132261Y-95293592D02*
X135227499Y-95388830D01*
X135227499Y-95388830D02*
X135275118Y-95484068D01*
X135322737Y-94055497D02*
X135989404Y-94055497D01*
X134941785Y-94293592D02*
X135656070Y-94531687D01*
X135656070Y-94531687D02*
X135656070Y-93912640D01*
X114421475Y-79214596D02*
X113945284Y-79547929D01*
X114421475Y-79786024D02*
X113421475Y-79786024D01*
X113421475Y-79786024D02*
X113421475Y-79405072D01*
X113421475Y-79405072D02*
X113469094Y-79309834D01*
X113469094Y-79309834D02*
X113516713Y-79262215D01*
X113516713Y-79262215D02*
X113611951Y-79214596D01*
X113611951Y-79214596D02*
X113754808Y-79214596D01*
X113754808Y-79214596D02*
X113850046Y-79262215D01*
X113850046Y-79262215D02*
X113897665Y-79309834D01*
X113897665Y-79309834D02*
X113945284Y-79405072D01*
X113945284Y-79405072D02*
X113945284Y-79786024D01*
X113421475Y-78881262D02*
X113421475Y-78214596D01*
X113421475Y-78214596D02*
X114421475Y-78643167D01*
X119401145Y-105370130D02*
X119448765Y-105417749D01*
X119448765Y-105417749D02*
X119496384Y-105560606D01*
X119496384Y-105560606D02*
X119496384Y-105655844D01*
X119496384Y-105655844D02*
X119448765Y-105798701D01*
X119448765Y-105798701D02*
X119353526Y-105893939D01*
X119353526Y-105893939D02*
X119258288Y-105941558D01*
X119258288Y-105941558D02*
X119067812Y-105989177D01*
X119067812Y-105989177D02*
X118924955Y-105989177D01*
X118924955Y-105989177D02*
X118734479Y-105941558D01*
X118734479Y-105941558D02*
X118639241Y-105893939D01*
X118639241Y-105893939D02*
X118544003Y-105798701D01*
X118544003Y-105798701D02*
X118496384Y-105655844D01*
X118496384Y-105655844D02*
X118496384Y-105560606D01*
X118496384Y-105560606D02*
X118544003Y-105417749D01*
X118544003Y-105417749D02*
X118591622Y-105370130D01*
X119496384Y-104417749D02*
X119496384Y-104989177D01*
X119496384Y-104703463D02*
X118496384Y-104703463D01*
X118496384Y-104703463D02*
X118639241Y-104798701D01*
X118639241Y-104798701D02*
X118734479Y-104893939D01*
X118734479Y-104893939D02*
X118782098Y-104989177D01*
X114374819Y-82716666D02*
X113898628Y-83049999D01*
X114374819Y-83288094D02*
X113374819Y-83288094D01*
X113374819Y-83288094D02*
X113374819Y-82907142D01*
X113374819Y-82907142D02*
X113422438Y-82811904D01*
X113422438Y-82811904D02*
X113470057Y-82764285D01*
X113470057Y-82764285D02*
X113565295Y-82716666D01*
X113565295Y-82716666D02*
X113708152Y-82716666D01*
X113708152Y-82716666D02*
X113803390Y-82764285D01*
X113803390Y-82764285D02*
X113851009Y-82811904D01*
X113851009Y-82811904D02*
X113898628Y-82907142D01*
X113898628Y-82907142D02*
X113898628Y-83288094D01*
X113374819Y-81859523D02*
X113374819Y-82049999D01*
X113374819Y-82049999D02*
X113422438Y-82145237D01*
X113422438Y-82145237D02*
X113470057Y-82192856D01*
X113470057Y-82192856D02*
X113612914Y-82288094D01*
X113612914Y-82288094D02*
X113803390Y-82335713D01*
X113803390Y-82335713D02*
X114184342Y-82335713D01*
X114184342Y-82335713D02*
X114279580Y-82288094D01*
X114279580Y-82288094D02*
X114327200Y-82240475D01*
X114327200Y-82240475D02*
X114374819Y-82145237D01*
X114374819Y-82145237D02*
X114374819Y-81954761D01*
X114374819Y-81954761D02*
X114327200Y-81859523D01*
X114327200Y-81859523D02*
X114279580Y-81811904D01*
X114279580Y-81811904D02*
X114184342Y-81764285D01*
X114184342Y-81764285D02*
X113946247Y-81764285D01*
X113946247Y-81764285D02*
X113851009Y-81811904D01*
X113851009Y-81811904D02*
X113803390Y-81859523D01*
X113803390Y-81859523D02*
X113755771Y-81954761D01*
X113755771Y-81954761D02*
X113755771Y-82145237D01*
X113755771Y-82145237D02*
X113803390Y-82240475D01*
X113803390Y-82240475D02*
X113851009Y-82288094D01*
X113851009Y-82288094D02*
X113946247Y-82335713D01*
X177707593Y-82872834D02*
X177374260Y-82396643D01*
X177136165Y-82872834D02*
X177136165Y-81872834D01*
X177136165Y-81872834D02*
X177517117Y-81872834D01*
X177517117Y-81872834D02*
X177612355Y-81920453D01*
X177612355Y-81920453D02*
X177659974Y-81968072D01*
X177659974Y-81968072D02*
X177707593Y-82063310D01*
X177707593Y-82063310D02*
X177707593Y-82206167D01*
X177707593Y-82206167D02*
X177659974Y-82301405D01*
X177659974Y-82301405D02*
X177612355Y-82349024D01*
X177612355Y-82349024D02*
X177517117Y-82396643D01*
X177517117Y-82396643D02*
X177136165Y-82396643D01*
X178279022Y-82301405D02*
X178183784Y-82253786D01*
X178183784Y-82253786D02*
X178136165Y-82206167D01*
X178136165Y-82206167D02*
X178088546Y-82110929D01*
X178088546Y-82110929D02*
X178088546Y-82063310D01*
X178088546Y-82063310D02*
X178136165Y-81968072D01*
X178136165Y-81968072D02*
X178183784Y-81920453D01*
X178183784Y-81920453D02*
X178279022Y-81872834D01*
X178279022Y-81872834D02*
X178469498Y-81872834D01*
X178469498Y-81872834D02*
X178564736Y-81920453D01*
X178564736Y-81920453D02*
X178612355Y-81968072D01*
X178612355Y-81968072D02*
X178659974Y-82063310D01*
X178659974Y-82063310D02*
X178659974Y-82110929D01*
X178659974Y-82110929D02*
X178612355Y-82206167D01*
X178612355Y-82206167D02*
X178564736Y-82253786D01*
X178564736Y-82253786D02*
X178469498Y-82301405D01*
X178469498Y-82301405D02*
X178279022Y-82301405D01*
X178279022Y-82301405D02*
X178183784Y-82349024D01*
X178183784Y-82349024D02*
X178136165Y-82396643D01*
X178136165Y-82396643D02*
X178088546Y-82491881D01*
X178088546Y-82491881D02*
X178088546Y-82682357D01*
X178088546Y-82682357D02*
X178136165Y-82777595D01*
X178136165Y-82777595D02*
X178183784Y-82825215D01*
X178183784Y-82825215D02*
X178279022Y-82872834D01*
X178279022Y-82872834D02*
X178469498Y-82872834D01*
X178469498Y-82872834D02*
X178564736Y-82825215D01*
X178564736Y-82825215D02*
X178612355Y-82777595D01*
X178612355Y-82777595D02*
X178659974Y-82682357D01*
X178659974Y-82682357D02*
X178659974Y-82491881D01*
X178659974Y-82491881D02*
X178612355Y-82396643D01*
X178612355Y-82396643D02*
X178564736Y-82349024D01*
X178564736Y-82349024D02*
X178469498Y-82301405D01*
X179690162Y-95304248D02*
X179356829Y-94828057D01*
X179118734Y-95304248D02*
X179118734Y-94304248D01*
X179118734Y-94304248D02*
X179499686Y-94304248D01*
X179499686Y-94304248D02*
X179594924Y-94351867D01*
X179594924Y-94351867D02*
X179642543Y-94399486D01*
X179642543Y-94399486D02*
X179690162Y-94494724D01*
X179690162Y-94494724D02*
X179690162Y-94637581D01*
X179690162Y-94637581D02*
X179642543Y-94732819D01*
X179642543Y-94732819D02*
X179594924Y-94780438D01*
X179594924Y-94780438D02*
X179499686Y-94828057D01*
X179499686Y-94828057D02*
X179118734Y-94828057D01*
X179975877Y-94304248D02*
X180309210Y-95304248D01*
X180309210Y-95304248D02*
X180642543Y-94304248D01*
X180928258Y-94399486D02*
X180975877Y-94351867D01*
X180975877Y-94351867D02*
X181071115Y-94304248D01*
X181071115Y-94304248D02*
X181309210Y-94304248D01*
X181309210Y-94304248D02*
X181404448Y-94351867D01*
X181404448Y-94351867D02*
X181452067Y-94399486D01*
X181452067Y-94399486D02*
X181499686Y-94494724D01*
X181499686Y-94494724D02*
X181499686Y-94589962D01*
X181499686Y-94589962D02*
X181452067Y-94732819D01*
X181452067Y-94732819D02*
X180880639Y-95304248D01*
X180880639Y-95304248D02*
X181499686Y-95304248D01*
X132994559Y-104672632D02*
X133042179Y-104720251D01*
X133042179Y-104720251D02*
X133089798Y-104863108D01*
X133089798Y-104863108D02*
X133089798Y-104958346D01*
X133089798Y-104958346D02*
X133042179Y-105101203D01*
X133042179Y-105101203D02*
X132946940Y-105196441D01*
X132946940Y-105196441D02*
X132851702Y-105244060D01*
X132851702Y-105244060D02*
X132661226Y-105291679D01*
X132661226Y-105291679D02*
X132518369Y-105291679D01*
X132518369Y-105291679D02*
X132327893Y-105244060D01*
X132327893Y-105244060D02*
X132232655Y-105196441D01*
X132232655Y-105196441D02*
X132137417Y-105101203D01*
X132137417Y-105101203D02*
X132089798Y-104958346D01*
X132089798Y-104958346D02*
X132089798Y-104863108D01*
X132089798Y-104863108D02*
X132137417Y-104720251D01*
X132137417Y-104720251D02*
X132185036Y-104672632D01*
X132423131Y-103815489D02*
X133089798Y-103815489D01*
X132042179Y-104053584D02*
X132756464Y-104291679D01*
X132756464Y-104291679D02*
X132756464Y-103672632D01*
X166203333Y-96019580D02*
X166155714Y-96067200D01*
X166155714Y-96067200D02*
X166012857Y-96114819D01*
X166012857Y-96114819D02*
X165917619Y-96114819D01*
X165917619Y-96114819D02*
X165774762Y-96067200D01*
X165774762Y-96067200D02*
X165679524Y-95971961D01*
X165679524Y-95971961D02*
X165631905Y-95876723D01*
X165631905Y-95876723D02*
X165584286Y-95686247D01*
X165584286Y-95686247D02*
X165584286Y-95543390D01*
X165584286Y-95543390D02*
X165631905Y-95352914D01*
X165631905Y-95352914D02*
X165679524Y-95257676D01*
X165679524Y-95257676D02*
X165774762Y-95162438D01*
X165774762Y-95162438D02*
X165917619Y-95114819D01*
X165917619Y-95114819D02*
X166012857Y-95114819D01*
X166012857Y-95114819D02*
X166155714Y-95162438D01*
X166155714Y-95162438D02*
X166203333Y-95210057D01*
X167108095Y-95114819D02*
X166631905Y-95114819D01*
X166631905Y-95114819D02*
X166584286Y-95591009D01*
X166584286Y-95591009D02*
X166631905Y-95543390D01*
X166631905Y-95543390D02*
X166727143Y-95495771D01*
X166727143Y-95495771D02*
X166965238Y-95495771D01*
X166965238Y-95495771D02*
X167060476Y-95543390D01*
X167060476Y-95543390D02*
X167108095Y-95591009D01*
X167108095Y-95591009D02*
X167155714Y-95686247D01*
X167155714Y-95686247D02*
X167155714Y-95924342D01*
X167155714Y-95924342D02*
X167108095Y-96019580D01*
X167108095Y-96019580D02*
X167060476Y-96067200D01*
X167060476Y-96067200D02*
X166965238Y-96114819D01*
X166965238Y-96114819D02*
X166727143Y-96114819D01*
X166727143Y-96114819D02*
X166631905Y-96067200D01*
X166631905Y-96067200D02*
X166584286Y-96019580D01*
X140636666Y-103384819D02*
X140636666Y-104099104D01*
X140636666Y-104099104D02*
X140589047Y-104241961D01*
X140589047Y-104241961D02*
X140493809Y-104337200D01*
X140493809Y-104337200D02*
X140350952Y-104384819D01*
X140350952Y-104384819D02*
X140255714Y-104384819D01*
X141589047Y-103384819D02*
X141112857Y-103384819D01*
X141112857Y-103384819D02*
X141065238Y-103861009D01*
X141065238Y-103861009D02*
X141112857Y-103813390D01*
X141112857Y-103813390D02*
X141208095Y-103765771D01*
X141208095Y-103765771D02*
X141446190Y-103765771D01*
X141446190Y-103765771D02*
X141541428Y-103813390D01*
X141541428Y-103813390D02*
X141589047Y-103861009D01*
X141589047Y-103861009D02*
X141636666Y-103956247D01*
X141636666Y-103956247D02*
X141636666Y-104194342D01*
X141636666Y-104194342D02*
X141589047Y-104289580D01*
X141589047Y-104289580D02*
X141541428Y-104337200D01*
X141541428Y-104337200D02*
X141446190Y-104384819D01*
X141446190Y-104384819D02*
X141208095Y-104384819D01*
X141208095Y-104384819D02*
X141112857Y-104337200D01*
X141112857Y-104337200D02*
X141065238Y-104289580D01*
X177041667Y-112526241D02*
X177184524Y-112573860D01*
X177184524Y-112573860D02*
X177422619Y-112573860D01*
X177422619Y-112573860D02*
X177517857Y-112526241D01*
X177517857Y-112526241D02*
X177565476Y-112478621D01*
X177565476Y-112478621D02*
X177613095Y-112383383D01*
X177613095Y-112383383D02*
X177613095Y-112288145D01*
X177613095Y-112288145D02*
X177565476Y-112192907D01*
X177565476Y-112192907D02*
X177517857Y-112145288D01*
X177517857Y-112145288D02*
X177422619Y-112097669D01*
X177422619Y-112097669D02*
X177232143Y-112050050D01*
X177232143Y-112050050D02*
X177136905Y-112002431D01*
X177136905Y-112002431D02*
X177089286Y-111954812D01*
X177089286Y-111954812D02*
X177041667Y-111859574D01*
X177041667Y-111859574D02*
X177041667Y-111764336D01*
X177041667Y-111764336D02*
X177089286Y-111669098D01*
X177089286Y-111669098D02*
X177136905Y-111621479D01*
X177136905Y-111621479D02*
X177232143Y-111573860D01*
X177232143Y-111573860D02*
X177470238Y-111573860D01*
X177470238Y-111573860D02*
X177613095Y-111621479D01*
X177946429Y-111573860D02*
X178184524Y-112573860D01*
X178184524Y-112573860D02*
X178375000Y-111859574D01*
X178375000Y-111859574D02*
X178565476Y-112573860D01*
X178565476Y-112573860D02*
X178803572Y-111573860D01*
X179613095Y-111573860D02*
X179422619Y-111573860D01*
X179422619Y-111573860D02*
X179327381Y-111621479D01*
X179327381Y-111621479D02*
X179279762Y-111669098D01*
X179279762Y-111669098D02*
X179184524Y-111811955D01*
X179184524Y-111811955D02*
X179136905Y-112002431D01*
X179136905Y-112002431D02*
X179136905Y-112383383D01*
X179136905Y-112383383D02*
X179184524Y-112478621D01*
X179184524Y-112478621D02*
X179232143Y-112526241D01*
X179232143Y-112526241D02*
X179327381Y-112573860D01*
X179327381Y-112573860D02*
X179517857Y-112573860D01*
X179517857Y-112573860D02*
X179613095Y-112526241D01*
X179613095Y-112526241D02*
X179660714Y-112478621D01*
X179660714Y-112478621D02*
X179708333Y-112383383D01*
X179708333Y-112383383D02*
X179708333Y-112145288D01*
X179708333Y-112145288D02*
X179660714Y-112050050D01*
X179660714Y-112050050D02*
X179613095Y-112002431D01*
X179613095Y-112002431D02*
X179517857Y-111954812D01*
X179517857Y-111954812D02*
X179327381Y-111954812D01*
X179327381Y-111954812D02*
X179232143Y-112002431D01*
X179232143Y-112002431D02*
X179184524Y-112050050D01*
X179184524Y-112050050D02*
X179136905Y-112145288D01*
X175774819Y-71453333D02*
X176489104Y-71453333D01*
X176489104Y-71453333D02*
X176631961Y-71500952D01*
X176631961Y-71500952D02*
X176727200Y-71596190D01*
X176727200Y-71596190D02*
X176774819Y-71739047D01*
X176774819Y-71739047D02*
X176774819Y-71834285D01*
X175774819Y-71072380D02*
X175774819Y-70453333D01*
X175774819Y-70453333D02*
X176155771Y-70786666D01*
X176155771Y-70786666D02*
X176155771Y-70643809D01*
X176155771Y-70643809D02*
X176203390Y-70548571D01*
X176203390Y-70548571D02*
X176251009Y-70500952D01*
X176251009Y-70500952D02*
X176346247Y-70453333D01*
X176346247Y-70453333D02*
X176584342Y-70453333D01*
X176584342Y-70453333D02*
X176679580Y-70500952D01*
X176679580Y-70500952D02*
X176727200Y-70548571D01*
X176727200Y-70548571D02*
X176774819Y-70643809D01*
X176774819Y-70643809D02*
X176774819Y-70929523D01*
X176774819Y-70929523D02*
X176727200Y-71024761D01*
X176727200Y-71024761D02*
X176679580Y-71072380D01*
X169687025Y-100586427D02*
X169734645Y-100634046D01*
X169734645Y-100634046D02*
X169782264Y-100776903D01*
X169782264Y-100776903D02*
X169782264Y-100872141D01*
X169782264Y-100872141D02*
X169734645Y-101014998D01*
X169734645Y-101014998D02*
X169639406Y-101110236D01*
X169639406Y-101110236D02*
X169544168Y-101157855D01*
X169544168Y-101157855D02*
X169353692Y-101205474D01*
X169353692Y-101205474D02*
X169210835Y-101205474D01*
X169210835Y-101205474D02*
X169020359Y-101157855D01*
X169020359Y-101157855D02*
X168925121Y-101110236D01*
X168925121Y-101110236D02*
X168829883Y-101014998D01*
X168829883Y-101014998D02*
X168782264Y-100872141D01*
X168782264Y-100872141D02*
X168782264Y-100776903D01*
X168782264Y-100776903D02*
X168829883Y-100634046D01*
X168829883Y-100634046D02*
X168877502Y-100586427D01*
X168877502Y-100205474D02*
X168829883Y-100157855D01*
X168829883Y-100157855D02*
X168782264Y-100062617D01*
X168782264Y-100062617D02*
X168782264Y-99824522D01*
X168782264Y-99824522D02*
X168829883Y-99729284D01*
X168829883Y-99729284D02*
X168877502Y-99681665D01*
X168877502Y-99681665D02*
X168972740Y-99634046D01*
X168972740Y-99634046D02*
X169067978Y-99634046D01*
X169067978Y-99634046D02*
X169210835Y-99681665D01*
X169210835Y-99681665D02*
X169782264Y-100253093D01*
X169782264Y-100253093D02*
X169782264Y-99634046D01*
X126497267Y-107142211D02*
X126163934Y-106666020D01*
X125925839Y-107142211D02*
X125925839Y-106142211D01*
X125925839Y-106142211D02*
X126306791Y-106142211D01*
X126306791Y-106142211D02*
X126402029Y-106189830D01*
X126402029Y-106189830D02*
X126449648Y-106237449D01*
X126449648Y-106237449D02*
X126497267Y-106332687D01*
X126497267Y-106332687D02*
X126497267Y-106475544D01*
X126497267Y-106475544D02*
X126449648Y-106570782D01*
X126449648Y-106570782D02*
X126402029Y-106618401D01*
X126402029Y-106618401D02*
X126306791Y-106666020D01*
X126306791Y-106666020D02*
X125925839Y-106666020D01*
X127449648Y-107142211D02*
X126878220Y-107142211D01*
X127163934Y-107142211D02*
X127163934Y-106142211D01*
X127163934Y-106142211D02*
X127068696Y-106285068D01*
X127068696Y-106285068D02*
X126973458Y-106380306D01*
X126973458Y-106380306D02*
X126878220Y-106427925D01*
X129677200Y-120699531D02*
X129724819Y-120556674D01*
X129724819Y-120556674D02*
X129724819Y-120318579D01*
X129724819Y-120318579D02*
X129677200Y-120223341D01*
X129677200Y-120223341D02*
X129629580Y-120175722D01*
X129629580Y-120175722D02*
X129534342Y-120128103D01*
X129534342Y-120128103D02*
X129439104Y-120128103D01*
X129439104Y-120128103D02*
X129343866Y-120175722D01*
X129343866Y-120175722D02*
X129296247Y-120223341D01*
X129296247Y-120223341D02*
X129248628Y-120318579D01*
X129248628Y-120318579D02*
X129201009Y-120509055D01*
X129201009Y-120509055D02*
X129153390Y-120604293D01*
X129153390Y-120604293D02*
X129105771Y-120651912D01*
X129105771Y-120651912D02*
X129010533Y-120699531D01*
X129010533Y-120699531D02*
X128915295Y-120699531D01*
X128915295Y-120699531D02*
X128820057Y-120651912D01*
X128820057Y-120651912D02*
X128772438Y-120604293D01*
X128772438Y-120604293D02*
X128724819Y-120509055D01*
X128724819Y-120509055D02*
X128724819Y-120270960D01*
X128724819Y-120270960D02*
X128772438Y-120128103D01*
X128724819Y-119794769D02*
X129724819Y-119556674D01*
X129724819Y-119556674D02*
X129010533Y-119366198D01*
X129010533Y-119366198D02*
X129724819Y-119175722D01*
X129724819Y-119175722D02*
X128724819Y-118937627D01*
X129058152Y-118128103D02*
X129724819Y-118128103D01*
X128677200Y-118366198D02*
X129391485Y-118604293D01*
X129391485Y-118604293D02*
X129391485Y-117985246D01*
X128733607Y-118898745D02*
X128781226Y-118755888D01*
X128781226Y-118755888D02*
X128781226Y-118517793D01*
X128781226Y-118517793D02*
X128733607Y-118422555D01*
X128733607Y-118422555D02*
X128685987Y-118374936D01*
X128685987Y-118374936D02*
X128590749Y-118327317D01*
X128590749Y-118327317D02*
X128495511Y-118327317D01*
X128495511Y-118327317D02*
X128400273Y-118374936D01*
X128400273Y-118374936D02*
X128352654Y-118422555D01*
X128352654Y-118422555D02*
X128305035Y-118517793D01*
X128305035Y-118517793D02*
X128257416Y-118708269D01*
X128257416Y-118708269D02*
X128209797Y-118803507D01*
X128209797Y-118803507D02*
X128162178Y-118851126D01*
X128162178Y-118851126D02*
X128066940Y-118898745D01*
X128066940Y-118898745D02*
X127971702Y-118898745D01*
X127971702Y-118898745D02*
X127876464Y-118851126D01*
X127876464Y-118851126D02*
X127828845Y-118803507D01*
X127828845Y-118803507D02*
X127781226Y-118708269D01*
X127781226Y-118708269D02*
X127781226Y-118470174D01*
X127781226Y-118470174D02*
X127828845Y-118327317D01*
X127781226Y-117993983D02*
X128781226Y-117755888D01*
X128781226Y-117755888D02*
X128066940Y-117565412D01*
X128066940Y-117565412D02*
X128781226Y-117374936D01*
X128781226Y-117374936D02*
X127781226Y-117136841D01*
X127876464Y-116803507D02*
X127828845Y-116755888D01*
X127828845Y-116755888D02*
X127781226Y-116660650D01*
X127781226Y-116660650D02*
X127781226Y-116422555D01*
X127781226Y-116422555D02*
X127828845Y-116327317D01*
X127828845Y-116327317D02*
X127876464Y-116279698D01*
X127876464Y-116279698D02*
X127971702Y-116232079D01*
X127971702Y-116232079D02*
X128066940Y-116232079D01*
X128066940Y-116232079D02*
X128209797Y-116279698D01*
X128209797Y-116279698D02*
X128781226Y-116851126D01*
X128781226Y-116851126D02*
X128781226Y-116232079D01*
X179626493Y-86522913D02*
X179293160Y-86046722D01*
X179055065Y-86522913D02*
X179055065Y-85522913D01*
X179055065Y-85522913D02*
X179436017Y-85522913D01*
X179436017Y-85522913D02*
X179531255Y-85570532D01*
X179531255Y-85570532D02*
X179578874Y-85618151D01*
X179578874Y-85618151D02*
X179626493Y-85713389D01*
X179626493Y-85713389D02*
X179626493Y-85856246D01*
X179626493Y-85856246D02*
X179578874Y-85951484D01*
X179578874Y-85951484D02*
X179531255Y-85999103D01*
X179531255Y-85999103D02*
X179436017Y-86046722D01*
X179436017Y-86046722D02*
X179055065Y-86046722D01*
X179912208Y-85522913D02*
X180245541Y-86522913D01*
X180245541Y-86522913D02*
X180578874Y-85522913D01*
X181436017Y-86522913D02*
X180864589Y-86522913D01*
X181150303Y-86522913D02*
X181150303Y-85522913D01*
X181150303Y-85522913D02*
X181055065Y-85665770D01*
X181055065Y-85665770D02*
X180959827Y-85761008D01*
X180959827Y-85761008D02*
X180864589Y-85808627D01*
X118184819Y-77636666D02*
X117708628Y-77969999D01*
X118184819Y-78208094D02*
X117184819Y-78208094D01*
X117184819Y-78208094D02*
X117184819Y-77827142D01*
X117184819Y-77827142D02*
X117232438Y-77731904D01*
X117232438Y-77731904D02*
X117280057Y-77684285D01*
X117280057Y-77684285D02*
X117375295Y-77636666D01*
X117375295Y-77636666D02*
X117518152Y-77636666D01*
X117518152Y-77636666D02*
X117613390Y-77684285D01*
X117613390Y-77684285D02*
X117661009Y-77731904D01*
X117661009Y-77731904D02*
X117708628Y-77827142D01*
X117708628Y-77827142D02*
X117708628Y-78208094D01*
X117184819Y-76731904D02*
X117184819Y-77208094D01*
X117184819Y-77208094D02*
X117661009Y-77255713D01*
X117661009Y-77255713D02*
X117613390Y-77208094D01*
X117613390Y-77208094D02*
X117565771Y-77112856D01*
X117565771Y-77112856D02*
X117565771Y-76874761D01*
X117565771Y-76874761D02*
X117613390Y-76779523D01*
X117613390Y-76779523D02*
X117661009Y-76731904D01*
X117661009Y-76731904D02*
X117756247Y-76684285D01*
X117756247Y-76684285D02*
X117994342Y-76684285D01*
X117994342Y-76684285D02*
X118089580Y-76731904D01*
X118089580Y-76731904D02*
X118137200Y-76779523D01*
X118137200Y-76779523D02*
X118184819Y-76874761D01*
X118184819Y-76874761D02*
X118184819Y-77112856D01*
X118184819Y-77112856D02*
X118137200Y-77208094D01*
X118137200Y-77208094D02*
X118089580Y-77255713D01*
X171994955Y-119744017D02*
X172709240Y-119744017D01*
X172709240Y-119744017D02*
X172852097Y-119791636D01*
X172852097Y-119791636D02*
X172947336Y-119886874D01*
X172947336Y-119886874D02*
X172994955Y-120029731D01*
X172994955Y-120029731D02*
X172994955Y-120124969D01*
X172994955Y-118744017D02*
X172994955Y-119315445D01*
X172994955Y-119029731D02*
X171994955Y-119029731D01*
X171994955Y-119029731D02*
X172137812Y-119124969D01*
X172137812Y-119124969D02*
X172233050Y-119220207D01*
X172233050Y-119220207D02*
X172280669Y-119315445D01*
D11*
%TO.C,R4*%
X122455000Y-77697064D02*
X122455000Y-77242936D01*
X123925000Y-77697064D02*
X123925000Y-77242936D01*
%TO.C,C3*%
X130211565Y-110288060D02*
X130211565Y-109765556D01*
X131681565Y-110288060D02*
X131681565Y-109765556D01*
%TO.C,C6*%
X146210000Y-112363448D02*
X154270000Y-112363448D01*
X154270000Y-107843448D02*
X146210000Y-107843448D01*
X154270000Y-112363448D02*
X154270000Y-107843448D01*
%TO.C,R11*%
X127535000Y-95028627D02*
X127535000Y-95482755D01*
X129005000Y-95028627D02*
X129005000Y-95482755D01*
%TO.C,R12*%
X142416333Y-93325870D02*
X142870461Y-93325870D01*
X142416333Y-94795870D02*
X142870461Y-94795870D01*
%TO.C,SW3*%
X113090000Y-91060000D02*
X119090000Y-91060000D01*
X113090000Y-91820000D02*
X113090000Y-91060000D01*
X113090000Y-93600000D02*
X119090000Y-93600000D01*
X113090000Y-94360000D02*
X113090000Y-93600000D01*
X113090000Y-96140000D02*
X119090000Y-96140000D01*
X113090000Y-96900000D02*
X113090000Y-96140000D01*
X119090000Y-90110000D02*
X119090000Y-97850000D01*
X119090000Y-91820000D02*
X113090000Y-91820000D01*
X119090000Y-94360000D02*
X113090000Y-94360000D01*
X119090000Y-96240000D02*
X113090000Y-96240000D01*
X119090000Y-96360000D02*
X113090000Y-96360000D01*
X119090000Y-96480000D02*
X113090000Y-96480000D01*
X119090000Y-96600000D02*
X113090000Y-96600000D01*
X119090000Y-96720000D02*
X113090000Y-96720000D01*
X119090000Y-96840000D02*
X113090000Y-96840000D01*
X119090000Y-96900000D02*
X113090000Y-96900000D01*
X119090000Y-97850000D02*
X121750000Y-97850000D01*
X121750000Y-90110000D02*
X119090000Y-90110000D01*
X121750000Y-92710000D02*
X119090000Y-92710000D01*
X121750000Y-95250000D02*
X119090000Y-95250000D01*
X121750000Y-97850000D02*
X121750000Y-90110000D01*
X122080000Y-96140000D02*
X121750000Y-96140000D01*
X122080000Y-96900000D02*
X121750000Y-96900000D01*
X122147071Y-91060000D02*
X121750000Y-91060000D01*
X122147071Y-91820000D02*
X121750000Y-91820000D01*
X122147071Y-93600000D02*
X121750000Y-93600000D01*
X122147071Y-94360000D02*
X121750000Y-94360000D01*
X124460000Y-96520000D02*
X124460000Y-97790000D01*
X124460000Y-97790000D02*
X123190000Y-97790000D01*
%TO.C,J4*%
X112975000Y-116445000D02*
X112975000Y-119105000D01*
X112975000Y-119105000D02*
X118175000Y-119105000D01*
X113925000Y-116047929D02*
X113925000Y-116445000D01*
X113925000Y-125105000D02*
X113925000Y-119105000D01*
X114685000Y-116047929D02*
X114685000Y-116445000D01*
X114685000Y-119105000D02*
X114685000Y-125105000D01*
X114685000Y-125105000D02*
X113925000Y-125105000D01*
X115575000Y-116445000D02*
X115575000Y-119105000D01*
X116465000Y-116115000D02*
X116465000Y-116445000D01*
X116465000Y-125105000D02*
X116465000Y-119105000D01*
X116565000Y-119105000D02*
X116565000Y-125105000D01*
X116685000Y-119105000D02*
X116685000Y-125105000D01*
X116805000Y-119105000D02*
X116805000Y-125105000D01*
X116845000Y-113735000D02*
X118115000Y-113735000D01*
X116925000Y-119105000D02*
X116925000Y-125105000D01*
X117045000Y-119105000D02*
X117045000Y-125105000D01*
X117165000Y-119105000D02*
X117165000Y-125105000D01*
X117225000Y-116115000D02*
X117225000Y-116445000D01*
X117225000Y-119105000D02*
X117225000Y-125105000D01*
X117225000Y-125105000D02*
X116465000Y-125105000D01*
X118115000Y-113735000D02*
X118115000Y-115005000D01*
X118175000Y-116445000D02*
X112975000Y-116445000D01*
X118175000Y-119105000D02*
X118175000Y-116445000D01*
%TO.C,J2*%
X143665136Y-119125684D02*
X143665136Y-116465684D01*
X143665136Y-116465684D02*
X138465136Y-116465684D01*
X143605136Y-113755684D02*
X143605136Y-115025684D01*
X142715136Y-125125684D02*
X141955136Y-125125684D01*
X142715136Y-119125684D02*
X142715136Y-125125684D01*
X142715136Y-116135684D02*
X142715136Y-116465684D01*
X142655136Y-119125684D02*
X142655136Y-125125684D01*
X142535136Y-119125684D02*
X142535136Y-125125684D01*
X142415136Y-119125684D02*
X142415136Y-125125684D01*
X142335136Y-113755684D02*
X143605136Y-113755684D01*
X142295136Y-119125684D02*
X142295136Y-125125684D01*
X142175136Y-119125684D02*
X142175136Y-125125684D01*
X142055136Y-119125684D02*
X142055136Y-125125684D01*
X141955136Y-125125684D02*
X141955136Y-119125684D01*
X141955136Y-116135684D02*
X141955136Y-116465684D01*
X141065136Y-116465684D02*
X141065136Y-119125684D01*
X140175136Y-125125684D02*
X139415136Y-125125684D01*
X140175136Y-119125684D02*
X140175136Y-125125684D01*
X140175136Y-116068613D02*
X140175136Y-116465684D01*
X139415136Y-125125684D02*
X139415136Y-119125684D01*
X139415136Y-116068613D02*
X139415136Y-116465684D01*
X138465136Y-119125684D02*
X143665136Y-119125684D01*
X138465136Y-116465684D02*
X138465136Y-119125684D01*
%TO.C,A1*%
X125600000Y-79880000D02*
X136020000Y-79880000D01*
X125600000Y-87760000D02*
X125600000Y-79880000D01*
X128140000Y-74800000D02*
X128140000Y-79880000D01*
X128140000Y-92840000D02*
X128140000Y-87760000D01*
X128140000Y-92840000D02*
X171580000Y-92840000D01*
X130810000Y-77470000D02*
X130810000Y-74800000D01*
X130810000Y-90170000D02*
X130810000Y-92840000D01*
X136020000Y-79880000D02*
X136020000Y-87760000D01*
X136020000Y-87760000D02*
X125600000Y-87760000D01*
X166370000Y-74800000D02*
X128140000Y-74800000D01*
X166370000Y-77470000D02*
X130810000Y-77470000D01*
X166370000Y-77470000D02*
X166370000Y-74800000D01*
X166370000Y-77470000D02*
X168910000Y-77470000D01*
X168910000Y-77470000D02*
X168910000Y-74800000D01*
X168910000Y-90170000D02*
X130810000Y-90170000D01*
X168910000Y-90170000D02*
X168910000Y-92840000D01*
X171580000Y-74800000D02*
X168910000Y-74800000D01*
X171580000Y-92840000D02*
X171580000Y-74800000D01*
%TO.C,Q1*%
X138105000Y-95940000D02*
X138105000Y-96830000D01*
X138105000Y-96830000D02*
X136255000Y-96830000D01*
X138120000Y-93710000D02*
X136270000Y-93710000D01*
X138120000Y-93710000D02*
X138120000Y-94600000D01*
X135880000Y-93700000D02*
X135640000Y-93370000D01*
X136120000Y-93370000D01*
X135880000Y-93700000D01*
G36*
X135880000Y-93700000D02*
G01*
X135640000Y-93370000D01*
X136120000Y-93370000D01*
X135880000Y-93700000D01*
G37*
%TO.C,R3*%
X149125000Y-95022936D02*
X149125000Y-95477064D01*
X150595000Y-95022936D02*
X150595000Y-95477064D01*
%TO.C,R2*%
X151665000Y-95022936D02*
X151665000Y-95477064D01*
X153135000Y-95022936D02*
X153135000Y-95477064D01*
%TO.C,C7*%
X172198202Y-73663952D02*
X172198202Y-81723952D01*
X176718202Y-73663952D02*
X172198202Y-73663952D01*
X176718202Y-81723952D02*
X176718202Y-73663952D01*
%TO.C,R13*%
X137596593Y-97548599D02*
X137142465Y-97548599D01*
X137596593Y-99018599D02*
X137142465Y-99018599D01*
%TO.C,R10*%
X130959050Y-95076918D02*
X130959050Y-95531046D01*
X132429050Y-95076918D02*
X132429050Y-95531046D01*
%TO.C,SW5*%
X144815136Y-116465684D02*
X144815136Y-119125684D01*
X144815136Y-119125684D02*
X150015136Y-119125684D01*
X145765136Y-116068613D02*
X145765136Y-116465684D01*
X145765136Y-125125684D02*
X145765136Y-119125684D01*
X146525136Y-116068613D02*
X146525136Y-116465684D01*
X146525136Y-119125684D02*
X146525136Y-125125684D01*
X146525136Y-125125684D02*
X145765136Y-125125684D01*
X147415136Y-116465684D02*
X147415136Y-119125684D01*
X148305136Y-116135684D02*
X148305136Y-116465684D01*
X148305136Y-125125684D02*
X148305136Y-119125684D01*
X148405136Y-119125684D02*
X148405136Y-125125684D01*
X148525136Y-119125684D02*
X148525136Y-125125684D01*
X148645136Y-119125684D02*
X148645136Y-125125684D01*
X148685136Y-113755684D02*
X149955136Y-113755684D01*
X148765136Y-119125684D02*
X148765136Y-125125684D01*
X148885136Y-119125684D02*
X148885136Y-125125684D01*
X149005136Y-119125684D02*
X149005136Y-125125684D01*
X149065136Y-116135684D02*
X149065136Y-116465684D01*
X149065136Y-119125684D02*
X149065136Y-125125684D01*
X149065136Y-125125684D02*
X148305136Y-125125684D01*
X149955136Y-113755684D02*
X149955136Y-115025684D01*
X150015136Y-116465684D02*
X144815136Y-116465684D01*
X150015136Y-119125684D02*
X150015136Y-116465684D01*
%TO.C,R9*%
X169445000Y-104367064D02*
X169445000Y-103912936D01*
X170915000Y-104367064D02*
X170915000Y-103912936D01*
%TO.C,SW1*%
X172780720Y-104155000D02*
X174050720Y-104155000D01*
X172780720Y-105425000D02*
X172780720Y-104155000D01*
X175093649Y-107585000D02*
X175490720Y-107585000D01*
X175093649Y-108345000D02*
X175490720Y-108345000D01*
X175093649Y-110125000D02*
X175490720Y-110125000D01*
X175093649Y-110885000D02*
X175490720Y-110885000D01*
X175160720Y-105045000D02*
X175490720Y-105045000D01*
X175160720Y-105805000D02*
X175490720Y-105805000D01*
X175490720Y-104095000D02*
X175490720Y-111835000D01*
X175490720Y-106695000D02*
X178150720Y-106695000D01*
X175490720Y-109235000D02*
X178150720Y-109235000D01*
X175490720Y-111835000D02*
X178150720Y-111835000D01*
X178150720Y-104095000D02*
X175490720Y-104095000D01*
X178150720Y-105045000D02*
X184150720Y-105045000D01*
X178150720Y-105105000D02*
X184150720Y-105105000D01*
X178150720Y-105225000D02*
X184150720Y-105225000D01*
X178150720Y-105345000D02*
X184150720Y-105345000D01*
X178150720Y-105465000D02*
X184150720Y-105465000D01*
X178150720Y-105585000D02*
X184150720Y-105585000D01*
X178150720Y-105705000D02*
X184150720Y-105705000D01*
X178150720Y-107585000D02*
X184150720Y-107585000D01*
X178150720Y-110125000D02*
X184150720Y-110125000D01*
X178150720Y-111835000D02*
X178150720Y-104095000D01*
X184150720Y-105045000D02*
X184150720Y-105805000D01*
X184150720Y-105805000D02*
X178150720Y-105805000D01*
X184150720Y-107585000D02*
X184150720Y-108345000D01*
X184150720Y-108345000D02*
X178150720Y-108345000D01*
X184150720Y-110125000D02*
X184150720Y-110885000D01*
X184150720Y-110885000D02*
X178150720Y-110885000D01*
%TO.C,U1*%
X125866565Y-106453464D02*
X123916565Y-106453464D01*
X125866565Y-106453464D02*
X127816565Y-106453464D01*
X125866565Y-111573464D02*
X123916565Y-111573464D01*
X125866565Y-111573464D02*
X127816565Y-111573464D01*
X128806565Y-111808464D02*
X128326565Y-111808464D01*
X128566565Y-111478464D01*
X128806565Y-111808464D01*
G36*
X128806565Y-111808464D02*
G01*
X128326565Y-111808464D01*
X128566565Y-111478464D01*
X128806565Y-111808464D01*
G37*
%TO.C,R14*%
X133149585Y-94995100D02*
X133149585Y-95449228D01*
X134619585Y-94995100D02*
X134619585Y-95449228D01*
%TO.C,R7*%
X114881656Y-79274994D02*
X114881656Y-78820866D01*
X116351656Y-79274994D02*
X116351656Y-78820866D01*
%TO.C,C1*%
X119986565Y-105464716D02*
X119986565Y-104942212D01*
X121456565Y-105464716D02*
X121456565Y-104942212D01*
%TO.C,R6*%
X114835000Y-82777064D02*
X114835000Y-82322936D01*
X116305000Y-82777064D02*
X116305000Y-82322936D01*
%TO.C,R8*%
X177647196Y-83333015D02*
X178101324Y-83333015D01*
X177647196Y-84803015D02*
X178101324Y-84803015D01*
%TO.C,RV2*%
X172745748Y-95354041D02*
X174015748Y-95354041D01*
X172745748Y-96624041D02*
X172745748Y-95354041D01*
X175058677Y-98784041D02*
X175455748Y-98784041D01*
X175058677Y-99544041D02*
X175455748Y-99544041D01*
X175058677Y-101324041D02*
X175455748Y-101324041D01*
X175058677Y-102084041D02*
X175455748Y-102084041D01*
X175125748Y-96244041D02*
X175455748Y-96244041D01*
X175125748Y-97004041D02*
X175455748Y-97004041D01*
X175455748Y-95294041D02*
X175455748Y-103034041D01*
X175455748Y-97894041D02*
X178115748Y-97894041D01*
X175455748Y-100434041D02*
X178115748Y-100434041D01*
X175455748Y-103034041D02*
X178115748Y-103034041D01*
X178115748Y-95294041D02*
X175455748Y-95294041D01*
X178115748Y-96244041D02*
X184115748Y-96244041D01*
X178115748Y-96304041D02*
X184115748Y-96304041D01*
X178115748Y-96424041D02*
X184115748Y-96424041D01*
X178115748Y-96544041D02*
X184115748Y-96544041D01*
X178115748Y-96664041D02*
X184115748Y-96664041D01*
X178115748Y-96784041D02*
X184115748Y-96784041D01*
X178115748Y-96904041D02*
X184115748Y-96904041D01*
X178115748Y-98784041D02*
X184115748Y-98784041D01*
X178115748Y-101324041D02*
X184115748Y-101324041D01*
X178115748Y-103034041D02*
X178115748Y-95294041D01*
X184115748Y-96244041D02*
X184115748Y-97004041D01*
X184115748Y-97004041D02*
X178115748Y-97004041D01*
X184115748Y-98784041D02*
X184115748Y-99544041D01*
X184115748Y-99544041D02*
X178115748Y-99544041D01*
X184115748Y-101324041D02*
X184115748Y-102084041D01*
X184115748Y-102084041D02*
X178115748Y-102084041D01*
%TO.C,C4*%
X133630000Y-101000000D02*
X133630000Y-109060000D01*
X138150000Y-101000000D02*
X133630000Y-101000000D01*
X138150000Y-109060000D02*
X138150000Y-101000000D01*
%TO.C,C5*%
X166631252Y-93245000D02*
X166108748Y-93245000D01*
X166631252Y-94715000D02*
X166108748Y-94715000D01*
%TO.C,J5*%
X139640000Y-100330000D02*
X139640000Y-97730000D01*
X142300000Y-97730000D02*
X139640000Y-97730000D01*
X142300000Y-100330000D02*
X139640000Y-100330000D01*
X142300000Y-100330000D02*
X142300000Y-97730000D01*
X142300000Y-101600000D02*
X142300000Y-102930000D01*
X142300000Y-102930000D02*
X140970000Y-102930000D01*
%TO.C,SW6*%
X172720000Y-113119041D02*
X173990000Y-113119041D01*
X172720000Y-114389041D02*
X172720000Y-113119041D01*
X175032929Y-116549041D02*
X175430000Y-116549041D01*
X175032929Y-117309041D02*
X175430000Y-117309041D01*
X175100000Y-114009041D02*
X175430000Y-114009041D01*
X175100000Y-114769041D02*
X175430000Y-114769041D01*
X175430000Y-113059041D02*
X175430000Y-118259041D01*
X175430000Y-115659041D02*
X178090000Y-115659041D01*
X175430000Y-118259041D02*
X178090000Y-118259041D01*
X178090000Y-113059041D02*
X175430000Y-113059041D01*
X178090000Y-114009041D02*
X184090000Y-114009041D01*
X178090000Y-114069041D02*
X184090000Y-114069041D01*
X178090000Y-114189041D02*
X184090000Y-114189041D01*
X178090000Y-114309041D02*
X184090000Y-114309041D01*
X178090000Y-114429041D02*
X184090000Y-114429041D01*
X178090000Y-114549041D02*
X184090000Y-114549041D01*
X178090000Y-114669041D02*
X184090000Y-114669041D01*
X178090000Y-116549041D02*
X184090000Y-116549041D01*
X178090000Y-118259041D02*
X178090000Y-113059041D01*
X184090000Y-114009041D02*
X184090000Y-114769041D01*
X184090000Y-114769041D02*
X178090000Y-114769041D01*
X184090000Y-116549041D02*
X184090000Y-117309041D01*
X184090000Y-117309041D02*
X178090000Y-117309041D01*
%TO.C,J3*%
X124400000Y-69790000D02*
X124400000Y-72450000D01*
X172720000Y-69790000D02*
X124400000Y-69790000D01*
X172720000Y-69790000D02*
X172720000Y-72450000D01*
X172720000Y-72450000D02*
X124400000Y-72450000D01*
X173990000Y-69790000D02*
X175320000Y-69790000D01*
X175320000Y-69790000D02*
X175320000Y-71120000D01*
%TO.C,C2*%
X160180000Y-102590000D02*
X168240000Y-102590000D01*
X168240000Y-98070000D02*
X160180000Y-98070000D01*
X168240000Y-102590000D02*
X168240000Y-98070000D01*
%TO.C,R1*%
X126890998Y-104302392D02*
X126436870Y-104302392D01*
X126890998Y-105772392D02*
X126436870Y-105772392D01*
%TO.C,SW4*%
X120590000Y-116421199D02*
X120590000Y-119081199D01*
X120590000Y-119081199D02*
X128330000Y-119081199D01*
X121540000Y-116024128D02*
X121540000Y-116421199D01*
X121540000Y-125081199D02*
X121540000Y-119081199D01*
X122300000Y-116024128D02*
X122300000Y-116421199D01*
X122300000Y-119081199D02*
X122300000Y-125081199D01*
X122300000Y-125081199D02*
X121540000Y-125081199D01*
X123190000Y-116421199D02*
X123190000Y-119081199D01*
X124080000Y-116024128D02*
X124080000Y-116421199D01*
X124080000Y-125081199D02*
X124080000Y-119081199D01*
X124840000Y-116024128D02*
X124840000Y-116421199D01*
X124840000Y-119081199D02*
X124840000Y-125081199D01*
X124840000Y-125081199D02*
X124080000Y-125081199D01*
X125730000Y-116421199D02*
X125730000Y-119081199D01*
X126620000Y-116091199D02*
X126620000Y-116421199D01*
X126620000Y-125081199D02*
X126620000Y-119081199D01*
X126720000Y-119081199D02*
X126720000Y-125081199D01*
X126840000Y-119081199D02*
X126840000Y-125081199D01*
X126960000Y-119081199D02*
X126960000Y-125081199D01*
X127000000Y-113711199D02*
X128270000Y-113711199D01*
X127080000Y-119081199D02*
X127080000Y-125081199D01*
X127200000Y-119081199D02*
X127200000Y-125081199D01*
X127320000Y-119081199D02*
X127320000Y-125081199D01*
X127380000Y-116091199D02*
X127380000Y-116421199D01*
X127380000Y-119081199D02*
X127380000Y-125081199D01*
X127380000Y-125081199D02*
X126620000Y-125081199D01*
X128270000Y-113711199D02*
X128270000Y-114981199D01*
X128330000Y-116421199D02*
X120590000Y-116421199D01*
X128330000Y-119081199D02*
X128330000Y-116421199D01*
%TO.C,SW2*%
X129570136Y-116445510D02*
X129570136Y-119105510D01*
X129570136Y-119105510D02*
X137310136Y-119105510D01*
X130520136Y-116048439D02*
X130520136Y-116445510D01*
X130520136Y-125105510D02*
X130520136Y-119105510D01*
X131280136Y-116048439D02*
X131280136Y-116445510D01*
X131280136Y-119105510D02*
X131280136Y-125105510D01*
X131280136Y-125105510D02*
X130520136Y-125105510D01*
X132170136Y-116445510D02*
X132170136Y-119105510D01*
X133060136Y-116048439D02*
X133060136Y-116445510D01*
X133060136Y-125105510D02*
X133060136Y-119105510D01*
X133820136Y-116048439D02*
X133820136Y-116445510D01*
X133820136Y-119105510D02*
X133820136Y-125105510D01*
X133820136Y-125105510D02*
X133060136Y-125105510D01*
X134710136Y-116445510D02*
X134710136Y-119105510D01*
X135600136Y-116115510D02*
X135600136Y-116445510D01*
X135600136Y-125105510D02*
X135600136Y-119105510D01*
X135700136Y-119105510D02*
X135700136Y-125105510D01*
X135820136Y-119105510D02*
X135820136Y-125105510D01*
X135940136Y-119105510D02*
X135940136Y-125105510D01*
X135980136Y-113735510D02*
X137250136Y-113735510D01*
X136060136Y-119105510D02*
X136060136Y-125105510D01*
X136180136Y-119105510D02*
X136180136Y-125105510D01*
X136300136Y-119105510D02*
X136300136Y-125105510D01*
X136360136Y-116115510D02*
X136360136Y-116445510D01*
X136360136Y-119105510D02*
X136360136Y-125105510D01*
X136360136Y-125105510D02*
X135600136Y-125105510D01*
X137250136Y-113735510D02*
X137250136Y-115005510D01*
X137310136Y-116445510D02*
X129570136Y-116445510D01*
X137310136Y-119105510D02*
X137310136Y-116445510D01*
%TO.C,RV1*%
X172720000Y-86449041D02*
X173990000Y-86449041D01*
X172720000Y-87719041D02*
X172720000Y-86449041D01*
X175032929Y-89879041D02*
X175430000Y-89879041D01*
X175032929Y-90639041D02*
X175430000Y-90639041D01*
X175032929Y-92419041D02*
X175430000Y-92419041D01*
X175032929Y-93179041D02*
X175430000Y-93179041D01*
X175100000Y-87339041D02*
X175430000Y-87339041D01*
X175100000Y-88099041D02*
X175430000Y-88099041D01*
X175430000Y-86389041D02*
X175430000Y-94129041D01*
X175430000Y-88989041D02*
X178090000Y-88989041D01*
X175430000Y-91529041D02*
X178090000Y-91529041D01*
X175430000Y-94129041D02*
X178090000Y-94129041D01*
X178090000Y-86389041D02*
X175430000Y-86389041D01*
X178090000Y-87339041D02*
X184090000Y-87339041D01*
X178090000Y-87399041D02*
X184090000Y-87399041D01*
X178090000Y-87519041D02*
X184090000Y-87519041D01*
X178090000Y-87639041D02*
X184090000Y-87639041D01*
X178090000Y-87759041D02*
X184090000Y-87759041D01*
X178090000Y-87879041D02*
X184090000Y-87879041D01*
X178090000Y-87999041D02*
X184090000Y-87999041D01*
X178090000Y-89879041D02*
X184090000Y-89879041D01*
X178090000Y-92419041D02*
X184090000Y-92419041D01*
X178090000Y-94129041D02*
X178090000Y-86389041D01*
X184090000Y-87339041D02*
X184090000Y-88099041D01*
X184090000Y-88099041D02*
X178090000Y-88099041D01*
X184090000Y-89879041D02*
X184090000Y-90639041D01*
X184090000Y-90639041D02*
X178090000Y-90639041D01*
X184090000Y-92419041D02*
X184090000Y-93179041D01*
X184090000Y-93179041D02*
X178090000Y-93179041D01*
%TO.C,R5*%
X118645000Y-77697064D02*
X118645000Y-77242936D01*
X120115000Y-77697064D02*
X120115000Y-77242936D01*
%TO.C,J1*%
X151160136Y-116465684D02*
X151160136Y-119125684D01*
X151160136Y-119125684D02*
X171600136Y-119125684D01*
X152110136Y-116068613D02*
X152110136Y-116465684D01*
X152110136Y-125125684D02*
X152110136Y-119125684D01*
X152870136Y-116068613D02*
X152870136Y-116465684D01*
X152870136Y-119125684D02*
X152870136Y-125125684D01*
X152870136Y-125125684D02*
X152110136Y-125125684D01*
X153760136Y-116465684D02*
X153760136Y-119125684D01*
X154650136Y-116068613D02*
X154650136Y-116465684D01*
X154650136Y-125125684D02*
X154650136Y-119125684D01*
X155410136Y-116068613D02*
X155410136Y-116465684D01*
X155410136Y-119125684D02*
X155410136Y-125125684D01*
X155410136Y-125125684D02*
X154650136Y-125125684D01*
X156300136Y-116465684D02*
X156300136Y-119125684D01*
X157190136Y-116068613D02*
X157190136Y-116465684D01*
X157190136Y-125125684D02*
X157190136Y-119125684D01*
X157950136Y-116068613D02*
X157950136Y-116465684D01*
X157950136Y-119125684D02*
X157950136Y-125125684D01*
X157950136Y-125125684D02*
X157190136Y-125125684D01*
X158840136Y-116465684D02*
X158840136Y-119125684D01*
X159730136Y-116068613D02*
X159730136Y-116465684D01*
X159730136Y-125125684D02*
X159730136Y-119125684D01*
X160490136Y-116068613D02*
X160490136Y-116465684D01*
X160490136Y-119125684D02*
X160490136Y-125125684D01*
X160490136Y-125125684D02*
X159730136Y-125125684D01*
X161380136Y-116465684D02*
X161380136Y-119125684D01*
X162270136Y-116068613D02*
X162270136Y-116465684D01*
X162270136Y-125125684D02*
X162270136Y-119125684D01*
X163030136Y-116068613D02*
X163030136Y-116465684D01*
X163030136Y-119125684D02*
X163030136Y-125125684D01*
X163030136Y-125125684D02*
X162270136Y-125125684D01*
X163920136Y-116465684D02*
X163920136Y-119125684D01*
X164810136Y-116068613D02*
X164810136Y-116465684D01*
X164810136Y-125125684D02*
X164810136Y-119125684D01*
X165570136Y-116068613D02*
X165570136Y-116465684D01*
X165570136Y-119125684D02*
X165570136Y-125125684D01*
X165570136Y-125125684D02*
X164810136Y-125125684D01*
X166460136Y-116465684D02*
X166460136Y-119125684D01*
X167350136Y-116068613D02*
X167350136Y-116465684D01*
X167350136Y-125125684D02*
X167350136Y-119125684D01*
X168110136Y-116068613D02*
X168110136Y-116465684D01*
X168110136Y-119125684D02*
X168110136Y-125125684D01*
X168110136Y-125125684D02*
X167350136Y-125125684D01*
X169000136Y-116465684D02*
X169000136Y-119125684D01*
X169890136Y-116135684D02*
X169890136Y-116465684D01*
X169890136Y-125125684D02*
X169890136Y-119125684D01*
X169990136Y-119125684D02*
X169990136Y-125125684D01*
X170110136Y-119125684D02*
X170110136Y-125125684D01*
X170230136Y-119125684D02*
X170230136Y-125125684D01*
X170270136Y-113755684D02*
X171540136Y-113755684D01*
X170350136Y-119125684D02*
X170350136Y-125125684D01*
X170470136Y-119125684D02*
X170470136Y-125125684D01*
X170590136Y-119125684D02*
X170590136Y-125125684D01*
X170650136Y-116135684D02*
X170650136Y-116465684D01*
X170650136Y-119125684D02*
X170650136Y-125125684D01*
X170650136Y-125125684D02*
X169890136Y-125125684D01*
X171540136Y-113755684D02*
X171540136Y-115025684D01*
X171600136Y-116465684D02*
X151160136Y-116465684D01*
X171600136Y-119125684D02*
X171600136Y-116465684D01*
%TD*%
M02*
