%TF.GenerationSoftware,KiCad,Pcbnew,8.0.4*%
%TF.CreationDate,2025-01-29T09:39:19+01:00*%
%TF.ProjectId,DA_Sender,44415f53-656e-4646-9572-2e6b69636164,rev?*%
%TF.SameCoordinates,Original*%
%TF.FileFunction,Copper,L2,Bot*%
%TF.FilePolarity,Positive*%
%FSLAX46Y46*%
G04 Gerber Fmt 4.6, Leading zero omitted, Abs format (unit mm)*
G04 Created by KiCad (PCBNEW 8.0.4) date 2025-01-29 09:39:19*
%MOMM*%
%LPD*%
G01*
G04 APERTURE LIST*
%TA.AperFunction,ComponentPad*%
%ADD10R,1.700000X1.700000*%
%TD*%
%TA.AperFunction,ComponentPad*%
%ADD11O,1.700000X1.700000*%
%TD*%
%TA.AperFunction,ComponentPad*%
%ADD12R,1.600000X1.600000*%
%TD*%
%TA.AperFunction,ComponentPad*%
%ADD13O,1.600000X1.600000*%
%TD*%
%TA.AperFunction,ViaPad*%
%ADD14C,1.000000*%
%TD*%
%TA.AperFunction,ViaPad*%
%ADD15C,1.400000*%
%TD*%
%TA.AperFunction,Conductor*%
%ADD16C,0.600000*%
%TD*%
%TA.AperFunction,Conductor*%
%ADD17C,1.000000*%
%TD*%
G04 APERTURE END LIST*
D10*
%TO.P,SW3,1,A*%
%TO.N,Net-(A1-D6)*%
X123190000Y-96520000D03*
D11*
%TO.P,SW3,2,B*%
%TO.N,GND*%
X123190000Y-93980000D03*
%TO.P,SW3,3,C*%
%TO.N,Net-(A1-D7)*%
X123190000Y-91440000D03*
%TD*%
D10*
%TO.P,J4,1,Pin_1*%
%TO.N,+5V*%
X116845000Y-115005000D03*
D11*
%TO.P,J4,2,Pin_2*%
%TO.N,GND*%
X114305000Y-115005000D03*
%TD*%
%TO.P,J2,2,Pin_2*%
%TO.N,GND*%
X139795136Y-115025684D03*
D10*
%TO.P,J2,1,Pin_1*%
%TO.N,Net-(A1-MISO)*%
X142335136Y-115025684D03*
%TD*%
D12*
%TO.P,A1,1,TX1*%
%TO.N,Net-(A1-TX1)*%
X167640000Y-76200000D03*
D13*
%TO.P,A1,2,RX1*%
%TO.N,Net-(A1-RX1)*%
X165100000Y-76200000D03*
%TO.P,A1,3,~{RESET}*%
%TO.N,unconnected-(A1-~{RESET}-Pad3)*%
X162560000Y-76200000D03*
%TO.P,A1,4,GND*%
%TO.N,GND*%
X160020000Y-76200000D03*
%TO.P,A1,5,D2*%
%TO.N,Net-(A1-D2)*%
X157480000Y-76200000D03*
%TO.P,A1,6,D3*%
%TO.N,Net-(A1-D3)*%
X154940000Y-76200000D03*
%TO.P,A1,7,D4*%
%TO.N,Net-(A1-D4)*%
X152400000Y-76200000D03*
%TO.P,A1,8,D5*%
%TO.N,Net-(A1-D5)*%
X149860000Y-76200000D03*
%TO.P,A1,9,D6*%
%TO.N,Net-(A1-D6)*%
X147320000Y-76200000D03*
%TO.P,A1,10,D7*%
%TO.N,Net-(A1-D7)*%
X144780000Y-76200000D03*
%TO.P,A1,11,D8*%
%TO.N,Net-(A1-D8)*%
X142240000Y-76200000D03*
%TO.P,A1,12,D9*%
%TO.N,Net-(A1-D9)*%
X139700000Y-76200000D03*
%TO.P,A1,13,D10*%
%TO.N,Net-(A1-D10)*%
X137160000Y-76200000D03*
%TO.P,A1,14,MOSI*%
%TO.N,Net-(A1-MOSI)*%
X134620000Y-76200000D03*
%TO.P,A1,15,MISO*%
%TO.N,Net-(A1-MISO)*%
X132080000Y-76200000D03*
%TO.P,A1,16,SCK*%
%TO.N,Net-(A1-SCK)*%
X132080000Y-91440000D03*
%TO.P,A1,17,3V3*%
%TO.N,unconnected-(A1-3V3-Pad17)*%
X134620000Y-91440000D03*
%TO.P,A1,18,AREF*%
%TO.N,unconnected-(A1-AREF-Pad18)*%
X137160000Y-91440000D03*
%TO.P,A1,19,A0*%
%TO.N,Net-(A1-A0)*%
X139700000Y-91440000D03*
%TO.P,A1,20,A1*%
%TO.N,Net-(A1-A1)*%
X142240000Y-91440000D03*
%TO.P,A1,21,A2*%
%TO.N,Net-(A1-A2)*%
X144780000Y-91440000D03*
%TO.P,A1,22,A3*%
%TO.N,Reset*%
X147320000Y-91440000D03*
%TO.P,A1,23,SDA/A4*%
%TO.N,Net-(A1-SDA{slash}A4)*%
X149860000Y-91440000D03*
%TO.P,A1,24,SCL/A5*%
%TO.N,Net-(A1-SCL{slash}A5)*%
X152400000Y-91440000D03*
%TO.P,A1,25,A6*%
%TO.N,Net-(A1-A6)*%
X154940000Y-91440000D03*
%TO.P,A1,26,A7*%
%TO.N,Net-(A1-A7)*%
X157480000Y-91440000D03*
%TO.P,A1,27,+5V*%
%TO.N,+5VD*%
X160020000Y-91440000D03*
%TO.P,A1,28,~{RESET}*%
%TO.N,unconnected-(A1-~{RESET}-Pad28)*%
X162560000Y-91440000D03*
%TO.P,A1,29,GND*%
%TO.N,GND*%
X165100000Y-91440000D03*
%TO.P,A1,30,VIN*%
%TO.N,Net-(A1-VIN)*%
X167640000Y-91440000D03*
%TD*%
D10*
%TO.P,SW5,1,1*%
%TO.N,Net-(A1-SDA{slash}A4)*%
X148685136Y-115025684D03*
D11*
%TO.P,SW5,2,2*%
%TO.N,GND*%
X146145136Y-115025684D03*
%TD*%
D10*
%TO.P,SW1,1,A*%
%TO.N,Net-(A1-D2)*%
X174050720Y-105425000D03*
D11*
%TO.P,SW1,2,B*%
%TO.N,GND*%
X174050720Y-107965000D03*
%TO.P,SW1,3,C*%
%TO.N,Net-(A1-D3)*%
X174050720Y-110505000D03*
%TD*%
D10*
%TO.P,RV2,1,1*%
%TO.N,GND*%
X174015748Y-96624041D03*
D11*
%TO.P,RV2,2,2*%
%TO.N,Net-(A1-A1)*%
X174015748Y-99164041D03*
%TO.P,RV2,3,3*%
%TO.N,+5VD*%
X174015748Y-101704041D03*
%TD*%
D10*
%TO.P,J5,1,Pin_1*%
%TO.N,+5VD*%
X140970000Y-101600000D03*
D11*
%TO.P,J5,2,Pin_2*%
%TO.N,Net-(J5-Pin_2)*%
X140970000Y-99060000D03*
%TD*%
D10*
%TO.P,SW6,1,1*%
%TO.N,Net-(A1-SCL{slash}A5)*%
X173990000Y-114389041D03*
D11*
%TO.P,SW6,2,2*%
%TO.N,GND*%
X173990000Y-116929041D03*
%TD*%
D10*
%TO.P,J3,1,Pin_1*%
%TO.N,GND*%
X173990000Y-71120000D03*
D11*
%TO.P,J3,2,Pin_2*%
%TO.N,+5VD*%
X171450000Y-71120000D03*
%TO.P,J3,3,Pin_3*%
%TO.N,unconnected-(J3-Pin_3-Pad3)*%
X168910000Y-71120000D03*
%TO.P,J3,4,Pin_4*%
%TO.N,Net-(A1-D9)*%
X166370000Y-71120000D03*
%TO.P,J3,5,Pin_5*%
%TO.N,unconnected-(J3-Pin_5-Pad5)*%
X163830000Y-71120000D03*
%TO.P,J3,6,Pin_6*%
%TO.N,unconnected-(J3-Pin_6-Pad6)*%
X161290000Y-71120000D03*
%TO.P,J3,7,Pin_7*%
%TO.N,Net-(A1-SCK)*%
X158750000Y-71120000D03*
%TO.P,J3,8,Pin_8*%
%TO.N,Net-(A1-MOSI)*%
X156210000Y-71120000D03*
%TO.P,J3,9,Pin_9*%
%TO.N,unconnected-(J3-Pin_9-Pad9)*%
X153670000Y-71120000D03*
%TO.P,J3,10,Pin_10*%
%TO.N,unconnected-(J3-Pin_10-Pad10)*%
X151130000Y-71120000D03*
%TO.P,J3,11,Pin_11*%
%TO.N,unconnected-(J3-Pin_11-Pad11)*%
X148590000Y-71120000D03*
%TO.P,J3,12,Pin_12*%
%TO.N,unconnected-(J3-Pin_12-Pad12)*%
X146050000Y-71120000D03*
%TO.P,J3,13,Pin_13*%
%TO.N,unconnected-(J3-Pin_13-Pad13)*%
X143510000Y-71120000D03*
%TO.P,J3,14,Pin_14*%
%TO.N,unconnected-(J3-Pin_14-Pad14)*%
X140970000Y-71120000D03*
%TO.P,J3,15,Pin_15*%
%TO.N,Net-(A1-D10)*%
X138430000Y-71120000D03*
%TO.P,J3,16,Pin_16*%
%TO.N,Net-(A1-D8)*%
X135890000Y-71120000D03*
%TO.P,J3,17,Pin_17*%
%TO.N,unconnected-(J3-Pin_17-Pad17)*%
X133350000Y-71120000D03*
%TO.P,J3,18,Pin_18*%
%TO.N,unconnected-(J3-Pin_18-Pad18)*%
X130810000Y-71120000D03*
%TO.P,J3,19,Pin_19*%
%TO.N,unconnected-(J3-Pin_19-Pad19)*%
X128270000Y-71120000D03*
%TO.P,J3,20,Pin_20*%
%TO.N,unconnected-(J3-Pin_20-Pad20)*%
X125730000Y-71120000D03*
%TD*%
D10*
%TO.P,SW4,1,1*%
%TO.N,Net-(A1-A7)*%
X127000000Y-114981199D03*
D11*
%TO.P,SW4,2,2*%
%TO.N,GND*%
X124460000Y-114981199D03*
%TO.P,SW4,3,3*%
%TO.N,Net-(A1-A6)*%
X121920000Y-114981199D03*
%TD*%
D10*
%TO.P,SW2,1,A*%
%TO.N,Net-(A1-D4)*%
X135980136Y-115005510D03*
D11*
%TO.P,SW2,2,B*%
%TO.N,GND*%
X133440136Y-115005510D03*
%TO.P,SW2,3,C*%
%TO.N,Net-(A1-D5)*%
X130900136Y-115005510D03*
%TD*%
D10*
%TO.P,RV1,1,1*%
%TO.N,GND*%
X173990000Y-87719041D03*
D11*
%TO.P,RV1,2,2*%
%TO.N,Net-(A1-A0)*%
X173990000Y-90259041D03*
%TO.P,RV1,3,3*%
%TO.N,+5VD*%
X173990000Y-92799041D03*
%TD*%
D10*
%TO.P,J1,1,Pin_1*%
%TO.N,Net-(A1-RX1)*%
X170270136Y-115025684D03*
D11*
%TO.P,J1,2,Pin_2*%
%TO.N,Net-(A1-TX1)*%
X167730136Y-115025684D03*
%TO.P,J1,3,Pin_3*%
%TO.N,Reset*%
X165190136Y-115025684D03*
%TO.P,J1,4,Pin_4*%
%TO.N,GND*%
X162650136Y-115025684D03*
%TO.P,J1,5,Pin_5*%
X160110136Y-115025684D03*
%TO.P,J1,6,Pin_6*%
%TO.N,unconnected-(J1-Pin_6-Pad6)*%
X157570136Y-115025684D03*
%TO.P,J1,7,Pin_7*%
%TO.N,+5VD*%
X155030136Y-115025684D03*
%TO.P,J1,8,Pin_8*%
%TO.N,GND*%
X152490136Y-115025684D03*
%TD*%
D14*
%TO.N,Net-(A1-A7)*%
X121920000Y-86360000D03*
X120735885Y-102443082D03*
%TO.N,Net-(A1-SCK)*%
X129540000Y-85142593D03*
X129540000Y-77470000D03*
%TO.N,Net-(A1-D4)*%
X117511847Y-79047930D03*
X119433858Y-84475722D03*
%TO.N,Reset*%
X144780000Y-100330000D03*
X154817287Y-106100979D03*
%TO.N,+5VD*%
X150066920Y-98612634D03*
X123190000Y-74930000D03*
X179067305Y-81282695D03*
D15*
X155597244Y-99091450D03*
X156201308Y-111751308D03*
X157001963Y-100503831D03*
D14*
X143510000Y-99060000D03*
D15*
X129962769Y-96306337D03*
X157888504Y-111760000D03*
D14*
%TO.N,Net-(A1-SDA{slash}A4)*%
X142631608Y-105410000D03*
D15*
%TO.N,Net-(A1-A6)*%
X128140000Y-91440000D03*
D14*
X115570000Y-97790000D03*
%TO.N,Net-(A1-D6)*%
X122344756Y-80622295D03*
X118423084Y-80323084D03*
%TO.N,Net-(A1-D2)*%
X165100000Y-85090000D03*
%TO.N,Net-(A1-MOSI)*%
X138430000Y-73873529D03*
D15*
%TO.N,GND*%
X128270000Y-99060000D03*
X162560000Y-95250000D03*
X161290000Y-96520000D03*
X151130000Y-83820000D03*
X161290000Y-109220000D03*
X135653742Y-88254657D03*
X126310969Y-99040443D03*
X168137032Y-81316827D03*
X130183064Y-99040443D03*
X138204429Y-88254657D03*
X153670000Y-83820000D03*
X161290000Y-111760000D03*
X170180000Y-81280000D03*
X123441624Y-103254282D03*
D14*
%TO.N,Net-(A1-D5)*%
X115570000Y-85090000D03*
X119380000Y-82832523D03*
%TO.N,Net-(A1-SCL{slash}A5)*%
X156650010Y-105894011D03*
%TD*%
D16*
%TO.N,Net-(A1-A7)*%
X121920000Y-86360000D02*
X154940000Y-86360000D01*
X120650000Y-102357197D02*
X120650000Y-87630000D01*
X120735885Y-102443082D02*
X120650000Y-102357197D01*
X157480000Y-88900000D02*
X157480000Y-91440000D01*
X120650000Y-87630000D02*
X121920000Y-86360000D01*
X154940000Y-86360000D02*
X157480000Y-88900000D01*
%TO.N,Net-(A1-SCK)*%
X129540000Y-85142593D02*
X129540000Y-77470000D01*
%TO.N,Net-(A1-D4)*%
X131464626Y-110490000D02*
X135980136Y-115005510D01*
X117960223Y-78599554D02*
X117511847Y-79047930D01*
X119433858Y-84475722D02*
X118110000Y-85799580D01*
X117511847Y-79057261D02*
X117511847Y-79047930D01*
X123544756Y-82195244D02*
X121580000Y-84160000D01*
X121920000Y-110490000D02*
X131464626Y-110490000D01*
X117969554Y-78599554D02*
X118341618Y-78227490D01*
X118110000Y-106680000D02*
X121920000Y-110490000D01*
X117969554Y-78599554D02*
X117960223Y-78599554D01*
X119749580Y-84160000D02*
X119433858Y-84475722D01*
X123544756Y-80125238D02*
X123544756Y-82195244D01*
X121647008Y-78227490D02*
X123544756Y-80125238D01*
X118110000Y-85799580D02*
X118110000Y-106680000D01*
X117287898Y-79281210D02*
X117511847Y-79057261D01*
X118341618Y-78227490D02*
X121647008Y-78227490D01*
X121580000Y-84160000D02*
X119749580Y-84160000D01*
%TO.N,Reset*%
X144780000Y-100330000D02*
X149046308Y-100330000D01*
X149046308Y-100330000D02*
X154817287Y-106100979D01*
D17*
%TO.N,+5VD*%
X177800000Y-99060000D02*
X175155959Y-101704041D01*
X179070000Y-81280000D02*
X178435000Y-80645000D01*
X157879812Y-111751308D02*
X157888504Y-111760000D01*
X143957366Y-98612634D02*
X150066920Y-98612634D01*
X155597244Y-99091450D02*
X158050010Y-101544216D01*
X156201308Y-111751308D02*
X157879812Y-111751308D01*
D16*
X123190000Y-69850000D02*
X123710549Y-69329451D01*
D17*
X159384452Y-119380000D02*
X155030136Y-115025684D01*
X179070000Y-97790000D02*
X179070000Y-81280000D01*
X158050010Y-101544216D02*
X158050010Y-109919990D01*
X179070000Y-105618082D02*
X179070000Y-115031020D01*
X175155959Y-101704041D02*
X174015748Y-101704041D01*
X178435000Y-80645000D02*
X171450000Y-73660000D01*
X177800000Y-95250000D02*
X177800000Y-99060000D01*
X157888504Y-110081496D02*
X157888504Y-111760000D01*
X174721020Y-119380000D02*
X159384452Y-119380000D01*
D16*
X123190000Y-74930000D02*
X123190000Y-69850000D01*
D17*
X143510000Y-99060000D02*
X143957366Y-98612634D01*
X175349041Y-92799041D02*
X177800000Y-95250000D01*
X175155959Y-101704041D02*
X179070000Y-105618082D01*
D16*
X169659451Y-69329451D02*
X171450000Y-71120000D01*
X129962769Y-96306337D02*
X135256432Y-101600000D01*
X123710549Y-69329451D02*
X169659451Y-69329451D01*
X135256432Y-101600000D02*
X140970000Y-101600000D01*
D17*
X158050010Y-109919990D02*
X157888504Y-110081496D01*
X179070000Y-115031020D02*
X174721020Y-119380000D01*
X173990000Y-92799041D02*
X175349041Y-92799041D01*
X171450000Y-73660000D02*
X171450000Y-71120000D01*
X177800000Y-99060000D02*
X179070000Y-97790000D01*
D16*
%TO.N,Net-(A1-SDA{slash}A4)*%
X148685136Y-115025684D02*
X148685136Y-111463528D01*
X148685136Y-111463528D02*
X142631608Y-105410000D01*
%TO.N,Net-(A1-A6)*%
X128140000Y-91440000D02*
X128270000Y-91440000D01*
X153154657Y-89654657D02*
X154940000Y-91440000D01*
X128270000Y-91440000D02*
X130055343Y-89654657D01*
X130055343Y-89654657D02*
X153154657Y-89654657D01*
X121920000Y-114981199D02*
X115570000Y-108631199D01*
X115570000Y-108631199D02*
X115570000Y-97790000D01*
%TO.N,Net-(A1-D6)*%
X118423084Y-80323084D02*
X118722295Y-80622295D01*
X118722295Y-80622295D02*
X122344756Y-80622295D01*
%TO.N,Net-(A1-D8)*%
X142240000Y-76200000D02*
X142240000Y-73660000D01*
X142240000Y-73660000D02*
X141250000Y-72670000D01*
X137440000Y-72670000D02*
X135890000Y-71120000D01*
X141250000Y-72670000D02*
X137440000Y-72670000D01*
%TO.N,Net-(A1-D2)*%
X165100000Y-85090000D02*
X157480000Y-77470000D01*
X157480000Y-77470000D02*
X157480000Y-76200000D01*
%TO.N,Net-(A1-MISO)*%
X128270000Y-76200000D02*
X132080000Y-76200000D01*
X133225478Y-109220000D02*
X123190000Y-109220000D01*
X119380000Y-86919871D02*
X121139871Y-85160000D01*
X123120000Y-85160000D02*
X125730000Y-82550000D01*
X125730000Y-82550000D02*
X125730000Y-78740000D01*
X142335136Y-115025684D02*
X140785136Y-116575684D01*
X138255136Y-116575684D02*
X137830910Y-116151458D01*
X137830910Y-113825432D02*
X133225478Y-109220000D01*
X119380000Y-105410000D02*
X119380000Y-86919871D01*
X125730000Y-78740000D02*
X128270000Y-76200000D01*
X140785136Y-116575684D02*
X138255136Y-116575684D01*
X137830910Y-116151458D02*
X137830910Y-113825432D01*
X121139871Y-85160000D02*
X123120000Y-85160000D01*
X123190000Y-109220000D02*
X119380000Y-105410000D01*
%TO.N,Net-(A1-MOSI)*%
X138430000Y-73873529D02*
X136946471Y-73873529D01*
X136946471Y-73873529D02*
X134620000Y-76200000D01*
D17*
%TO.N,GND*%
X170815000Y-81915000D02*
X170180000Y-81280000D01*
X170180000Y-97790000D02*
X170075959Y-97790000D01*
X165100000Y-95354041D02*
X165100000Y-91440000D01*
X176530000Y-110444280D02*
X174050720Y-107965000D01*
X166370000Y-96624041D02*
X165100000Y-95354041D01*
X168910000Y-96624041D02*
X166370000Y-96624041D01*
X173990000Y-85090000D02*
X170815000Y-81915000D01*
X174050720Y-107965000D02*
X172848639Y-107965000D01*
X173990000Y-87719041D02*
X173990000Y-85090000D01*
X172848639Y-107965000D02*
X170180000Y-105296361D01*
X170216827Y-81316827D02*
X170815000Y-81915000D01*
X173990000Y-116929041D02*
X175192081Y-116929041D01*
X176530000Y-115591122D02*
X176530000Y-110444280D01*
X175192081Y-116929041D02*
X176530000Y-115591122D01*
X170180000Y-105296361D02*
X170180000Y-97790000D01*
X160020000Y-76200000D02*
X165100000Y-81280000D01*
X170075959Y-97790000D02*
X168910000Y-96624041D01*
X168137032Y-81316827D02*
X170216827Y-81316827D01*
X174015748Y-96624041D02*
X168910000Y-96624041D01*
X165100000Y-81280000D02*
X170180000Y-81280000D01*
D16*
%TO.N,Net-(A1-D5)*%
X120650000Y-111760000D02*
X116840000Y-107950000D01*
X123755174Y-111760000D02*
X121775786Y-111760000D01*
X116840000Y-85372523D02*
X116840000Y-86360000D01*
X116840000Y-107950000D02*
X116840000Y-86360000D01*
X119380000Y-82832523D02*
X116840000Y-85372523D01*
X127654626Y-111760000D02*
X130900136Y-115005510D01*
X115570000Y-85090000D02*
X116840000Y-86360000D01*
X123755174Y-111760000D02*
X120650000Y-111760000D01*
X123755174Y-111760000D02*
X127654626Y-111760000D01*
%TO.N,Net-(A1-SCL{slash}A5)*%
X152400000Y-101644001D02*
X152400000Y-91440000D01*
X156650010Y-105894011D02*
X152400000Y-101644001D01*
%TD*%
%TA.AperFunction,Conductor*%
%TO.N,GND*%
G36*
X123089519Y-68605765D02*
G01*
X123135274Y-68658569D01*
X123145218Y-68727727D01*
X123116193Y-68791283D01*
X123110161Y-68797761D01*
X122679711Y-69228211D01*
X122623960Y-69283962D01*
X122568209Y-69339712D01*
X122480609Y-69470814D01*
X122480602Y-69470827D01*
X122420264Y-69616498D01*
X122420261Y-69616510D01*
X122389500Y-69771153D01*
X122389500Y-74283946D01*
X122369815Y-74350985D01*
X122361355Y-74362609D01*
X122354090Y-74371461D01*
X122354086Y-74371467D01*
X122261188Y-74545266D01*
X122203975Y-74733870D01*
X122184659Y-74930000D01*
X122203975Y-75126129D01*
X122203976Y-75126132D01*
X122257795Y-75303550D01*
X122261188Y-75314733D01*
X122354086Y-75488532D01*
X122354090Y-75488539D01*
X122479116Y-75640883D01*
X122631460Y-75765909D01*
X122631467Y-75765913D01*
X122805266Y-75858811D01*
X122805269Y-75858811D01*
X122805273Y-75858814D01*
X122993868Y-75916024D01*
X123190000Y-75935341D01*
X123386132Y-75916024D01*
X123574727Y-75858814D01*
X123580720Y-75855611D01*
X123684945Y-75799901D01*
X123748538Y-75765910D01*
X123900883Y-75640883D01*
X124025910Y-75488538D01*
X124094155Y-75360861D01*
X124118811Y-75314733D01*
X124118811Y-75314732D01*
X124118814Y-75314727D01*
X124176024Y-75126132D01*
X124195341Y-74930000D01*
X124176024Y-74733868D01*
X124118814Y-74545273D01*
X124118811Y-74545269D01*
X124118811Y-74545266D01*
X124025913Y-74371467D01*
X124025909Y-74371461D01*
X124018645Y-74362609D01*
X123991333Y-74298299D01*
X123990500Y-74283946D01*
X123990500Y-70253951D01*
X124010185Y-70186912D01*
X124062989Y-70141157D01*
X124114500Y-70129951D01*
X124536381Y-70129951D01*
X124603420Y-70149636D01*
X124649175Y-70202440D01*
X124659119Y-70271598D01*
X124637956Y-70325074D01*
X124555965Y-70442169D01*
X124555964Y-70442171D01*
X124456098Y-70656335D01*
X124456094Y-70656344D01*
X124394938Y-70884586D01*
X124394936Y-70884596D01*
X124374341Y-71119999D01*
X124374341Y-71120000D01*
X124394936Y-71355403D01*
X124394938Y-71355413D01*
X124456094Y-71583655D01*
X124456096Y-71583659D01*
X124456097Y-71583663D01*
X124536004Y-71755023D01*
X124555965Y-71797830D01*
X124555967Y-71797834D01*
X124664281Y-71952521D01*
X124691505Y-71991401D01*
X124858599Y-72158495D01*
X124878445Y-72172391D01*
X125052165Y-72294032D01*
X125052167Y-72294033D01*
X125052170Y-72294035D01*
X125266337Y-72393903D01*
X125494592Y-72455063D01*
X125665319Y-72470000D01*
X125729999Y-72475659D01*
X125730000Y-72475659D01*
X125730001Y-72475659D01*
X125794681Y-72470000D01*
X125965408Y-72455063D01*
X126193663Y-72393903D01*
X126407830Y-72294035D01*
X126601401Y-72158495D01*
X126768495Y-71991401D01*
X126898425Y-71805842D01*
X126953002Y-71762217D01*
X127022500Y-71755023D01*
X127084855Y-71786546D01*
X127101575Y-71805842D01*
X127231500Y-71991395D01*
X127231505Y-71991401D01*
X127398599Y-72158495D01*
X127418445Y-72172391D01*
X127592165Y-72294032D01*
X127592167Y-72294033D01*
X127592170Y-72294035D01*
X127806337Y-72393903D01*
X128034592Y-72455063D01*
X128205319Y-72470000D01*
X128269999Y-72475659D01*
X128270000Y-72475659D01*
X128270001Y-72475659D01*
X128334681Y-72470000D01*
X128505408Y-72455063D01*
X128733663Y-72393903D01*
X128947830Y-72294035D01*
X129141401Y-72158495D01*
X129308495Y-71991401D01*
X129438425Y-71805842D01*
X129493002Y-71762217D01*
X129562500Y-71755023D01*
X129624855Y-71786546D01*
X129641575Y-71805842D01*
X129771500Y-71991395D01*
X129771505Y-71991401D01*
X129938599Y-72158495D01*
X129958445Y-72172391D01*
X130132165Y-72294032D01*
X130132167Y-72294033D01*
X130132170Y-72294035D01*
X130346337Y-72393903D01*
X130574592Y-72455063D01*
X130745319Y-72470000D01*
X130809999Y-72475659D01*
X130810000Y-72475659D01*
X130810001Y-72475659D01*
X130874681Y-72470000D01*
X131045408Y-72455063D01*
X131273663Y-72393903D01*
X131487830Y-72294035D01*
X131681401Y-72158495D01*
X131848495Y-71991401D01*
X131978425Y-71805842D01*
X132033002Y-71762217D01*
X132102500Y-71755023D01*
X132164855Y-71786546D01*
X132181575Y-71805842D01*
X132311500Y-71991395D01*
X132311505Y-71991401D01*
X132478599Y-72158495D01*
X132498445Y-72172391D01*
X132672165Y-72294032D01*
X132672167Y-72294033D01*
X132672170Y-72294035D01*
X132886337Y-72393903D01*
X133114592Y-72455063D01*
X133285319Y-72470000D01*
X133349999Y-72475659D01*
X133350000Y-72475659D01*
X133350001Y-72475659D01*
X133414681Y-72470000D01*
X133585408Y-72455063D01*
X133813663Y-72393903D01*
X134027830Y-72294035D01*
X134221401Y-72158495D01*
X134388495Y-71991401D01*
X134518425Y-71805842D01*
X134573002Y-71762217D01*
X134642500Y-71755023D01*
X134704855Y-71786546D01*
X134721575Y-71805842D01*
X134851500Y-71991395D01*
X134851505Y-71991401D01*
X135018599Y-72158495D01*
X135038445Y-72172391D01*
X135212165Y-72294032D01*
X135212167Y-72294033D01*
X135212170Y-72294035D01*
X135426337Y-72393903D01*
X135654592Y-72455063D01*
X135825319Y-72470000D01*
X135889999Y-72475659D01*
X135889999Y-72475658D01*
X135890000Y-72475659D01*
X136037992Y-72462710D01*
X136106490Y-72476476D01*
X136136479Y-72498557D01*
X136602071Y-72964149D01*
X136635556Y-73025472D01*
X136630572Y-73095164D01*
X136588700Y-73151097D01*
X136572256Y-73160505D01*
X136572662Y-73161265D01*
X136567285Y-73164138D01*
X136436182Y-73251739D01*
X136436178Y-73251742D01*
X134820326Y-74867594D01*
X134759003Y-74901079D01*
X134721838Y-74903441D01*
X134620002Y-74894532D01*
X134619998Y-74894532D01*
X134393313Y-74914364D01*
X134393302Y-74914366D01*
X134173511Y-74973258D01*
X134173502Y-74973261D01*
X133967267Y-75069431D01*
X133967265Y-75069432D01*
X133780858Y-75199954D01*
X133619954Y-75360858D01*
X133489432Y-75547265D01*
X133489431Y-75547267D01*
X133462382Y-75605275D01*
X133416209Y-75657714D01*
X133349016Y-75676866D01*
X133282135Y-75656650D01*
X133237618Y-75605275D01*
X133210686Y-75547520D01*
X133210568Y-75547266D01*
X133097273Y-75385462D01*
X133080045Y-75360858D01*
X132919141Y-75199954D01*
X132732734Y-75069432D01*
X132732732Y-75069431D01*
X132526497Y-74973261D01*
X132526488Y-74973258D01*
X132306697Y-74914366D01*
X132306693Y-74914365D01*
X132306692Y-74914365D01*
X132306691Y-74914364D01*
X132306686Y-74914364D01*
X132080002Y-74894532D01*
X132079998Y-74894532D01*
X131853313Y-74914364D01*
X131853302Y-74914366D01*
X131633511Y-74973258D01*
X131633502Y-74973261D01*
X131427267Y-75069431D01*
X131427265Y-75069432D01*
X131240858Y-75199954D01*
X131077632Y-75363181D01*
X131016309Y-75396666D01*
X130989951Y-75399500D01*
X128191154Y-75399500D01*
X128036509Y-75430261D01*
X128036497Y-75430264D01*
X127993832Y-75447936D01*
X127993833Y-75447937D01*
X127890823Y-75490604D01*
X127890814Y-75490609D01*
X127759712Y-75578209D01*
X127759711Y-75578211D01*
X127759710Y-75578212D01*
X125219711Y-78118211D01*
X125163960Y-78173962D01*
X125108209Y-78229712D01*
X125020609Y-78360814D01*
X125020602Y-78360827D01*
X124960264Y-78506498D01*
X124960261Y-78506510D01*
X124929500Y-78661153D01*
X124929500Y-82167060D01*
X124909815Y-82234099D01*
X124893181Y-82254741D01*
X124469139Y-82678782D01*
X124407816Y-82712267D01*
X124338124Y-82707283D01*
X124282191Y-82665411D01*
X124257774Y-82599947D01*
X124266896Y-82543650D01*
X124314494Y-82428741D01*
X124345256Y-82274086D01*
X124345256Y-82116401D01*
X124345256Y-80046396D01*
X124345256Y-80046393D01*
X124345255Y-80046391D01*
X124338869Y-80014287D01*
X124314493Y-79891741D01*
X124277367Y-79802110D01*
X124254153Y-79746065D01*
X124254146Y-79746052D01*
X124166546Y-79614950D01*
X124119575Y-79567979D01*
X124055045Y-79503449D01*
X123212749Y-78661153D01*
X122157300Y-77605703D01*
X122157296Y-77605700D01*
X122026193Y-77518099D01*
X122026180Y-77518092D01*
X121880509Y-77457754D01*
X121880497Y-77457751D01*
X121725853Y-77426990D01*
X121725850Y-77426990D01*
X118420460Y-77426990D01*
X118262776Y-77426990D01*
X118262773Y-77426990D01*
X118108128Y-77457751D01*
X118108116Y-77457754D01*
X117962445Y-77518092D01*
X117962432Y-77518099D01*
X117831329Y-77605700D01*
X117831325Y-77605703D01*
X117486687Y-77950341D01*
X117467905Y-77965756D01*
X117461170Y-77970257D01*
X117461160Y-77970264D01*
X117449937Y-77977762D01*
X117449936Y-77977763D01*
X117402635Y-78025063D01*
X117341311Y-78058547D01*
X117327113Y-78060783D01*
X117315711Y-78061906D01*
X117127118Y-78119116D01*
X116953314Y-78212016D01*
X116953307Y-78212020D01*
X116800963Y-78337046D01*
X116675937Y-78489390D01*
X116675933Y-78489397D01*
X116583035Y-78663196D01*
X116525822Y-78851800D01*
X116506506Y-79047930D01*
X116506506Y-79047933D01*
X116508548Y-79068672D01*
X116506762Y-79105014D01*
X116487398Y-79202363D01*
X116487398Y-79360056D01*
X116518159Y-79514699D01*
X116518162Y-79514711D01*
X116578500Y-79660382D01*
X116578507Y-79660395D01*
X116666108Y-79791498D01*
X116666111Y-79791502D01*
X116777605Y-79902996D01*
X116777609Y-79902999D01*
X116908712Y-79990600D01*
X116908725Y-79990607D01*
X117043414Y-80046396D01*
X117054401Y-80050947D01*
X117209051Y-80081709D01*
X117209054Y-80081710D01*
X117304703Y-80081710D01*
X117371742Y-80101395D01*
X117417497Y-80154199D01*
X117428106Y-80217864D01*
X117417743Y-80323083D01*
X117437059Y-80519213D01*
X117494272Y-80707817D01*
X117587170Y-80881616D01*
X117587174Y-80881623D01*
X117712200Y-81033967D01*
X117864544Y-81158993D01*
X117864551Y-81158997D01*
X118038350Y-81251895D01*
X118038353Y-81251895D01*
X118038357Y-81251898D01*
X118226952Y-81309108D01*
X118293020Y-81315615D01*
X118339315Y-81329657D01*
X118343105Y-81331682D01*
X118343116Y-81331689D01*
X118453821Y-81377544D01*
X118453824Y-81377545D01*
X118453825Y-81377546D01*
X118488793Y-81392030D01*
X118488798Y-81392032D01*
X118488802Y-81392032D01*
X118488803Y-81392033D01*
X118643449Y-81422795D01*
X118643452Y-81422795D01*
X118643453Y-81422795D01*
X121698703Y-81422795D01*
X121765742Y-81442480D01*
X121777363Y-81450938D01*
X121786218Y-81458205D01*
X121786219Y-81458205D01*
X121786221Y-81458207D01*
X121786223Y-81458208D01*
X121960022Y-81551106D01*
X121960025Y-81551106D01*
X121960029Y-81551109D01*
X122148624Y-81608319D01*
X122344756Y-81627636D01*
X122540888Y-81608319D01*
X122584260Y-81595161D01*
X122654126Y-81594537D01*
X122713239Y-81631785D01*
X122742831Y-81695079D01*
X122744256Y-81713822D01*
X122744256Y-81812304D01*
X122724571Y-81879343D01*
X122707937Y-81899985D01*
X121284741Y-83323181D01*
X121223418Y-83356666D01*
X121197060Y-83359500D01*
X120432857Y-83359500D01*
X120365818Y-83339815D01*
X120320063Y-83287011D01*
X120310119Y-83217853D01*
X120314197Y-83199504D01*
X120366024Y-83028655D01*
X120385341Y-82832523D01*
X120366024Y-82636391D01*
X120308814Y-82447796D01*
X120308811Y-82447792D01*
X120308811Y-82447789D01*
X120215913Y-82273990D01*
X120215909Y-82273983D01*
X120090883Y-82121639D01*
X119938539Y-81996613D01*
X119938532Y-81996609D01*
X119764733Y-81903711D01*
X119764727Y-81903709D01*
X119576132Y-81846499D01*
X119576129Y-81846498D01*
X119380000Y-81827182D01*
X119183870Y-81846498D01*
X118995266Y-81903711D01*
X118821467Y-81996609D01*
X118821460Y-81996613D01*
X118669116Y-82121639D01*
X118544090Y-82273983D01*
X118544086Y-82273990D01*
X118451186Y-82447794D01*
X118393976Y-82636387D01*
X118392853Y-82647789D01*
X118366690Y-82712575D01*
X118357131Y-82723312D01*
X116567141Y-84513302D01*
X116505818Y-84546787D01*
X116436126Y-84541803D01*
X116383607Y-84504286D01*
X116280883Y-84379116D01*
X116128539Y-84254090D01*
X116128532Y-84254086D01*
X115954733Y-84161188D01*
X115954727Y-84161186D01*
X115766132Y-84103976D01*
X115766129Y-84103975D01*
X115570000Y-84084659D01*
X115373870Y-84103975D01*
X115185266Y-84161188D01*
X115011467Y-84254086D01*
X115011460Y-84254090D01*
X114859116Y-84379116D01*
X114734090Y-84531460D01*
X114734086Y-84531467D01*
X114641188Y-84705266D01*
X114583975Y-84893870D01*
X114564659Y-85090000D01*
X114583975Y-85286129D01*
X114641188Y-85474733D01*
X114734086Y-85648532D01*
X114734090Y-85648539D01*
X114859116Y-85800883D01*
X115011460Y-85925909D01*
X115011467Y-85925913D01*
X115185266Y-86018811D01*
X115185269Y-86018811D01*
X115185273Y-86018814D01*
X115373868Y-86076024D01*
X115385261Y-86077146D01*
X115450048Y-86103305D01*
X115460790Y-86112868D01*
X116003181Y-86655259D01*
X116036666Y-86716582D01*
X116039500Y-86742940D01*
X116039500Y-96719706D01*
X116019815Y-96786745D01*
X115967011Y-96832500D01*
X115897853Y-96842444D01*
X115879505Y-96838367D01*
X115766130Y-96803975D01*
X115570000Y-96784659D01*
X115373870Y-96803975D01*
X115185266Y-96861188D01*
X115011467Y-96954086D01*
X115011460Y-96954090D01*
X114859116Y-97079116D01*
X114734090Y-97231460D01*
X114734086Y-97231467D01*
X114641188Y-97405266D01*
X114583975Y-97593870D01*
X114564659Y-97790000D01*
X114583975Y-97986129D01*
X114641187Y-98174730D01*
X114719263Y-98320798D01*
X114734090Y-98348538D01*
X114741350Y-98357385D01*
X114768666Y-98421691D01*
X114769500Y-98436052D01*
X114769500Y-108710045D01*
X114800261Y-108864688D01*
X114800264Y-108864700D01*
X114860602Y-109010371D01*
X114860609Y-109010384D01*
X114948210Y-109141487D01*
X114948213Y-109141491D01*
X120541441Y-114734718D01*
X120574926Y-114796041D01*
X120577288Y-114833206D01*
X120564341Y-114981196D01*
X120564341Y-114981199D01*
X120584936Y-115216602D01*
X120584938Y-115216612D01*
X120646094Y-115444854D01*
X120646096Y-115444858D01*
X120646097Y-115444862D01*
X120729155Y-115622980D01*
X120745965Y-115659029D01*
X120745967Y-115659033D01*
X120848099Y-115804891D01*
X120881505Y-115852600D01*
X121048599Y-116019694D01*
X121145384Y-116087464D01*
X121242165Y-116155231D01*
X121242167Y-116155232D01*
X121242170Y-116155234D01*
X121456337Y-116255102D01*
X121684592Y-116316262D01*
X121861034Y-116331699D01*
X121919999Y-116336858D01*
X121920000Y-116336858D01*
X121920001Y-116336858D01*
X121978966Y-116331699D01*
X122155408Y-116316262D01*
X122383663Y-116255102D01*
X122597830Y-116155234D01*
X122791401Y-116019694D01*
X122958495Y-115852600D01*
X123088730Y-115666604D01*
X123143307Y-115622980D01*
X123212805Y-115615786D01*
X123275160Y-115647309D01*
X123291879Y-115666604D01*
X123421890Y-115852277D01*
X123588917Y-116019304D01*
X123782421Y-116154799D01*
X123996507Y-116254628D01*
X123996516Y-116254632D01*
X124210000Y-116311833D01*
X124210000Y-115414211D01*
X124267007Y-115447124D01*
X124394174Y-115481199D01*
X124525826Y-115481199D01*
X124652993Y-115447124D01*
X124710000Y-115414211D01*
X124710000Y-116311832D01*
X124923483Y-116254632D01*
X124923492Y-116254628D01*
X125137578Y-116154799D01*
X125331078Y-116019307D01*
X125453133Y-115897252D01*
X125514456Y-115863767D01*
X125584148Y-115868751D01*
X125640082Y-115910622D01*
X125656997Y-115941600D01*
X125706202Y-116073527D01*
X125706206Y-116073534D01*
X125792452Y-116188743D01*
X125792455Y-116188746D01*
X125907664Y-116274992D01*
X125907671Y-116274996D01*
X126042517Y-116325290D01*
X126042516Y-116325290D01*
X126049444Y-116326034D01*
X126102127Y-116331699D01*
X127897872Y-116331698D01*
X127957483Y-116325290D01*
X128092331Y-116274995D01*
X128207546Y-116188745D01*
X128293796Y-116073530D01*
X128344091Y-115938682D01*
X128350500Y-115879072D01*
X128350499Y-114083327D01*
X128344091Y-114023716D01*
X128343002Y-114020797D01*
X128293797Y-113888870D01*
X128293793Y-113888863D01*
X128267949Y-113854340D01*
X128243531Y-113788876D01*
X128258382Y-113720603D01*
X128259938Y-113719046D01*
X128210015Y-113737667D01*
X128141742Y-113722815D01*
X128126858Y-113713250D01*
X128092330Y-113687402D01*
X128092328Y-113687401D01*
X127957482Y-113637107D01*
X127957483Y-113637107D01*
X127897883Y-113630700D01*
X127897881Y-113630699D01*
X127897873Y-113630699D01*
X127897864Y-113630699D01*
X126102129Y-113630699D01*
X126102123Y-113630700D01*
X126042516Y-113637107D01*
X125907671Y-113687401D01*
X125907664Y-113687405D01*
X125792455Y-113773651D01*
X125792452Y-113773654D01*
X125706206Y-113888863D01*
X125706202Y-113888870D01*
X125656997Y-114020797D01*
X125615126Y-114076731D01*
X125549661Y-114101148D01*
X125481388Y-114086296D01*
X125453134Y-114065145D01*
X125331082Y-113943093D01*
X125137578Y-113807598D01*
X124923492Y-113707769D01*
X124923486Y-113707766D01*
X124710000Y-113650563D01*
X124710000Y-114548187D01*
X124652993Y-114515274D01*
X124525826Y-114481199D01*
X124394174Y-114481199D01*
X124267007Y-114515274D01*
X124210000Y-114548187D01*
X124210000Y-113650563D01*
X124209999Y-113650563D01*
X123996513Y-113707766D01*
X123996507Y-113707769D01*
X123782422Y-113807598D01*
X123782420Y-113807599D01*
X123588926Y-113943085D01*
X123588920Y-113943090D01*
X123421891Y-114110119D01*
X123421890Y-114110121D01*
X123291880Y-114295794D01*
X123237303Y-114339418D01*
X123167804Y-114346611D01*
X123105450Y-114315089D01*
X123088730Y-114295793D01*
X122958494Y-114109796D01*
X122791402Y-113942705D01*
X122791395Y-113942700D01*
X122597834Y-113807166D01*
X122597830Y-113807164D01*
X122577007Y-113797454D01*
X122383663Y-113707296D01*
X122383659Y-113707295D01*
X122383655Y-113707293D01*
X122155413Y-113646137D01*
X122155403Y-113646135D01*
X121920001Y-113625540D01*
X121919998Y-113625540D01*
X121772007Y-113638487D01*
X121703507Y-113624720D01*
X121673519Y-113602640D01*
X120843060Y-112772181D01*
X120809575Y-112710858D01*
X120814559Y-112641166D01*
X120856431Y-112585233D01*
X120921895Y-112560816D01*
X120930741Y-112560500D01*
X121696944Y-112560500D01*
X123676332Y-112560500D01*
X127271686Y-112560500D01*
X127338725Y-112580185D01*
X127359367Y-112596819D01*
X128288850Y-113526302D01*
X128322335Y-113587625D01*
X128317351Y-113657317D01*
X128304498Y-113674485D01*
X128307787Y-113671197D01*
X128376060Y-113656345D01*
X128441524Y-113680761D01*
X128454896Y-113692348D01*
X129521577Y-114759029D01*
X129555062Y-114820352D01*
X129557424Y-114857517D01*
X129544477Y-115005507D01*
X129544477Y-115005510D01*
X129565072Y-115240913D01*
X129565074Y-115240923D01*
X129626230Y-115469165D01*
X129626232Y-115469169D01*
X129626233Y-115469173D01*
X129714765Y-115659029D01*
X129726101Y-115683340D01*
X129726103Y-115683344D01*
X129790411Y-115775184D01*
X129861641Y-115876911D01*
X130028735Y-116044005D01*
X130125520Y-116111775D01*
X130222301Y-116179542D01*
X130222303Y-116179543D01*
X130222306Y-116179545D01*
X130436473Y-116279413D01*
X130664728Y-116340573D01*
X130841170Y-116356010D01*
X130900135Y-116361169D01*
X130900136Y-116361169D01*
X130900137Y-116361169D01*
X130959102Y-116356010D01*
X131135544Y-116340573D01*
X131363799Y-116279413D01*
X131577966Y-116179545D01*
X131771537Y-116044005D01*
X131938631Y-115876911D01*
X132068866Y-115690915D01*
X132123443Y-115647291D01*
X132192941Y-115640097D01*
X132255296Y-115671620D01*
X132272015Y-115690915D01*
X132402026Y-115876588D01*
X132569053Y-116043615D01*
X132762557Y-116179110D01*
X132976643Y-116278939D01*
X132976652Y-116278943D01*
X133190136Y-116336144D01*
X133190136Y-115438522D01*
X133247143Y-115471435D01*
X133374310Y-115505510D01*
X133505962Y-115505510D01*
X133633129Y-115471435D01*
X133690136Y-115438522D01*
X133690136Y-116336143D01*
X133903619Y-116278943D01*
X133903628Y-116278939D01*
X134117714Y-116179110D01*
X134311214Y-116043618D01*
X134433269Y-115921563D01*
X134494592Y-115888078D01*
X134564284Y-115893062D01*
X134620218Y-115934933D01*
X134637133Y-115965911D01*
X134686338Y-116097838D01*
X134686342Y-116097845D01*
X134772588Y-116213054D01*
X134772591Y-116213057D01*
X134887800Y-116299303D01*
X134887807Y-116299307D01*
X135022653Y-116349601D01*
X135022652Y-116349601D01*
X135029580Y-116350345D01*
X135082263Y-116356010D01*
X136878008Y-116356009D01*
X136937619Y-116349601D01*
X136937618Y-116349601D01*
X136945332Y-116348772D01*
X136945576Y-116351044D01*
X137003872Y-116354159D01*
X137060551Y-116395015D01*
X137077201Y-116423651D01*
X137121512Y-116530630D01*
X137121519Y-116530643D01*
X137209120Y-116661746D01*
X137209123Y-116661750D01*
X137633347Y-117085973D01*
X137726415Y-117179041D01*
X137744848Y-117197474D01*
X137875950Y-117285074D01*
X137875963Y-117285081D01*
X138021634Y-117345419D01*
X138021639Y-117345421D01*
X138021643Y-117345421D01*
X138021644Y-117345422D01*
X138176290Y-117376184D01*
X138176293Y-117376184D01*
X140863980Y-117376184D01*
X140863981Y-117376183D01*
X141018633Y-117345421D01*
X141164315Y-117285078D01*
X141295425Y-117197473D01*
X142080395Y-116412501D01*
X142141718Y-116379017D01*
X142168076Y-116376183D01*
X143233007Y-116376183D01*
X143233008Y-116376183D01*
X143292619Y-116369775D01*
X143427467Y-116319480D01*
X143542682Y-116233230D01*
X143628932Y-116118015D01*
X143679227Y-115983167D01*
X143685636Y-115923557D01*
X143685635Y-114127812D01*
X143679227Y-114068201D01*
X143678138Y-114065282D01*
X143628933Y-113933355D01*
X143628929Y-113933348D01*
X143542683Y-113818139D01*
X143542680Y-113818136D01*
X143427471Y-113731890D01*
X143427464Y-113731886D01*
X143292618Y-113681592D01*
X143292619Y-113681592D01*
X143233019Y-113675185D01*
X143233017Y-113675184D01*
X143233009Y-113675184D01*
X143233000Y-113675184D01*
X141437265Y-113675184D01*
X141437259Y-113675185D01*
X141377652Y-113681592D01*
X141242807Y-113731886D01*
X141242800Y-113731890D01*
X141127591Y-113818136D01*
X141127588Y-113818139D01*
X141041342Y-113933348D01*
X141041338Y-113933355D01*
X140992133Y-114065282D01*
X140950262Y-114121216D01*
X140884797Y-114145633D01*
X140816524Y-114130781D01*
X140788270Y-114109630D01*
X140666218Y-113987578D01*
X140472714Y-113852083D01*
X140258628Y-113752254D01*
X140258622Y-113752251D01*
X140045136Y-113695048D01*
X140045136Y-114592672D01*
X139988129Y-114559759D01*
X139860962Y-114525684D01*
X139729310Y-114525684D01*
X139602143Y-114559759D01*
X139545136Y-114592672D01*
X139545136Y-113695048D01*
X139545135Y-113695048D01*
X139331649Y-113752251D01*
X139331643Y-113752254D01*
X139117558Y-113852083D01*
X139117556Y-113852084D01*
X138924062Y-113987570D01*
X138924056Y-113987575D01*
X138843091Y-114068541D01*
X138781768Y-114102026D01*
X138712076Y-114097042D01*
X138656143Y-114055170D01*
X138631726Y-113989706D01*
X138631410Y-113980860D01*
X138631410Y-113746589D01*
X138631409Y-113746585D01*
X138617207Y-113675184D01*
X138600649Y-113591940D01*
X138600647Y-113591935D01*
X138563564Y-113502409D01*
X138563564Y-113502408D01*
X138540307Y-113446260D01*
X138540306Y-113446259D01*
X138540304Y-113446253D01*
X138452699Y-113315143D01*
X138341199Y-113203643D01*
X136076625Y-110939069D01*
X133735770Y-108598213D01*
X133735766Y-108598210D01*
X133604663Y-108510609D01*
X133604650Y-108510602D01*
X133458979Y-108450264D01*
X133458967Y-108450261D01*
X133304323Y-108419500D01*
X133304320Y-108419500D01*
X123572940Y-108419500D01*
X123505901Y-108399815D01*
X123485259Y-108383181D01*
X120512078Y-105410000D01*
X141626267Y-105410000D01*
X141645583Y-105606129D01*
X141702796Y-105794733D01*
X141795694Y-105968532D01*
X141795698Y-105968539D01*
X141920724Y-106120883D01*
X142073068Y-106245909D01*
X142073075Y-106245913D01*
X142246874Y-106338811D01*
X142246877Y-106338811D01*
X142246881Y-106338814D01*
X142435476Y-106396024D01*
X142446869Y-106397146D01*
X142511656Y-106423305D01*
X142522398Y-106432868D01*
X147848317Y-111758787D01*
X147881802Y-111820110D01*
X147884636Y-111846468D01*
X147884636Y-113553332D01*
X147864951Y-113620371D01*
X147812147Y-113666126D01*
X147773891Y-113676622D01*
X147727652Y-113681593D01*
X147592807Y-113731886D01*
X147592800Y-113731890D01*
X147477591Y-113818136D01*
X147477588Y-113818139D01*
X147391342Y-113933348D01*
X147391338Y-113933355D01*
X147342133Y-114065282D01*
X147300262Y-114121216D01*
X147234797Y-114145633D01*
X147166524Y-114130781D01*
X147138270Y-114109630D01*
X147016218Y-113987578D01*
X146822714Y-113852083D01*
X146608628Y-113752254D01*
X146608622Y-113752251D01*
X146395136Y-113695048D01*
X146395136Y-114592672D01*
X146338129Y-114559759D01*
X146210962Y-114525684D01*
X146079310Y-114525684D01*
X145952143Y-114559759D01*
X145895136Y-114592672D01*
X145895136Y-113695048D01*
X145895135Y-113695048D01*
X145681649Y-113752251D01*
X145681643Y-113752254D01*
X145467558Y-113852083D01*
X145467556Y-113852084D01*
X145274062Y-113987570D01*
X145274056Y-113987575D01*
X145107027Y-114154604D01*
X145107022Y-114154610D01*
X144971536Y-114348104D01*
X144971535Y-114348106D01*
X144871706Y-114562191D01*
X144871703Y-114562197D01*
X144814500Y-114775683D01*
X144814500Y-114775684D01*
X145712124Y-114775684D01*
X145679211Y-114832691D01*
X145645136Y-114959858D01*
X145645136Y-115091510D01*
X145679211Y-115218677D01*
X145712124Y-115275684D01*
X144814500Y-115275684D01*
X144871703Y-115489170D01*
X144871706Y-115489176D01*
X144971535Y-115703262D01*
X145107030Y-115896766D01*
X145274053Y-116063789D01*
X145467557Y-116199284D01*
X145681643Y-116299113D01*
X145681652Y-116299117D01*
X145895136Y-116356318D01*
X145895136Y-115458696D01*
X145952143Y-115491609D01*
X146079310Y-115525684D01*
X146210962Y-115525684D01*
X146338129Y-115491609D01*
X146395136Y-115458696D01*
X146395136Y-116356317D01*
X146608619Y-116299117D01*
X146608628Y-116299113D01*
X146822714Y-116199284D01*
X147016214Y-116063792D01*
X147138269Y-115941737D01*
X147199592Y-115908252D01*
X147269284Y-115913236D01*
X147325218Y-115955107D01*
X147342133Y-115986085D01*
X147391338Y-116118012D01*
X147391342Y-116118019D01*
X147477588Y-116233228D01*
X147477591Y-116233231D01*
X147592800Y-116319477D01*
X147592807Y-116319481D01*
X147727653Y-116369775D01*
X147727652Y-116369775D01*
X147734580Y-116370519D01*
X147787263Y-116376184D01*
X149583008Y-116376183D01*
X149642619Y-116369775D01*
X149777467Y-116319480D01*
X149892682Y-116233230D01*
X149978932Y-116118015D01*
X150029227Y-115983167D01*
X150035636Y-115923557D01*
X150035635Y-114127812D01*
X150029227Y-114068201D01*
X150028138Y-114065282D01*
X149978933Y-113933355D01*
X149978929Y-113933348D01*
X149892683Y-113818139D01*
X149892680Y-113818136D01*
X149777471Y-113731890D01*
X149777464Y-113731886D01*
X149642619Y-113681592D01*
X149596379Y-113676621D01*
X149531829Y-113649883D01*
X149491981Y-113592490D01*
X149485636Y-113553332D01*
X149485636Y-111384683D01*
X149485635Y-111384681D01*
X149473659Y-111324476D01*
X149454873Y-111230031D01*
X149411497Y-111125311D01*
X149394533Y-111084355D01*
X149394526Y-111084342D01*
X149306926Y-110953240D01*
X149292755Y-110939069D01*
X149195425Y-110841739D01*
X143654476Y-105300790D01*
X143620991Y-105239467D01*
X143618754Y-105225261D01*
X143617632Y-105213871D01*
X143617632Y-105213870D01*
X143617632Y-105213868D01*
X143560422Y-105025273D01*
X143560419Y-105025269D01*
X143560419Y-105025266D01*
X143467521Y-104851467D01*
X143467517Y-104851460D01*
X143342491Y-104699116D01*
X143190147Y-104574090D01*
X143190140Y-104574086D01*
X143016341Y-104481188D01*
X143016335Y-104481186D01*
X142827740Y-104423976D01*
X142827737Y-104423975D01*
X142631608Y-104404659D01*
X142435478Y-104423975D01*
X142246874Y-104481188D01*
X142073075Y-104574086D01*
X142073068Y-104574090D01*
X141920724Y-104699116D01*
X141795698Y-104851460D01*
X141795694Y-104851467D01*
X141702796Y-105025266D01*
X141645583Y-105213870D01*
X141626267Y-105410000D01*
X120512078Y-105410000D01*
X120216819Y-105114741D01*
X120183334Y-105053418D01*
X120180500Y-105027060D01*
X120180500Y-103486786D01*
X120200185Y-103419747D01*
X120252989Y-103373992D01*
X120322147Y-103364048D01*
X120345250Y-103370386D01*
X120345329Y-103370127D01*
X120351154Y-103371894D01*
X120351158Y-103371896D01*
X120539753Y-103429106D01*
X120735885Y-103448423D01*
X120932017Y-103429106D01*
X121120612Y-103371896D01*
X121294423Y-103278992D01*
X121446768Y-103153965D01*
X121571795Y-103001620D01*
X121654689Y-102846536D01*
X121664696Y-102827815D01*
X121664696Y-102827814D01*
X121664699Y-102827809D01*
X121721909Y-102639214D01*
X121741226Y-102443082D01*
X121721909Y-102246950D01*
X121664699Y-102058355D01*
X121664696Y-102058351D01*
X121664696Y-102058348D01*
X121571798Y-101884549D01*
X121571794Y-101884542D01*
X121478647Y-101771043D01*
X121451334Y-101706733D01*
X121450500Y-101692378D01*
X121450500Y-91439999D01*
X121834341Y-91439999D01*
X121834341Y-91440000D01*
X121854936Y-91675403D01*
X121854938Y-91675413D01*
X121916094Y-91903655D01*
X121916096Y-91903659D01*
X121916097Y-91903663D01*
X122015965Y-92117830D01*
X122015967Y-92117834D01*
X122151501Y-92311395D01*
X122151506Y-92311402D01*
X122318597Y-92478493D01*
X122318603Y-92478498D01*
X122376796Y-92519245D01*
X122491580Y-92599618D01*
X122504594Y-92608730D01*
X122548219Y-92663307D01*
X122555413Y-92732805D01*
X122523890Y-92795160D01*
X122504595Y-92811880D01*
X122318922Y-92941890D01*
X122318920Y-92941891D01*
X122151891Y-93108920D01*
X122151886Y-93108926D01*
X122016400Y-93302420D01*
X122016399Y-93302422D01*
X121916570Y-93516507D01*
X121916567Y-93516513D01*
X121859364Y-93729999D01*
X121859364Y-93730000D01*
X122756988Y-93730000D01*
X122724075Y-93787007D01*
X122690000Y-93914174D01*
X122690000Y-94045826D01*
X122724075Y-94172993D01*
X122756988Y-94230000D01*
X121859364Y-94230000D01*
X121916567Y-94443486D01*
X121916570Y-94443492D01*
X122016399Y-94657578D01*
X122151894Y-94851082D01*
X122273946Y-94973134D01*
X122307431Y-95034457D01*
X122302447Y-95104149D01*
X122260575Y-95160082D01*
X122229598Y-95176997D01*
X122097671Y-95226202D01*
X122097664Y-95226206D01*
X121982455Y-95312452D01*
X121982452Y-95312455D01*
X121896206Y-95427664D01*
X121896202Y-95427671D01*
X121845908Y-95562517D01*
X121839501Y-95622116D01*
X121839501Y-95622123D01*
X121839500Y-95622135D01*
X121839500Y-97417870D01*
X121839501Y-97417876D01*
X121845908Y-97477483D01*
X121896202Y-97612328D01*
X121896206Y-97612335D01*
X121982452Y-97727544D01*
X121982455Y-97727547D01*
X122097664Y-97813793D01*
X122097671Y-97813797D01*
X122232517Y-97864091D01*
X122232516Y-97864091D01*
X122239444Y-97864835D01*
X122292127Y-97870500D01*
X124087872Y-97870499D01*
X124147483Y-97864091D01*
X124282331Y-97813796D01*
X124397546Y-97727546D01*
X124483796Y-97612331D01*
X124534091Y-97477483D01*
X124540500Y-97417873D01*
X124540499Y-95622128D01*
X124534091Y-95562517D01*
X124508572Y-95494098D01*
X124483797Y-95427671D01*
X124483793Y-95427664D01*
X124397547Y-95312455D01*
X124397544Y-95312452D01*
X124282335Y-95226206D01*
X124282328Y-95226202D01*
X124150401Y-95176997D01*
X124094467Y-95135126D01*
X124070050Y-95069662D01*
X124084902Y-95001389D01*
X124106053Y-94973133D01*
X124228108Y-94851078D01*
X124363600Y-94657578D01*
X124463429Y-94443492D01*
X124463432Y-94443486D01*
X124520636Y-94230000D01*
X123623012Y-94230000D01*
X123655925Y-94172993D01*
X123690000Y-94045826D01*
X123690000Y-93914174D01*
X123655925Y-93787007D01*
X123623012Y-93730000D01*
X124520636Y-93730000D01*
X124520635Y-93729999D01*
X124463432Y-93516513D01*
X124463429Y-93516507D01*
X124363600Y-93302422D01*
X124363599Y-93302420D01*
X124228113Y-93108926D01*
X124228108Y-93108920D01*
X124061078Y-92941890D01*
X123875405Y-92811879D01*
X123831780Y-92757302D01*
X123824588Y-92687804D01*
X123856110Y-92625449D01*
X123875406Y-92608730D01*
X124061401Y-92478495D01*
X124228495Y-92311401D01*
X124364035Y-92117830D01*
X124463903Y-91903663D01*
X124525063Y-91675408D01*
X124545659Y-91440000D01*
X124525063Y-91204592D01*
X124463903Y-90976337D01*
X124364035Y-90762171D01*
X124336395Y-90722696D01*
X124228494Y-90568597D01*
X124061402Y-90401506D01*
X124061395Y-90401501D01*
X123867834Y-90265967D01*
X123867830Y-90265965D01*
X123813214Y-90240497D01*
X123653663Y-90166097D01*
X123653659Y-90166096D01*
X123653655Y-90166094D01*
X123425413Y-90104938D01*
X123425403Y-90104936D01*
X123190001Y-90084341D01*
X123189999Y-90084341D01*
X122954596Y-90104936D01*
X122954586Y-90104938D01*
X122726344Y-90166094D01*
X122726335Y-90166098D01*
X122512171Y-90265964D01*
X122512169Y-90265965D01*
X122318597Y-90401505D01*
X122151505Y-90568597D01*
X122015965Y-90762169D01*
X122015964Y-90762171D01*
X121916098Y-90976335D01*
X121916094Y-90976344D01*
X121854938Y-91204586D01*
X121854936Y-91204596D01*
X121834341Y-91439999D01*
X121450500Y-91439999D01*
X121450500Y-88012939D01*
X121470185Y-87945900D01*
X121486815Y-87925262D01*
X122029210Y-87382866D01*
X122090531Y-87349383D01*
X122104737Y-87347146D01*
X122116132Y-87346024D01*
X122304727Y-87288814D01*
X122478538Y-87195910D01*
X122487387Y-87188647D01*
X122551696Y-87161334D01*
X122566053Y-87160500D01*
X154557060Y-87160500D01*
X154624099Y-87180185D01*
X154644741Y-87196819D01*
X156643181Y-89195259D01*
X156676666Y-89256582D01*
X156679500Y-89282940D01*
X156679500Y-90349951D01*
X156659815Y-90416990D01*
X156643181Y-90437632D01*
X156479954Y-90600858D01*
X156349432Y-90787265D01*
X156349431Y-90787267D01*
X156322382Y-90845275D01*
X156276209Y-90897714D01*
X156209016Y-90916866D01*
X156142135Y-90896650D01*
X156097618Y-90845275D01*
X156078985Y-90805316D01*
X156070568Y-90787266D01*
X155940047Y-90600861D01*
X155940045Y-90600858D01*
X155779141Y-90439954D01*
X155592734Y-90309432D01*
X155592732Y-90309431D01*
X155386497Y-90213261D01*
X155386488Y-90213258D01*
X155166697Y-90154366D01*
X155166693Y-90154365D01*
X155166692Y-90154365D01*
X155166691Y-90154364D01*
X155166686Y-90154364D01*
X154940002Y-90134532D01*
X154939997Y-90134532D01*
X154838158Y-90143441D01*
X154769659Y-90129674D01*
X154739671Y-90107594D01*
X153664949Y-89032870D01*
X153664945Y-89032867D01*
X153533842Y-88945266D01*
X153533829Y-88945259D01*
X153388158Y-88884921D01*
X153388146Y-88884918D01*
X153233502Y-88854157D01*
X153233499Y-88854157D01*
X130134185Y-88854157D01*
X129976500Y-88854157D01*
X129976498Y-88854157D01*
X129821851Y-88884918D01*
X129821841Y-88884921D01*
X129676170Y-88945259D01*
X129676157Y-88945266D01*
X129545055Y-89032866D01*
X129516460Y-89061462D01*
X129433554Y-89144368D01*
X129433552Y-89144370D01*
X128370909Y-90207012D01*
X128309586Y-90240497D01*
X128260444Y-90241220D01*
X128251243Y-90239500D01*
X128028757Y-90239500D01*
X127810060Y-90280382D01*
X127733956Y-90309865D01*
X127602601Y-90360752D01*
X127602595Y-90360754D01*
X127413439Y-90477874D01*
X127413437Y-90477876D01*
X127249020Y-90627761D01*
X127114943Y-90805308D01*
X127114938Y-90805316D01*
X127015775Y-91004461D01*
X127015769Y-91004476D01*
X126954885Y-91218462D01*
X126954884Y-91218464D01*
X126934357Y-91439999D01*
X126934357Y-91440000D01*
X126954884Y-91661535D01*
X126954885Y-91661537D01*
X127015769Y-91875523D01*
X127015775Y-91875538D01*
X127114938Y-92074683D01*
X127114943Y-92074691D01*
X127249020Y-92252238D01*
X127413437Y-92402123D01*
X127413439Y-92402125D01*
X127602595Y-92519245D01*
X127602596Y-92519245D01*
X127602599Y-92519247D01*
X127810060Y-92599618D01*
X128028757Y-92640500D01*
X128028759Y-92640500D01*
X128251241Y-92640500D01*
X128251243Y-92640500D01*
X128469940Y-92599618D01*
X128677401Y-92519247D01*
X128866562Y-92402124D01*
X129030981Y-92252236D01*
X129165058Y-92074689D01*
X129264229Y-91875528D01*
X129325115Y-91661536D01*
X129335748Y-91546778D01*
X129361534Y-91481841D01*
X129371530Y-91470546D01*
X130350601Y-90491476D01*
X130411924Y-90457991D01*
X130438282Y-90455157D01*
X130943775Y-90455157D01*
X131010814Y-90474842D01*
X131056569Y-90527646D01*
X131066513Y-90596804D01*
X131045350Y-90650280D01*
X130949432Y-90787265D01*
X130949431Y-90787267D01*
X130853261Y-90993502D01*
X130853258Y-90993511D01*
X130794366Y-91213302D01*
X130794364Y-91213313D01*
X130774532Y-91439998D01*
X130774532Y-91440001D01*
X130794364Y-91666686D01*
X130794366Y-91666697D01*
X130853258Y-91886488D01*
X130853261Y-91886497D01*
X130949431Y-92092732D01*
X130949432Y-92092734D01*
X131079954Y-92279141D01*
X131240858Y-92440045D01*
X131240861Y-92440047D01*
X131427266Y-92570568D01*
X131633504Y-92666739D01*
X131853308Y-92725635D01*
X132015230Y-92739801D01*
X132079998Y-92745468D01*
X132080000Y-92745468D01*
X132080002Y-92745468D01*
X132136673Y-92740509D01*
X132306692Y-92725635D01*
X132526496Y-92666739D01*
X132732734Y-92570568D01*
X132919139Y-92440047D01*
X133080047Y-92279139D01*
X133210568Y-92092734D01*
X133237618Y-92034724D01*
X133283790Y-91982285D01*
X133350983Y-91963133D01*
X133417865Y-91983348D01*
X133462382Y-92034725D01*
X133489429Y-92092728D01*
X133489432Y-92092734D01*
X133619954Y-92279141D01*
X133780858Y-92440045D01*
X133780861Y-92440047D01*
X133967266Y-92570568D01*
X134173504Y-92666739D01*
X134393308Y-92725635D01*
X134555230Y-92739801D01*
X134619998Y-92745468D01*
X134620000Y-92745468D01*
X134620002Y-92745468D01*
X134676673Y-92740509D01*
X134846692Y-92725635D01*
X135066496Y-92666739D01*
X135272734Y-92570568D01*
X135459139Y-92440047D01*
X135620047Y-92279139D01*
X135750568Y-92092734D01*
X135777618Y-92034724D01*
X135823790Y-91982285D01*
X135890983Y-91963133D01*
X135957865Y-91983348D01*
X136002382Y-92034725D01*
X136029429Y-92092728D01*
X136029432Y-92092734D01*
X136159954Y-92279141D01*
X136320858Y-92440045D01*
X136320861Y-92440047D01*
X136507266Y-92570568D01*
X136713504Y-92666739D01*
X136933308Y-92725635D01*
X137095230Y-92739801D01*
X137159998Y-92745468D01*
X137160000Y-92745468D01*
X137160002Y-92745468D01*
X137216673Y-92740509D01*
X137386692Y-92725635D01*
X137606496Y-92666739D01*
X137812734Y-92570568D01*
X137999139Y-92440047D01*
X138160047Y-92279139D01*
X138290568Y-92092734D01*
X138317618Y-92034724D01*
X138363790Y-91982285D01*
X138430983Y-91963133D01*
X138497865Y-91983348D01*
X138542382Y-92034725D01*
X138569429Y-92092728D01*
X138569432Y-92092734D01*
X138699954Y-92279141D01*
X138860858Y-92440045D01*
X138860861Y-92440047D01*
X139047266Y-92570568D01*
X139253504Y-92666739D01*
X139473308Y-92725635D01*
X139635230Y-92739801D01*
X139699998Y-92745468D01*
X139700000Y-92745468D01*
X139700002Y-92745468D01*
X139756673Y-92740509D01*
X139926692Y-92725635D01*
X140146496Y-92666739D01*
X140352734Y-92570568D01*
X140539139Y-92440047D01*
X140700047Y-92279139D01*
X140830568Y-92092734D01*
X140857618Y-92034724D01*
X140903790Y-91982285D01*
X140970983Y-91963133D01*
X141037865Y-91983348D01*
X141082382Y-92034725D01*
X141109429Y-92092728D01*
X141109432Y-92092734D01*
X141239954Y-92279141D01*
X141400858Y-92440045D01*
X141400861Y-92440047D01*
X141587266Y-92570568D01*
X141793504Y-92666739D01*
X142013308Y-92725635D01*
X142175230Y-92739801D01*
X142239998Y-92745468D01*
X142240000Y-92745468D01*
X142240002Y-92745468D01*
X142296673Y-92740509D01*
X142466692Y-92725635D01*
X142686496Y-92666739D01*
X142892734Y-92570568D01*
X143079139Y-92440047D01*
X143240047Y-92279139D01*
X143370568Y-92092734D01*
X143397618Y-92034724D01*
X143443790Y-91982285D01*
X143510983Y-91963133D01*
X143577865Y-91983348D01*
X143622382Y-92034725D01*
X143649429Y-92092728D01*
X143649432Y-92092734D01*
X143779954Y-92279141D01*
X143940858Y-92440045D01*
X143940861Y-92440047D01*
X144127266Y-92570568D01*
X144333504Y-92666739D01*
X144553308Y-92725635D01*
X144715230Y-92739801D01*
X144779998Y-92745468D01*
X144780000Y-92745468D01*
X144780002Y-92745468D01*
X144836673Y-92740509D01*
X145006692Y-92725635D01*
X145226496Y-92666739D01*
X145432734Y-92570568D01*
X145619139Y-92440047D01*
X145780047Y-92279139D01*
X145910568Y-92092734D01*
X145937618Y-92034724D01*
X145983790Y-91982285D01*
X146050983Y-91963133D01*
X146117865Y-91983348D01*
X146162382Y-92034725D01*
X146189429Y-92092728D01*
X146189432Y-92092734D01*
X146319954Y-92279141D01*
X146480858Y-92440045D01*
X146480861Y-92440047D01*
X146667266Y-92570568D01*
X146873504Y-92666739D01*
X147093308Y-92725635D01*
X147255230Y-92739801D01*
X147319998Y-92745468D01*
X147320000Y-92745468D01*
X147320002Y-92745468D01*
X147376673Y-92740509D01*
X147546692Y-92725635D01*
X147766496Y-92666739D01*
X147972734Y-92570568D01*
X148159139Y-92440047D01*
X148320047Y-92279139D01*
X148450568Y-92092734D01*
X148477618Y-92034724D01*
X148523790Y-91982285D01*
X148590983Y-91963133D01*
X148657865Y-91983348D01*
X148702382Y-92034725D01*
X148729429Y-92092728D01*
X148729432Y-92092734D01*
X148859954Y-92279141D01*
X149020858Y-92440045D01*
X149020861Y-92440047D01*
X149207266Y-92570568D01*
X149413504Y-92666739D01*
X149633308Y-92725635D01*
X149795230Y-92739801D01*
X149859998Y-92745468D01*
X149860000Y-92745468D01*
X149860002Y-92745468D01*
X149916673Y-92740509D01*
X150086692Y-92725635D01*
X150306496Y-92666739D01*
X150512734Y-92570568D01*
X150699139Y-92440047D01*
X150860047Y-92279139D01*
X150990568Y-92092734D01*
X151017618Y-92034724D01*
X151063790Y-91982285D01*
X151130983Y-91963133D01*
X151197865Y-91983348D01*
X151242382Y-92034725D01*
X151269429Y-92092728D01*
X151269432Y-92092734D01*
X151399954Y-92279141D01*
X151563181Y-92442368D01*
X151596666Y-92503691D01*
X151599500Y-92530049D01*
X151599500Y-101451751D01*
X151579815Y-101518790D01*
X151527011Y-101564545D01*
X151457853Y-101574489D01*
X151394297Y-101545464D01*
X151387819Y-101539432D01*
X149673202Y-99824815D01*
X149639717Y-99763492D01*
X149644701Y-99693800D01*
X149686573Y-99637867D01*
X149752037Y-99613450D01*
X149760883Y-99613134D01*
X150011676Y-99613134D01*
X150023829Y-99613730D01*
X150066920Y-99617975D01*
X150110010Y-99613730D01*
X150122164Y-99613134D01*
X150165462Y-99613134D01*
X150181374Y-99609968D01*
X150207925Y-99604687D01*
X150219957Y-99602902D01*
X150263052Y-99598658D01*
X150304500Y-99586084D01*
X150316273Y-99583134D01*
X150358755Y-99574685D01*
X150398767Y-99558110D01*
X150410200Y-99554020D01*
X150451647Y-99541448D01*
X150489838Y-99521033D01*
X150500826Y-99515836D01*
X150540834Y-99499266D01*
X150576858Y-99475194D01*
X150587271Y-99468954D01*
X150613511Y-99454929D01*
X150625455Y-99448546D01*
X150625459Y-99448543D01*
X150658925Y-99421078D01*
X150668702Y-99413827D01*
X150704701Y-99389774D01*
X150704703Y-99389772D01*
X150704703Y-99389771D01*
X150735328Y-99359146D01*
X150744322Y-99350993D01*
X150777803Y-99323517D01*
X150805279Y-99290036D01*
X150813432Y-99281042D01*
X150844059Y-99250416D01*
X150868113Y-99214415D01*
X150875364Y-99204639D01*
X150902829Y-99171173D01*
X150902832Y-99171169D01*
X150909582Y-99158540D01*
X150923240Y-99132985D01*
X150929480Y-99122572D01*
X150953552Y-99086548D01*
X150970122Y-99046540D01*
X150975319Y-99035552D01*
X150995734Y-98997361D01*
X151008306Y-98955914D01*
X151012396Y-98944481D01*
X151028971Y-98904469D01*
X151037420Y-98861987D01*
X151040370Y-98850214D01*
X151052944Y-98808766D01*
X151057188Y-98765671D01*
X151058974Y-98753633D01*
X151067420Y-98711175D01*
X151067420Y-98667878D01*
X151068017Y-98655724D01*
X151069016Y-98645579D01*
X151072261Y-98612634D01*
X151068017Y-98569541D01*
X151067420Y-98557388D01*
X151067420Y-98514092D01*
X151061874Y-98486212D01*
X151058972Y-98471624D01*
X151057188Y-98459595D01*
X151056909Y-98456766D01*
X151052944Y-98416502D01*
X151040368Y-98375048D01*
X151037419Y-98363274D01*
X151028971Y-98320799D01*
X151012400Y-98280794D01*
X151008302Y-98269340D01*
X151006654Y-98263907D01*
X150995734Y-98227907D01*
X150975324Y-98189725D01*
X150970121Y-98178724D01*
X150968467Y-98174730D01*
X150953552Y-98138720D01*
X150929492Y-98102712D01*
X150923236Y-98092274D01*
X150902831Y-98054098D01*
X150902830Y-98054096D01*
X150875358Y-98020622D01*
X150868114Y-98010853D01*
X150844060Y-97974853D01*
X150844056Y-97974848D01*
X150813440Y-97944233D01*
X150805266Y-97935215D01*
X150777804Y-97901752D01*
X150744336Y-97874285D01*
X150735321Y-97866113D01*
X150704707Y-97835499D01*
X150704703Y-97835496D01*
X150698320Y-97831231D01*
X150688059Y-97824374D01*
X150668692Y-97811433D01*
X150658922Y-97804186D01*
X150625463Y-97776728D01*
X150625455Y-97776722D01*
X150608356Y-97767582D01*
X150587270Y-97756312D01*
X150576838Y-97750059D01*
X150540838Y-97726004D01*
X150540834Y-97726002D01*
X150500835Y-97709434D01*
X150489833Y-97704231D01*
X150451649Y-97683821D01*
X150451648Y-97683820D01*
X150451647Y-97683820D01*
X150410197Y-97671246D01*
X150398754Y-97667151D01*
X150358754Y-97650582D01*
X150358747Y-97650580D01*
X150316298Y-97642137D01*
X150304495Y-97639181D01*
X150263054Y-97626610D01*
X150263050Y-97626609D01*
X150219955Y-97622364D01*
X150207926Y-97620579D01*
X150165464Y-97612134D01*
X150165461Y-97612134D01*
X150122164Y-97612134D01*
X150110010Y-97611537D01*
X150066920Y-97607293D01*
X150023830Y-97611537D01*
X150011676Y-97612134D01*
X143858823Y-97612134D01*
X143810392Y-97621768D01*
X143786050Y-97626610D01*
X143665533Y-97650581D01*
X143665525Y-97650584D01*
X143612200Y-97672671D01*
X143612200Y-97672672D01*
X143566842Y-97691460D01*
X143483455Y-97726000D01*
X143483445Y-97726005D01*
X143319585Y-97835493D01*
X143284656Y-97870423D01*
X143180227Y-97974852D01*
X143180224Y-97974855D01*
X142841603Y-98313475D01*
X142832589Y-98321645D01*
X142799116Y-98349116D01*
X142771645Y-98382589D01*
X142763478Y-98391601D01*
X142732858Y-98422222D01*
X142732853Y-98422228D01*
X142708802Y-98458222D01*
X142701558Y-98467991D01*
X142674088Y-98501464D01*
X142653672Y-98539658D01*
X142647420Y-98550089D01*
X142623367Y-98586087D01*
X142606799Y-98626084D01*
X142601600Y-98637076D01*
X142581188Y-98675266D01*
X142581187Y-98675270D01*
X142568616Y-98716707D01*
X142564518Y-98728158D01*
X142547950Y-98768158D01*
X142547948Y-98768163D01*
X142541772Y-98799215D01*
X142509386Y-98861125D01*
X142448670Y-98895699D01*
X142378901Y-98891958D01*
X142322229Y-98851091D01*
X142300380Y-98807115D01*
X142277717Y-98722536D01*
X142248270Y-98612634D01*
X142243905Y-98596344D01*
X142243904Y-98596343D01*
X142243903Y-98596337D01*
X142144035Y-98382171D01*
X142134977Y-98369234D01*
X142008494Y-98188597D01*
X141841402Y-98021506D01*
X141841395Y-98021501D01*
X141647834Y-97885967D01*
X141647830Y-97885965D01*
X141600921Y-97864091D01*
X141433663Y-97786097D01*
X141433659Y-97786096D01*
X141433655Y-97786094D01*
X141205413Y-97724938D01*
X141205403Y-97724936D01*
X140970001Y-97704341D01*
X140969999Y-97704341D01*
X140734596Y-97724936D01*
X140734586Y-97724938D01*
X140506344Y-97786094D01*
X140506335Y-97786098D01*
X140292171Y-97885964D01*
X140292169Y-97885965D01*
X140098597Y-98021505D01*
X139931505Y-98188597D01*
X139795965Y-98382169D01*
X139795964Y-98382171D01*
X139696098Y-98596335D01*
X139696094Y-98596344D01*
X139634938Y-98824586D01*
X139634936Y-98824596D01*
X139614341Y-99059999D01*
X139614341Y-99060000D01*
X139634936Y-99295403D01*
X139634938Y-99295413D01*
X139696094Y-99523655D01*
X139696096Y-99523659D01*
X139696097Y-99523663D01*
X139777288Y-99697777D01*
X139795965Y-99737830D01*
X139795967Y-99737834D01*
X139887909Y-99869139D01*
X139931501Y-99931396D01*
X139931506Y-99931402D01*
X140053430Y-100053326D01*
X140086915Y-100114649D01*
X140081931Y-100184341D01*
X140040059Y-100240274D01*
X140009083Y-100257189D01*
X139877669Y-100306203D01*
X139877664Y-100306206D01*
X139762455Y-100392452D01*
X139762452Y-100392455D01*
X139676206Y-100507664D01*
X139676202Y-100507671D01*
X139625910Y-100642513D01*
X139625909Y-100642517D01*
X139620937Y-100688757D01*
X139594201Y-100753306D01*
X139536809Y-100793154D01*
X139497649Y-100799500D01*
X135639372Y-100799500D01*
X135572333Y-100779815D01*
X135551691Y-100763181D01*
X131203334Y-96414824D01*
X131169849Y-96353501D01*
X131167544Y-96315699D01*
X131168412Y-96306337D01*
X131147884Y-96084801D01*
X131086998Y-95870809D01*
X131086993Y-95870798D01*
X130987830Y-95671653D01*
X130987825Y-95671645D01*
X130853748Y-95494098D01*
X130689331Y-95344213D01*
X130689329Y-95344211D01*
X130500173Y-95227091D01*
X130500167Y-95227089D01*
X130497883Y-95226204D01*
X130292709Y-95146719D01*
X130074012Y-95105837D01*
X129851526Y-95105837D01*
X129632829Y-95146719D01*
X129554673Y-95176997D01*
X129425370Y-95227089D01*
X129425364Y-95227091D01*
X129236208Y-95344211D01*
X129236206Y-95344213D01*
X129071789Y-95494098D01*
X128937712Y-95671645D01*
X128937707Y-95671653D01*
X128838544Y-95870798D01*
X128838538Y-95870813D01*
X128777654Y-96084799D01*
X128777653Y-96084801D01*
X128757126Y-96306336D01*
X128757126Y-96306337D01*
X128777653Y-96527872D01*
X128777654Y-96527874D01*
X128838538Y-96741860D01*
X128838544Y-96741875D01*
X128937707Y-96941020D01*
X128937712Y-96941028D01*
X129071789Y-97118575D01*
X129236206Y-97268460D01*
X129236208Y-97268462D01*
X129425364Y-97385582D01*
X129425365Y-97385582D01*
X129425368Y-97385584D01*
X129632829Y-97465955D01*
X129851526Y-97506837D01*
X129979829Y-97506837D01*
X130046868Y-97526522D01*
X130067510Y-97543156D01*
X134634643Y-102110289D01*
X134692050Y-102167696D01*
X134746144Y-102221790D01*
X134877246Y-102309390D01*
X134877259Y-102309397D01*
X135022930Y-102369735D01*
X135022935Y-102369737D01*
X135177585Y-102400499D01*
X135177588Y-102400500D01*
X135177590Y-102400500D01*
X139497649Y-102400500D01*
X139564688Y-102420185D01*
X139610443Y-102472989D01*
X139620939Y-102511248D01*
X139625908Y-102557483D01*
X139676202Y-102692328D01*
X139676206Y-102692335D01*
X139762452Y-102807544D01*
X139762455Y-102807547D01*
X139877664Y-102893793D01*
X139877671Y-102893797D01*
X140012517Y-102944091D01*
X140012516Y-102944091D01*
X140019444Y-102944835D01*
X140072127Y-102950500D01*
X141867872Y-102950499D01*
X141927483Y-102944091D01*
X142062331Y-102893796D01*
X142177546Y-102807546D01*
X142263796Y-102692331D01*
X142314091Y-102557483D01*
X142320500Y-102497873D01*
X142320499Y-100702128D01*
X142314091Y-100642517D01*
X142270682Y-100526132D01*
X142263797Y-100507671D01*
X142263793Y-100507664D01*
X142177547Y-100392455D01*
X142177544Y-100392452D01*
X142062335Y-100306206D01*
X142062328Y-100306202D01*
X141930917Y-100257189D01*
X141874983Y-100215318D01*
X141850566Y-100149853D01*
X141865418Y-100081580D01*
X141886563Y-100053332D01*
X142008495Y-99931401D01*
X142144035Y-99737830D01*
X142243903Y-99523663D01*
X142300381Y-99312881D01*
X142336744Y-99253223D01*
X142399591Y-99222693D01*
X142468967Y-99230987D01*
X142522845Y-99275472D01*
X142541772Y-99320785D01*
X142547946Y-99351828D01*
X142547948Y-99351834D01*
X142547949Y-99351836D01*
X142564523Y-99391850D01*
X142568615Y-99403288D01*
X142581185Y-99444725D01*
X142581187Y-99444730D01*
X142601599Y-99482919D01*
X142606799Y-99493913D01*
X142609017Y-99499268D01*
X142623369Y-99533914D01*
X142623369Y-99533915D01*
X142647422Y-99569913D01*
X142653676Y-99580347D01*
X142671370Y-99613450D01*
X142674092Y-99618541D01*
X142701557Y-99652007D01*
X142708806Y-99661781D01*
X142732860Y-99697780D01*
X142732863Y-99697784D01*
X142763474Y-99728394D01*
X142771646Y-99737410D01*
X142799118Y-99770884D01*
X142832587Y-99798351D01*
X142841605Y-99806525D01*
X142872213Y-99837134D01*
X142872216Y-99837136D01*
X142872219Y-99837139D01*
X142908219Y-99861193D01*
X142917992Y-99868442D01*
X142938151Y-99884986D01*
X142951462Y-99895910D01*
X142989651Y-99916322D01*
X143000090Y-99922579D01*
X143036086Y-99946631D01*
X143076087Y-99963201D01*
X143087085Y-99968402D01*
X143125273Y-99988814D01*
X143166721Y-100001387D01*
X143178166Y-100005483D01*
X143218156Y-100022048D01*
X143218157Y-100022048D01*
X143218164Y-100022051D01*
X143260632Y-100030497D01*
X143272424Y-100033451D01*
X143313868Y-100046024D01*
X143356965Y-100050268D01*
X143368991Y-100052052D01*
X143399481Y-100058117D01*
X143411459Y-100060500D01*
X143411460Y-100060500D01*
X143454756Y-100060500D01*
X143466909Y-100061096D01*
X143510000Y-100065341D01*
X143553090Y-100061096D01*
X143565244Y-100060500D01*
X143608540Y-100060500D01*
X143641069Y-100054029D01*
X143710658Y-100060255D01*
X143765837Y-100103117D01*
X143789083Y-100169006D01*
X143788664Y-100187800D01*
X143774659Y-100329999D01*
X143793975Y-100526129D01*
X143793976Y-100526132D01*
X143847364Y-100702129D01*
X143851188Y-100714733D01*
X143944086Y-100888532D01*
X143944090Y-100888539D01*
X144069116Y-101040883D01*
X144221460Y-101165909D01*
X144221467Y-101165913D01*
X144395266Y-101258811D01*
X144395269Y-101258811D01*
X144395273Y-101258814D01*
X144583868Y-101316024D01*
X144780000Y-101335341D01*
X144976132Y-101316024D01*
X145164727Y-101258814D01*
X145199219Y-101240378D01*
X145338532Y-101165913D01*
X145338534Y-101165912D01*
X145338533Y-101165912D01*
X145338538Y-101165910D01*
X145347387Y-101158647D01*
X145411696Y-101131334D01*
X145426053Y-101130500D01*
X148663368Y-101130500D01*
X148730407Y-101150185D01*
X148751049Y-101166819D01*
X153794418Y-106210188D01*
X153827903Y-106271511D01*
X153830140Y-106285712D01*
X153831262Y-106297108D01*
X153831263Y-106297111D01*
X153861608Y-106397146D01*
X153888475Y-106485712D01*
X153981373Y-106659511D01*
X153981377Y-106659518D01*
X154106403Y-106811862D01*
X154258747Y-106936888D01*
X154258754Y-106936892D01*
X154432553Y-107029790D01*
X154432556Y-107029790D01*
X154432560Y-107029793D01*
X154621155Y-107087003D01*
X154817287Y-107106320D01*
X155013419Y-107087003D01*
X155202014Y-107029793D01*
X155375825Y-106936889D01*
X155528170Y-106811862D01*
X155653197Y-106659517D01*
X155696172Y-106579115D01*
X155745133Y-106529272D01*
X155813271Y-106513811D01*
X155878950Y-106537642D01*
X155901383Y-106558904D01*
X155939126Y-106604894D01*
X156091470Y-106729920D01*
X156091477Y-106729924D01*
X156265276Y-106822822D01*
X156265279Y-106822822D01*
X156265283Y-106822825D01*
X156453878Y-106880035D01*
X156650010Y-106899352D01*
X156846142Y-106880035D01*
X156889514Y-106866877D01*
X156959380Y-106866253D01*
X157018493Y-106903501D01*
X157048085Y-106966795D01*
X157049510Y-106985538D01*
X157049510Y-109498671D01*
X157029825Y-109565710D01*
X157028613Y-109567561D01*
X157001870Y-109607583D01*
X156948542Y-109736327D01*
X156948543Y-109736328D01*
X156930207Y-109780599D01*
X156930206Y-109780601D01*
X156926452Y-109789663D01*
X156926450Y-109789669D01*
X156888004Y-109982950D01*
X156888004Y-110548880D01*
X156868319Y-110615919D01*
X156815515Y-110661674D01*
X156746357Y-110671618D01*
X156719211Y-110664507D01*
X156593790Y-110615919D01*
X156531248Y-110591690D01*
X156312551Y-110550808D01*
X156090065Y-110550808D01*
X155871368Y-110591690D01*
X155808826Y-110615919D01*
X155663909Y-110672060D01*
X155663903Y-110672062D01*
X155474747Y-110789182D01*
X155474745Y-110789184D01*
X155310328Y-110939069D01*
X155176251Y-111116616D01*
X155176246Y-111116624D01*
X155077083Y-111315769D01*
X155077077Y-111315784D01*
X155016193Y-111529770D01*
X155016192Y-111529772D01*
X154995665Y-111751307D01*
X154995665Y-111751308D01*
X155016192Y-111972843D01*
X155016193Y-111972845D01*
X155077077Y-112186831D01*
X155077083Y-112186846D01*
X155176246Y-112385991D01*
X155176251Y-112385999D01*
X155310328Y-112563546D01*
X155395474Y-112641166D01*
X155471922Y-112710858D01*
X155474745Y-112713431D01*
X155474747Y-112713433D01*
X155663903Y-112830553D01*
X155663904Y-112830553D01*
X155663907Y-112830555D01*
X155871368Y-112910926D01*
X156090065Y-112951808D01*
X156090067Y-112951808D01*
X156312549Y-112951808D01*
X156312551Y-112951808D01*
X156531248Y-112910926D01*
X156738709Y-112830555D01*
X156770259Y-112811019D01*
X156835894Y-112770381D01*
X156901171Y-112751808D01*
X157174603Y-112751808D01*
X157239880Y-112770381D01*
X157351099Y-112839245D01*
X157351100Y-112839245D01*
X157351103Y-112839247D01*
X157558564Y-112919618D01*
X157777261Y-112960500D01*
X157777263Y-112960500D01*
X157999745Y-112960500D01*
X157999747Y-112960500D01*
X158218444Y-112919618D01*
X158425905Y-112839247D01*
X158615066Y-112722124D01*
X158765228Y-112585233D01*
X158779483Y-112572238D01*
X158786049Y-112563544D01*
X158913562Y-112394689D01*
X159012733Y-112195528D01*
X159073619Y-111981536D01*
X159094147Y-111760000D01*
X159093341Y-111751307D01*
X159073619Y-111538464D01*
X159073618Y-111538462D01*
X159071145Y-111529772D01*
X159012733Y-111324472D01*
X159008399Y-111315769D01*
X158913559Y-111125305D01*
X158910542Y-111120432D01*
X158911691Y-111119720D01*
X158889357Y-111060583D01*
X158889004Y-111051229D01*
X158889004Y-110504999D01*
X172695061Y-110504999D01*
X172695061Y-110505000D01*
X172715656Y-110740403D01*
X172715658Y-110740413D01*
X172776814Y-110968655D01*
X172776816Y-110968659D01*
X172776817Y-110968663D01*
X172876685Y-111182830D01*
X172876687Y-111182834D01*
X172965860Y-111310185D01*
X173012225Y-111376401D01*
X173179319Y-111543495D01*
X173276104Y-111611265D01*
X173372885Y-111679032D01*
X173372887Y-111679033D01*
X173372890Y-111679035D01*
X173587057Y-111778903D01*
X173815312Y-111840063D01*
X174003638Y-111856539D01*
X174050719Y-111860659D01*
X174050720Y-111860659D01*
X174050721Y-111860659D01*
X174089954Y-111857226D01*
X174286128Y-111840063D01*
X174514383Y-111778903D01*
X174728550Y-111679035D01*
X174922121Y-111543495D01*
X175089215Y-111376401D01*
X175224755Y-111182830D01*
X175324623Y-110968663D01*
X175385783Y-110740408D01*
X175406379Y-110505000D01*
X175385783Y-110269592D01*
X175324623Y-110041337D01*
X175224755Y-109827171D01*
X175198491Y-109789661D01*
X175089214Y-109633597D01*
X174922122Y-109466506D01*
X174922121Y-109466505D01*
X174736125Y-109336269D01*
X174692501Y-109281692D01*
X174685308Y-109212193D01*
X174716830Y-109149839D01*
X174736125Y-109133119D01*
X174921802Y-109003105D01*
X175088825Y-108836082D01*
X175224320Y-108642578D01*
X175324149Y-108428492D01*
X175324152Y-108428486D01*
X175381356Y-108215000D01*
X174483732Y-108215000D01*
X174516645Y-108157993D01*
X174550720Y-108030826D01*
X174550720Y-107899174D01*
X174516645Y-107772007D01*
X174483732Y-107715000D01*
X175381356Y-107715000D01*
X175381355Y-107714999D01*
X175324152Y-107501513D01*
X175324149Y-107501507D01*
X175224320Y-107287422D01*
X175224319Y-107287420D01*
X175088833Y-107093926D01*
X175088828Y-107093920D01*
X174966773Y-106971865D01*
X174933288Y-106910542D01*
X174938272Y-106840850D01*
X174980144Y-106784917D01*
X175011120Y-106768002D01*
X175143051Y-106718796D01*
X175258266Y-106632546D01*
X175344516Y-106517331D01*
X175394811Y-106382483D01*
X175401220Y-106322873D01*
X175401219Y-104527128D01*
X175394811Y-104467517D01*
X175378571Y-104423976D01*
X175344517Y-104332671D01*
X175344513Y-104332664D01*
X175258267Y-104217455D01*
X175258264Y-104217452D01*
X175143055Y-104131206D01*
X175143048Y-104131202D01*
X175008202Y-104080908D01*
X175008203Y-104080908D01*
X174948603Y-104074501D01*
X174948601Y-104074500D01*
X174948593Y-104074500D01*
X174948584Y-104074500D01*
X173152849Y-104074500D01*
X173152843Y-104074501D01*
X173093236Y-104080908D01*
X172958391Y-104131202D01*
X172958384Y-104131206D01*
X172843175Y-104217452D01*
X172843172Y-104217455D01*
X172756926Y-104332664D01*
X172756922Y-104332671D01*
X172706628Y-104467517D01*
X172700221Y-104527116D01*
X172700221Y-104527123D01*
X172700220Y-104527135D01*
X172700220Y-106322870D01*
X172700221Y-106322876D01*
X172706628Y-106382483D01*
X172756922Y-106517328D01*
X172756926Y-106517335D01*
X172843172Y-106632544D01*
X172843175Y-106632547D01*
X172958384Y-106718793D01*
X172958391Y-106718797D01*
X173020622Y-106742007D01*
X173090318Y-106768002D01*
X173146251Y-106809873D01*
X173170669Y-106875337D01*
X173155818Y-106943610D01*
X173134667Y-106971865D01*
X173012606Y-107093926D01*
X172877120Y-107287420D01*
X172877119Y-107287422D01*
X172777290Y-107501507D01*
X172777287Y-107501513D01*
X172720084Y-107714999D01*
X172720084Y-107715000D01*
X173617708Y-107715000D01*
X173584795Y-107772007D01*
X173550720Y-107899174D01*
X173550720Y-108030826D01*
X173584795Y-108157993D01*
X173617708Y-108215000D01*
X172720084Y-108215000D01*
X172777287Y-108428486D01*
X172777290Y-108428492D01*
X172877119Y-108642578D01*
X173012614Y-108836082D01*
X173179637Y-109003105D01*
X173365315Y-109133119D01*
X173408939Y-109187696D01*
X173416132Y-109257195D01*
X173384610Y-109319549D01*
X173365315Y-109336269D01*
X173179314Y-109466508D01*
X173012225Y-109633597D01*
X172876685Y-109827169D01*
X172876684Y-109827171D01*
X172776818Y-110041335D01*
X172776814Y-110041344D01*
X172715658Y-110269586D01*
X172715656Y-110269596D01*
X172695061Y-110504999D01*
X158889004Y-110504999D01*
X158889004Y-110502814D01*
X158908689Y-110435775D01*
X158909903Y-110433922D01*
X158936637Y-110393912D01*
X158936638Y-110393909D01*
X158936642Y-110393904D01*
X159012061Y-110211825D01*
X159046203Y-110040185D01*
X159050510Y-110018533D01*
X159050510Y-101445672D01*
X159028563Y-101335342D01*
X159028563Y-101335341D01*
X159012062Y-101252386D01*
X159012061Y-101252380D01*
X158965245Y-101139357D01*
X158964899Y-101138522D01*
X158936645Y-101070309D01*
X158936644Y-101070308D01*
X158936642Y-101070302D01*
X158849147Y-100939356D01*
X158827149Y-100906433D01*
X158684696Y-100763980D01*
X158684665Y-100763951D01*
X158203514Y-100282800D01*
X158171929Y-100229054D01*
X158126192Y-100068303D01*
X158126191Y-100068300D01*
X158027024Y-99869147D01*
X158027019Y-99869139D01*
X157892942Y-99691592D01*
X157728525Y-99541707D01*
X157728523Y-99541705D01*
X157539367Y-99424585D01*
X157539361Y-99424583D01*
X157331903Y-99344213D01*
X157331898Y-99344212D01*
X157331895Y-99344211D01*
X157287268Y-99335868D01*
X157224988Y-99304199D01*
X157222375Y-99301661D01*
X156801842Y-98881128D01*
X156770257Y-98827382D01*
X156721473Y-98655922D01*
X156721468Y-98655911D01*
X156622305Y-98456766D01*
X156622300Y-98456758D01*
X156488223Y-98279211D01*
X156323806Y-98129326D01*
X156323804Y-98129324D01*
X156134648Y-98012204D01*
X156134642Y-98012202D01*
X156124655Y-98008333D01*
X155927184Y-97931832D01*
X155708487Y-97890950D01*
X155486001Y-97890950D01*
X155267304Y-97931832D01*
X155156267Y-97974848D01*
X155059845Y-98012202D01*
X155059839Y-98012204D01*
X154870683Y-98129324D01*
X154870681Y-98129326D01*
X154706264Y-98279211D01*
X154572187Y-98456758D01*
X154572182Y-98456766D01*
X154473019Y-98655911D01*
X154473013Y-98655926D01*
X154412129Y-98869912D01*
X154412128Y-98869914D01*
X154391601Y-99091449D01*
X154391601Y-99091450D01*
X154412128Y-99312985D01*
X154412129Y-99312987D01*
X154473013Y-99526973D01*
X154473019Y-99526988D01*
X154572182Y-99726133D01*
X154572187Y-99726141D01*
X154706264Y-99903688D01*
X154822560Y-100009705D01*
X154867055Y-100050268D01*
X154870681Y-100053573D01*
X154870683Y-100053575D01*
X155059839Y-100170695D01*
X155059840Y-100170695D01*
X155059843Y-100170697D01*
X155267304Y-100251068D01*
X155321359Y-100261172D01*
X155383639Y-100292840D01*
X155386254Y-100295380D01*
X155794317Y-100703443D01*
X155825901Y-100757188D01*
X155846047Y-100827991D01*
X155877733Y-100939356D01*
X155877737Y-100939365D01*
X155976899Y-101138510D01*
X155976906Y-101138522D01*
X156110983Y-101316069D01*
X156275400Y-101465954D01*
X156275402Y-101465956D01*
X156464558Y-101583076D01*
X156464564Y-101583079D01*
X156664945Y-101660707D01*
X156672023Y-101663449D01*
X156735500Y-101675314D01*
X156797781Y-101706982D01*
X156800396Y-101709522D01*
X157013191Y-101922317D01*
X157046676Y-101983640D01*
X157049510Y-102009998D01*
X157049510Y-104802483D01*
X157029825Y-104869522D01*
X156977021Y-104915277D01*
X156907863Y-104925221D01*
X156889515Y-104921144D01*
X156846140Y-104907986D01*
X156834743Y-104906864D01*
X156769957Y-104880702D01*
X156759219Y-104871142D01*
X153236819Y-101348742D01*
X153203334Y-101287419D01*
X153200500Y-101261061D01*
X153200500Y-92530049D01*
X153220185Y-92463010D01*
X153236819Y-92442368D01*
X153400045Y-92279141D01*
X153400047Y-92279139D01*
X153530568Y-92092734D01*
X153557618Y-92034724D01*
X153603790Y-91982285D01*
X153670983Y-91963133D01*
X153737865Y-91983348D01*
X153782382Y-92034725D01*
X153809429Y-92092728D01*
X153809432Y-92092734D01*
X153939954Y-92279141D01*
X154100858Y-92440045D01*
X154100861Y-92440047D01*
X154287266Y-92570568D01*
X154493504Y-92666739D01*
X154713308Y-92725635D01*
X154875230Y-92739801D01*
X154939998Y-92745468D01*
X154940000Y-92745468D01*
X154940002Y-92745468D01*
X154996673Y-92740509D01*
X155166692Y-92725635D01*
X155386496Y-92666739D01*
X155592734Y-92570568D01*
X155779139Y-92440047D01*
X155940047Y-92279139D01*
X156070568Y-92092734D01*
X156097618Y-92034724D01*
X156143790Y-91982285D01*
X156210983Y-91963133D01*
X156277865Y-91983348D01*
X156322382Y-92034725D01*
X156349429Y-92092728D01*
X156349432Y-92092734D01*
X156479954Y-92279141D01*
X156640858Y-92440045D01*
X156640861Y-92440047D01*
X156827266Y-92570568D01*
X157033504Y-92666739D01*
X157253308Y-92725635D01*
X157415230Y-92739801D01*
X157479998Y-92745468D01*
X157480000Y-92745468D01*
X157480002Y-92745468D01*
X157536673Y-92740509D01*
X157706692Y-92725635D01*
X157926496Y-92666739D01*
X158132734Y-92570568D01*
X158319139Y-92440047D01*
X158480047Y-92279139D01*
X158610568Y-92092734D01*
X158637618Y-92034724D01*
X158683790Y-91982285D01*
X158750983Y-91963133D01*
X158817865Y-91983348D01*
X158862382Y-92034725D01*
X158889429Y-92092728D01*
X158889432Y-92092734D01*
X159019954Y-92279141D01*
X159180858Y-92440045D01*
X159180861Y-92440047D01*
X159367266Y-92570568D01*
X159573504Y-92666739D01*
X159793308Y-92725635D01*
X159955230Y-92739801D01*
X160019998Y-92745468D01*
X160020000Y-92745468D01*
X160020002Y-92745468D01*
X160076673Y-92740509D01*
X160246692Y-92725635D01*
X160466496Y-92666739D01*
X160672734Y-92570568D01*
X160859139Y-92440047D01*
X161020047Y-92279139D01*
X161150568Y-92092734D01*
X161177618Y-92034724D01*
X161223790Y-91982285D01*
X161290983Y-91963133D01*
X161357865Y-91983348D01*
X161402382Y-92034725D01*
X161429429Y-92092728D01*
X161429432Y-92092734D01*
X161559954Y-92279141D01*
X161720858Y-92440045D01*
X161720861Y-92440047D01*
X161907266Y-92570568D01*
X162113504Y-92666739D01*
X162333308Y-92725635D01*
X162495230Y-92739801D01*
X162559998Y-92745468D01*
X162560000Y-92745468D01*
X162560002Y-92745468D01*
X162616673Y-92740509D01*
X162786692Y-92725635D01*
X163006496Y-92666739D01*
X163212734Y-92570568D01*
X163399139Y-92440047D01*
X163560047Y-92279139D01*
X163690568Y-92092734D01*
X163717895Y-92034129D01*
X163764064Y-91981695D01*
X163831257Y-91962542D01*
X163898139Y-91982757D01*
X163942657Y-92034133D01*
X163969865Y-92092482D01*
X164100342Y-92278820D01*
X164261179Y-92439657D01*
X164447517Y-92570134D01*
X164653673Y-92666265D01*
X164653682Y-92666269D01*
X164849999Y-92718872D01*
X164850000Y-92718871D01*
X164850000Y-91873012D01*
X164907007Y-91905925D01*
X165034174Y-91940000D01*
X165165826Y-91940000D01*
X165292993Y-91905925D01*
X165350000Y-91873012D01*
X165350000Y-92718872D01*
X165546317Y-92666269D01*
X165546326Y-92666265D01*
X165752482Y-92570134D01*
X165938820Y-92439657D01*
X166099657Y-92278820D01*
X166230132Y-92092484D01*
X166257341Y-92034134D01*
X166303513Y-91981695D01*
X166370707Y-91962542D01*
X166437588Y-91982757D01*
X166482106Y-92034133D01*
X166509431Y-92092732D01*
X166509432Y-92092734D01*
X166639954Y-92279141D01*
X166800858Y-92440045D01*
X166800861Y-92440047D01*
X166987266Y-92570568D01*
X167193504Y-92666739D01*
X167413308Y-92725635D01*
X167575230Y-92739801D01*
X167639998Y-92745468D01*
X167640000Y-92745468D01*
X167640002Y-92745468D01*
X167696673Y-92740509D01*
X167866692Y-92725635D01*
X168086496Y-92666739D01*
X168292734Y-92570568D01*
X168479139Y-92440047D01*
X168640047Y-92279139D01*
X168770568Y-92092734D01*
X168866739Y-91886496D01*
X168925635Y-91666692D01*
X168945468Y-91440000D01*
X168944371Y-91427466D01*
X168926086Y-91218464D01*
X168925635Y-91213308D01*
X168866739Y-90993504D01*
X168770568Y-90787266D01*
X168640047Y-90600861D01*
X168640045Y-90600858D01*
X168479141Y-90439954D01*
X168292734Y-90309432D01*
X168292732Y-90309431D01*
X168086497Y-90213261D01*
X168086488Y-90213258D01*
X167866697Y-90154366D01*
X167866693Y-90154365D01*
X167866692Y-90154365D01*
X167866691Y-90154364D01*
X167866686Y-90154364D01*
X167640002Y-90134532D01*
X167639998Y-90134532D01*
X167413313Y-90154364D01*
X167413302Y-90154366D01*
X167193511Y-90213258D01*
X167193502Y-90213261D01*
X166987267Y-90309431D01*
X166987265Y-90309432D01*
X166800858Y-90439954D01*
X166639954Y-90600858D01*
X166509433Y-90787264D01*
X166509432Y-90787266D01*
X166501018Y-90805311D01*
X166482106Y-90845867D01*
X166435933Y-90898306D01*
X166368739Y-90917457D01*
X166301858Y-90897241D01*
X166257342Y-90845865D01*
X166230135Y-90787520D01*
X166230134Y-90787518D01*
X166099657Y-90601179D01*
X165938820Y-90440342D01*
X165752482Y-90309865D01*
X165546328Y-90213734D01*
X165350000Y-90161127D01*
X165350000Y-91006988D01*
X165292993Y-90974075D01*
X165165826Y-90940000D01*
X165034174Y-90940000D01*
X164907007Y-90974075D01*
X164850000Y-91006988D01*
X164850000Y-90161127D01*
X164653671Y-90213734D01*
X164447517Y-90309865D01*
X164261179Y-90440342D01*
X164100342Y-90601179D01*
X163969867Y-90787515D01*
X163942657Y-90845867D01*
X163896484Y-90898306D01*
X163829290Y-90917457D01*
X163762409Y-90897241D01*
X163717893Y-90845865D01*
X163698982Y-90805311D01*
X163690568Y-90787266D01*
X163560047Y-90600861D01*
X163560045Y-90600858D01*
X163399141Y-90439954D01*
X163212734Y-90309432D01*
X163212732Y-90309431D01*
X163006497Y-90213261D01*
X163006488Y-90213258D01*
X162786697Y-90154366D01*
X162786693Y-90154365D01*
X162786692Y-90154365D01*
X162786691Y-90154364D01*
X162786686Y-90154364D01*
X162560002Y-90134532D01*
X162559998Y-90134532D01*
X162333313Y-90154364D01*
X162333302Y-90154366D01*
X162113511Y-90213258D01*
X162113502Y-90213261D01*
X161907267Y-90309431D01*
X161907265Y-90309432D01*
X161720858Y-90439954D01*
X161559954Y-90600858D01*
X161429432Y-90787265D01*
X161429431Y-90787267D01*
X161402382Y-90845275D01*
X161356209Y-90897714D01*
X161289016Y-90916866D01*
X161222135Y-90896650D01*
X161177618Y-90845275D01*
X161158985Y-90805316D01*
X161150568Y-90787266D01*
X161020047Y-90600861D01*
X161020045Y-90600858D01*
X160859141Y-90439954D01*
X160672734Y-90309432D01*
X160672732Y-90309431D01*
X160466497Y-90213261D01*
X160466488Y-90213258D01*
X160246697Y-90154366D01*
X160246693Y-90154365D01*
X160246692Y-90154365D01*
X160246691Y-90154364D01*
X160246686Y-90154364D01*
X160020002Y-90134532D01*
X160019998Y-90134532D01*
X159793313Y-90154364D01*
X159793302Y-90154366D01*
X159573511Y-90213258D01*
X159573502Y-90213261D01*
X159367267Y-90309431D01*
X159367265Y-90309432D01*
X159180858Y-90439954D01*
X159019954Y-90600858D01*
X158889432Y-90787265D01*
X158889431Y-90787267D01*
X158862382Y-90845275D01*
X158816209Y-90897714D01*
X158749016Y-90916866D01*
X158682135Y-90896650D01*
X158637618Y-90845275D01*
X158618985Y-90805316D01*
X158610568Y-90787266D01*
X158480047Y-90600861D01*
X158480045Y-90600858D01*
X158316819Y-90437632D01*
X158283334Y-90376309D01*
X158280500Y-90349951D01*
X158280500Y-88821155D01*
X158280499Y-88821153D01*
X158278505Y-88811127D01*
X158249737Y-88666503D01*
X158229178Y-88616868D01*
X158189397Y-88520827D01*
X158189390Y-88520814D01*
X158101790Y-88389712D01*
X158101789Y-88389711D01*
X157990289Y-88278211D01*
X156872578Y-87160500D01*
X155450292Y-85738213D01*
X155450288Y-85738210D01*
X155319185Y-85650609D01*
X155319172Y-85650602D01*
X155173501Y-85590264D01*
X155173489Y-85590261D01*
X155018845Y-85559500D01*
X155018842Y-85559500D01*
X130626247Y-85559500D01*
X130559208Y-85539815D01*
X130513453Y-85487011D01*
X130503509Y-85417853D01*
X130507587Y-85399504D01*
X130526023Y-85338727D01*
X130526024Y-85338725D01*
X130545341Y-85142593D01*
X130526024Y-84946461D01*
X130468814Y-84757866D01*
X130468811Y-84757862D01*
X130468811Y-84757859D01*
X130375913Y-84584060D01*
X130375909Y-84584054D01*
X130368645Y-84575202D01*
X130341333Y-84510892D01*
X130340500Y-84496539D01*
X130340500Y-78116052D01*
X130360185Y-78049013D01*
X130368643Y-78037392D01*
X130375910Y-78028538D01*
X130468814Y-77854727D01*
X130526024Y-77666132D01*
X130545341Y-77470000D01*
X130526024Y-77273868D01*
X130491633Y-77160496D01*
X130491009Y-77090629D01*
X130528257Y-77031516D01*
X130591551Y-77001925D01*
X130610293Y-77000500D01*
X130989951Y-77000500D01*
X131056990Y-77020185D01*
X131077632Y-77036819D01*
X131240858Y-77200045D01*
X131240861Y-77200047D01*
X131427266Y-77330568D01*
X131633504Y-77426739D01*
X131633509Y-77426740D01*
X131633511Y-77426741D01*
X131686415Y-77440916D01*
X131853308Y-77485635D01*
X132015230Y-77499801D01*
X132079998Y-77505468D01*
X132080000Y-77505468D01*
X132080002Y-77505468D01*
X132136807Y-77500498D01*
X132306692Y-77485635D01*
X132526496Y-77426739D01*
X132732734Y-77330568D01*
X132919139Y-77200047D01*
X133080047Y-77039139D01*
X133210568Y-76852734D01*
X133237618Y-76794724D01*
X133283790Y-76742285D01*
X133350983Y-76723133D01*
X133417865Y-76743348D01*
X133462382Y-76794725D01*
X133489429Y-76852728D01*
X133489432Y-76852734D01*
X133619954Y-77039141D01*
X133780858Y-77200045D01*
X133780861Y-77200047D01*
X133967266Y-77330568D01*
X134173504Y-77426739D01*
X134173509Y-77426740D01*
X134173511Y-77426741D01*
X134226415Y-77440916D01*
X134393308Y-77485635D01*
X134555230Y-77499801D01*
X134619998Y-77505468D01*
X134620000Y-77505468D01*
X134620002Y-77505468D01*
X134676807Y-77500498D01*
X134846692Y-77485635D01*
X135066496Y-77426739D01*
X135272734Y-77330568D01*
X135459139Y-77200047D01*
X135620047Y-77039139D01*
X135750568Y-76852734D01*
X135777618Y-76794724D01*
X135823790Y-76742285D01*
X135890983Y-76723133D01*
X135957865Y-76743348D01*
X136002382Y-76794725D01*
X136029429Y-76852728D01*
X136029432Y-76852734D01*
X136159954Y-77039141D01*
X136320858Y-77200045D01*
X136320861Y-77200047D01*
X136507266Y-77330568D01*
X136713504Y-77426739D01*
X136713509Y-77426740D01*
X136713511Y-77426741D01*
X136766415Y-77440916D01*
X136933308Y-77485635D01*
X137095230Y-77499801D01*
X137159998Y-77505468D01*
X137160000Y-77505468D01*
X137160002Y-77505468D01*
X137216807Y-77500498D01*
X137386692Y-77485635D01*
X137606496Y-77426739D01*
X137812734Y-77330568D01*
X137999139Y-77200047D01*
X138160047Y-77039139D01*
X138290568Y-76852734D01*
X138317618Y-76794724D01*
X138363790Y-76742285D01*
X138430983Y-76723133D01*
X138497865Y-76743348D01*
X138542382Y-76794725D01*
X138569429Y-76852728D01*
X138569432Y-76852734D01*
X138699954Y-77039141D01*
X138860858Y-77200045D01*
X138860861Y-77200047D01*
X139047266Y-77330568D01*
X139253504Y-77426739D01*
X139253509Y-77426740D01*
X139253511Y-77426741D01*
X139306415Y-77440916D01*
X139473308Y-77485635D01*
X139635230Y-77499801D01*
X139699998Y-77505468D01*
X139700000Y-77505468D01*
X139700002Y-77505468D01*
X139756807Y-77500498D01*
X139926692Y-77485635D01*
X140146496Y-77426739D01*
X140352734Y-77330568D01*
X140539139Y-77200047D01*
X140700047Y-77039139D01*
X140830568Y-76852734D01*
X140857618Y-76794724D01*
X140903790Y-76742285D01*
X140970983Y-76723133D01*
X141037865Y-76743348D01*
X141082382Y-76794725D01*
X141109429Y-76852728D01*
X141109432Y-76852734D01*
X141239954Y-77039141D01*
X141400858Y-77200045D01*
X141400861Y-77200047D01*
X141587266Y-77330568D01*
X141793504Y-77426739D01*
X141793509Y-77426740D01*
X141793511Y-77426741D01*
X141846415Y-77440916D01*
X142013308Y-77485635D01*
X142175230Y-77499801D01*
X142239998Y-77505468D01*
X142240000Y-77505468D01*
X142240002Y-77505468D01*
X142296807Y-77500498D01*
X142466692Y-77485635D01*
X142686496Y-77426739D01*
X142892734Y-77330568D01*
X143079139Y-77200047D01*
X143240047Y-77039139D01*
X143370568Y-76852734D01*
X143397618Y-76794724D01*
X143443790Y-76742285D01*
X143510983Y-76723133D01*
X143577865Y-76743348D01*
X143622382Y-76794725D01*
X143649429Y-76852728D01*
X143649432Y-76852734D01*
X143779954Y-77039141D01*
X143940858Y-77200045D01*
X143940861Y-77200047D01*
X144127266Y-77330568D01*
X144333504Y-77426739D01*
X144333509Y-77426740D01*
X144333511Y-77426741D01*
X144386415Y-77440916D01*
X144553308Y-77485635D01*
X144715230Y-77499801D01*
X144779998Y-77505468D01*
X144780000Y-77505468D01*
X144780002Y-77505468D01*
X144836807Y-77500498D01*
X145006692Y-77485635D01*
X145226496Y-77426739D01*
X145432734Y-77330568D01*
X145619139Y-77200047D01*
X145780047Y-77039139D01*
X145910568Y-76852734D01*
X145937618Y-76794724D01*
X145983790Y-76742285D01*
X146050983Y-76723133D01*
X146117865Y-76743348D01*
X146162382Y-76794725D01*
X146189429Y-76852728D01*
X146189432Y-76852734D01*
X146319954Y-77039141D01*
X146480858Y-77200045D01*
X146480861Y-77200047D01*
X146667266Y-77330568D01*
X146873504Y-77426739D01*
X146873509Y-77426740D01*
X146873511Y-77426741D01*
X146926415Y-77440916D01*
X147093308Y-77485635D01*
X147255230Y-77499801D01*
X147319998Y-77505468D01*
X147320000Y-77505468D01*
X147320002Y-77505468D01*
X147376807Y-77500498D01*
X147546692Y-77485635D01*
X147766496Y-77426739D01*
X147972734Y-77330568D01*
X148159139Y-77200047D01*
X148320047Y-77039139D01*
X148450568Y-76852734D01*
X148477618Y-76794724D01*
X148523790Y-76742285D01*
X148590983Y-76723133D01*
X148657865Y-76743348D01*
X148702382Y-76794725D01*
X148729429Y-76852728D01*
X148729432Y-76852734D01*
X148859954Y-77039141D01*
X149020858Y-77200045D01*
X149020861Y-77200047D01*
X149207266Y-77330568D01*
X149413504Y-77426739D01*
X149413509Y-77426740D01*
X149413511Y-77426741D01*
X149466415Y-77440916D01*
X149633308Y-77485635D01*
X149795230Y-77499801D01*
X149859998Y-77505468D01*
X149860000Y-77505468D01*
X149860002Y-77505468D01*
X149916807Y-77500498D01*
X150086692Y-77485635D01*
X150306496Y-77426739D01*
X150512734Y-77330568D01*
X150699139Y-77200047D01*
X150860047Y-77039139D01*
X150990568Y-76852734D01*
X151017618Y-76794724D01*
X151063790Y-76742285D01*
X151130983Y-76723133D01*
X151197865Y-76743348D01*
X151242382Y-76794725D01*
X151269429Y-76852728D01*
X151269432Y-76852734D01*
X151399954Y-77039141D01*
X151560858Y-77200045D01*
X151560861Y-77200047D01*
X151747266Y-77330568D01*
X151953504Y-77426739D01*
X151953509Y-77426740D01*
X151953511Y-77426741D01*
X152006415Y-77440916D01*
X152173308Y-77485635D01*
X152335230Y-77499801D01*
X152399998Y-77505468D01*
X152400000Y-77505468D01*
X152400002Y-77505468D01*
X152456807Y-77500498D01*
X152626692Y-77485635D01*
X152846496Y-77426739D01*
X153052734Y-77330568D01*
X153239139Y-77200047D01*
X153400047Y-77039139D01*
X153530568Y-76852734D01*
X153557618Y-76794724D01*
X153603790Y-76742285D01*
X153670983Y-76723133D01*
X153737865Y-76743348D01*
X153782382Y-76794725D01*
X153809429Y-76852728D01*
X153809432Y-76852734D01*
X153939954Y-77039141D01*
X154100858Y-77200045D01*
X154100861Y-77200047D01*
X154287266Y-77330568D01*
X154493504Y-77426739D01*
X154493509Y-77426740D01*
X154493511Y-77426741D01*
X154546415Y-77440916D01*
X154713308Y-77485635D01*
X154875230Y-77499801D01*
X154939998Y-77505468D01*
X154940000Y-77505468D01*
X154940002Y-77505468D01*
X154996807Y-77500498D01*
X155166692Y-77485635D01*
X155386496Y-77426739D01*
X155592734Y-77330568D01*
X155779139Y-77200047D01*
X155940047Y-77039139D01*
X156070568Y-76852734D01*
X156097618Y-76794724D01*
X156143790Y-76742285D01*
X156210983Y-76723133D01*
X156277865Y-76743348D01*
X156322382Y-76794725D01*
X156349429Y-76852728D01*
X156349432Y-76852734D01*
X156479954Y-77039141D01*
X156643181Y-77202368D01*
X156676666Y-77263691D01*
X156679500Y-77290049D01*
X156679500Y-77548846D01*
X156710261Y-77703489D01*
X156710264Y-77703501D01*
X156770602Y-77849172D01*
X156770609Y-77849185D01*
X156858210Y-77980288D01*
X156858213Y-77980292D01*
X164077131Y-85199209D01*
X164110616Y-85260532D01*
X164112853Y-85274733D01*
X164113975Y-85286129D01*
X164171188Y-85474733D01*
X164264086Y-85648532D01*
X164264090Y-85648539D01*
X164389116Y-85800883D01*
X164541460Y-85925909D01*
X164541467Y-85925913D01*
X164715266Y-86018811D01*
X164715269Y-86018811D01*
X164715273Y-86018814D01*
X164903868Y-86076024D01*
X165100000Y-86095341D01*
X165296132Y-86076024D01*
X165484727Y-86018814D01*
X165658538Y-85925910D01*
X165810883Y-85800883D01*
X165935910Y-85648538D01*
X166000080Y-85528484D01*
X166028811Y-85474733D01*
X166028811Y-85474732D01*
X166028814Y-85474727D01*
X166086024Y-85286132D01*
X166105341Y-85090000D01*
X166086024Y-84893868D01*
X166028814Y-84705273D01*
X166028811Y-84705269D01*
X166028811Y-84705266D01*
X165935913Y-84531467D01*
X165935909Y-84531460D01*
X165810883Y-84379116D01*
X165658539Y-84254090D01*
X165658532Y-84254086D01*
X165484733Y-84161188D01*
X165484727Y-84161186D01*
X165296132Y-84103976D01*
X165296129Y-84103975D01*
X165296130Y-84103975D01*
X165284733Y-84102853D01*
X165219947Y-84076691D01*
X165209209Y-84067131D01*
X158418313Y-77276235D01*
X158384828Y-77214912D01*
X158389812Y-77145220D01*
X158418311Y-77100874D01*
X158480047Y-77039139D01*
X158610568Y-76852734D01*
X158637895Y-76794129D01*
X158684064Y-76741695D01*
X158751257Y-76722542D01*
X158818139Y-76742757D01*
X158862657Y-76794133D01*
X158889865Y-76852482D01*
X159020342Y-77038820D01*
X159181179Y-77199657D01*
X159367517Y-77330134D01*
X159573673Y-77426265D01*
X159573682Y-77426269D01*
X159769999Y-77478872D01*
X159770000Y-77478871D01*
X159770000Y-76633012D01*
X159827007Y-76665925D01*
X159954174Y-76700000D01*
X160085826Y-76700000D01*
X160212993Y-76665925D01*
X160270000Y-76633012D01*
X160270000Y-77478872D01*
X160466317Y-77426269D01*
X160466326Y-77426265D01*
X160672482Y-77330134D01*
X160858820Y-77199657D01*
X161019657Y-77038820D01*
X161150132Y-76852484D01*
X161177341Y-76794134D01*
X161223513Y-76741695D01*
X161290707Y-76722542D01*
X161357588Y-76742757D01*
X161402106Y-76794133D01*
X161429431Y-76852732D01*
X161429432Y-76852734D01*
X161559954Y-77039141D01*
X161720858Y-77200045D01*
X161720861Y-77200047D01*
X161907266Y-77330568D01*
X162113504Y-77426739D01*
X162113509Y-77426740D01*
X162113511Y-77426741D01*
X162166415Y-77440916D01*
X162333308Y-77485635D01*
X162495230Y-77499801D01*
X162559998Y-77505468D01*
X162560000Y-77505468D01*
X162560002Y-77505468D01*
X162616807Y-77500498D01*
X162786692Y-77485635D01*
X163006496Y-77426739D01*
X163212734Y-77330568D01*
X163399139Y-77200047D01*
X163560047Y-77039139D01*
X163690568Y-76852734D01*
X163717618Y-76794724D01*
X163763790Y-76742285D01*
X163830983Y-76723133D01*
X163897865Y-76743348D01*
X163942382Y-76794725D01*
X163969429Y-76852728D01*
X163969432Y-76852734D01*
X164099954Y-77039141D01*
X164260858Y-77200045D01*
X164260861Y-77200047D01*
X164447266Y-77330568D01*
X164653504Y-77426739D01*
X164653509Y-77426740D01*
X164653511Y-77426741D01*
X164706415Y-77440916D01*
X164873308Y-77485635D01*
X165035230Y-77499801D01*
X165099998Y-77505468D01*
X165100000Y-77505468D01*
X165100002Y-77505468D01*
X165156807Y-77500498D01*
X165326692Y-77485635D01*
X165546496Y-77426739D01*
X165752734Y-77330568D01*
X165939139Y-77200047D01*
X166100047Y-77039139D01*
X166117272Y-77014539D01*
X166171848Y-76970913D01*
X166241346Y-76963718D01*
X166303701Y-76995239D01*
X166339116Y-77055468D01*
X166342138Y-77072406D01*
X166345908Y-77107483D01*
X166396202Y-77242328D01*
X166396206Y-77242335D01*
X166482452Y-77357544D01*
X166482455Y-77357547D01*
X166597664Y-77443793D01*
X166597671Y-77443797D01*
X166732517Y-77494091D01*
X166732516Y-77494091D01*
X166739444Y-77494835D01*
X166792127Y-77500500D01*
X168487872Y-77500499D01*
X168547483Y-77494091D01*
X168682331Y-77443796D01*
X168797546Y-77357546D01*
X168883796Y-77242331D01*
X168934091Y-77107483D01*
X168940500Y-77047873D01*
X168940499Y-75352128D01*
X168934091Y-75292517D01*
X168899567Y-75199954D01*
X168883797Y-75157671D01*
X168883793Y-75157664D01*
X168797547Y-75042455D01*
X168797544Y-75042452D01*
X168682335Y-74956206D01*
X168682328Y-74956202D01*
X168547482Y-74905908D01*
X168547483Y-74905908D01*
X168487883Y-74899501D01*
X168487881Y-74899500D01*
X168487873Y-74899500D01*
X168487864Y-74899500D01*
X166792129Y-74899500D01*
X166792123Y-74899501D01*
X166732516Y-74905908D01*
X166597671Y-74956202D01*
X166597664Y-74956206D01*
X166482455Y-75042452D01*
X166482452Y-75042455D01*
X166396206Y-75157664D01*
X166396202Y-75157671D01*
X166345908Y-75292516D01*
X166342137Y-75327596D01*
X166315398Y-75392146D01*
X166258006Y-75431994D01*
X166188180Y-75434487D01*
X166128092Y-75398834D01*
X166117273Y-75385462D01*
X166100045Y-75360858D01*
X165939141Y-75199954D01*
X165752734Y-75069432D01*
X165752732Y-75069431D01*
X165546497Y-74973261D01*
X165546488Y-74973258D01*
X165326697Y-74914366D01*
X165326693Y-74914365D01*
X165326692Y-74914365D01*
X165326691Y-74914364D01*
X165326686Y-74914364D01*
X165100002Y-74894532D01*
X165099998Y-74894532D01*
X164873313Y-74914364D01*
X164873302Y-74914366D01*
X164653511Y-74973258D01*
X164653502Y-74973261D01*
X164447267Y-75069431D01*
X164447265Y-75069432D01*
X164260858Y-75199954D01*
X164099954Y-75360858D01*
X163969432Y-75547265D01*
X163969431Y-75547267D01*
X163942382Y-75605275D01*
X163896209Y-75657714D01*
X163829016Y-75676866D01*
X163762135Y-75656650D01*
X163717618Y-75605275D01*
X163690686Y-75547520D01*
X163690568Y-75547266D01*
X163577273Y-75385462D01*
X163560045Y-75360858D01*
X163399141Y-75199954D01*
X163212734Y-75069432D01*
X163212732Y-75069431D01*
X163006497Y-74973261D01*
X163006488Y-74973258D01*
X162786697Y-74914366D01*
X162786693Y-74914365D01*
X162786692Y-74914365D01*
X162786691Y-74914364D01*
X162786686Y-74914364D01*
X162560002Y-74894532D01*
X162559998Y-74894532D01*
X162333313Y-74914364D01*
X162333302Y-74914366D01*
X162113511Y-74973258D01*
X162113502Y-74973261D01*
X161907267Y-75069431D01*
X161907265Y-75069432D01*
X161720858Y-75199954D01*
X161559954Y-75360858D01*
X161429433Y-75547264D01*
X161429432Y-75547266D01*
X161429315Y-75547518D01*
X161402106Y-75605867D01*
X161355933Y-75658306D01*
X161288739Y-75677457D01*
X161221858Y-75657241D01*
X161177342Y-75605865D01*
X161150135Y-75547520D01*
X161150134Y-75547518D01*
X161019657Y-75361179D01*
X160858820Y-75200342D01*
X160672482Y-75069865D01*
X160466328Y-74973734D01*
X160270000Y-74921127D01*
X160270000Y-75766988D01*
X160212993Y-75734075D01*
X160085826Y-75700000D01*
X159954174Y-75700000D01*
X159827007Y-75734075D01*
X159770000Y-75766988D01*
X159770000Y-74921127D01*
X159573671Y-74973734D01*
X159367517Y-75069865D01*
X159181179Y-75200342D01*
X159020342Y-75361179D01*
X158889867Y-75547515D01*
X158862657Y-75605867D01*
X158816484Y-75658306D01*
X158749290Y-75677457D01*
X158682409Y-75657241D01*
X158637893Y-75605865D01*
X158610685Y-75547518D01*
X158610568Y-75547266D01*
X158497273Y-75385462D01*
X158480045Y-75360858D01*
X158319141Y-75199954D01*
X158132734Y-75069432D01*
X158132732Y-75069431D01*
X157926497Y-74973261D01*
X157926488Y-74973258D01*
X157706697Y-74914366D01*
X157706693Y-74914365D01*
X157706692Y-74914365D01*
X157706691Y-74914364D01*
X157706686Y-74914364D01*
X157480002Y-74894532D01*
X157479998Y-74894532D01*
X157253313Y-74914364D01*
X157253302Y-74914366D01*
X157033511Y-74973258D01*
X157033502Y-74973261D01*
X156827267Y-75069431D01*
X156827265Y-75069432D01*
X156640858Y-75199954D01*
X156479954Y-75360858D01*
X156349432Y-75547265D01*
X156349431Y-75547267D01*
X156322382Y-75605275D01*
X156276209Y-75657714D01*
X156209016Y-75676866D01*
X156142135Y-75656650D01*
X156097618Y-75605275D01*
X156070686Y-75547520D01*
X156070568Y-75547266D01*
X155957273Y-75385462D01*
X155940045Y-75360858D01*
X155779141Y-75199954D01*
X155592734Y-75069432D01*
X155592732Y-75069431D01*
X155386497Y-74973261D01*
X155386488Y-74973258D01*
X155166697Y-74914366D01*
X155166693Y-74914365D01*
X155166692Y-74914365D01*
X155166691Y-74914364D01*
X155166686Y-74914364D01*
X154940002Y-74894532D01*
X154939998Y-74894532D01*
X154713313Y-74914364D01*
X154713302Y-74914366D01*
X154493511Y-74973258D01*
X154493502Y-74973261D01*
X154287267Y-75069431D01*
X154287265Y-75069432D01*
X154100858Y-75199954D01*
X153939954Y-75360858D01*
X153809432Y-75547265D01*
X153809431Y-75547267D01*
X153782382Y-75605275D01*
X153736209Y-75657714D01*
X153669016Y-75676866D01*
X153602135Y-75656650D01*
X153557618Y-75605275D01*
X153530686Y-75547520D01*
X153530568Y-75547266D01*
X153417273Y-75385462D01*
X153400045Y-75360858D01*
X153239141Y-75199954D01*
X153052734Y-75069432D01*
X153052732Y-75069431D01*
X152846497Y-74973261D01*
X152846488Y-74973258D01*
X152626697Y-74914366D01*
X152626693Y-74914365D01*
X152626692Y-74914365D01*
X152626691Y-74914364D01*
X152626686Y-74914364D01*
X152400002Y-74894532D01*
X152399998Y-74894532D01*
X152173313Y-74914364D01*
X152173302Y-74914366D01*
X151953511Y-74973258D01*
X151953502Y-74973261D01*
X151747267Y-75069431D01*
X151747265Y-75069432D01*
X151560858Y-75199954D01*
X151399954Y-75360858D01*
X151269432Y-75547265D01*
X151269431Y-75547267D01*
X151242382Y-75605275D01*
X151196209Y-75657714D01*
X151129016Y-75676866D01*
X151062135Y-75656650D01*
X151017618Y-75605275D01*
X150990686Y-75547520D01*
X150990568Y-75547266D01*
X150877273Y-75385462D01*
X150860045Y-75360858D01*
X150699141Y-75199954D01*
X150512734Y-75069432D01*
X150512732Y-75069431D01*
X150306497Y-74973261D01*
X150306488Y-74973258D01*
X150086697Y-74914366D01*
X150086693Y-74914365D01*
X150086692Y-74914365D01*
X150086691Y-74914364D01*
X150086686Y-74914364D01*
X149860002Y-74894532D01*
X149859998Y-74894532D01*
X149633313Y-74914364D01*
X149633302Y-74914366D01*
X149413511Y-74973258D01*
X149413502Y-74973261D01*
X149207267Y-75069431D01*
X149207265Y-75069432D01*
X149020858Y-75199954D01*
X148859954Y-75360858D01*
X148729432Y-75547265D01*
X148729431Y-75547267D01*
X148702382Y-75605275D01*
X148656209Y-75657714D01*
X148589016Y-75676866D01*
X148522135Y-75656650D01*
X148477618Y-75605275D01*
X148450686Y-75547520D01*
X148450568Y-75547266D01*
X148337273Y-75385462D01*
X148320045Y-75360858D01*
X148159141Y-75199954D01*
X147972734Y-75069432D01*
X147972732Y-75069431D01*
X147766497Y-74973261D01*
X147766488Y-74973258D01*
X147546697Y-74914366D01*
X147546693Y-74914365D01*
X147546692Y-74914365D01*
X147546691Y-74914364D01*
X147546686Y-74914364D01*
X147320002Y-74894532D01*
X147319998Y-74894532D01*
X147093313Y-74914364D01*
X147093302Y-74914366D01*
X146873511Y-74973258D01*
X146873502Y-74973261D01*
X146667267Y-75069431D01*
X146667265Y-75069432D01*
X146480858Y-75199954D01*
X146319954Y-75360858D01*
X146189432Y-75547265D01*
X146189431Y-75547267D01*
X146162382Y-75605275D01*
X146116209Y-75657714D01*
X146049016Y-75676866D01*
X145982135Y-75656650D01*
X145937618Y-75605275D01*
X145910686Y-75547520D01*
X145910568Y-75547266D01*
X145797273Y-75385462D01*
X145780045Y-75360858D01*
X145619141Y-75199954D01*
X145432734Y-75069432D01*
X145432732Y-75069431D01*
X145226497Y-74973261D01*
X145226488Y-74973258D01*
X145006697Y-74914366D01*
X145006693Y-74914365D01*
X145006692Y-74914365D01*
X145006691Y-74914364D01*
X145006686Y-74914364D01*
X144780002Y-74894532D01*
X144779998Y-74894532D01*
X144553313Y-74914364D01*
X144553302Y-74914366D01*
X144333511Y-74973258D01*
X144333502Y-74973261D01*
X144127267Y-75069431D01*
X144127265Y-75069432D01*
X143940858Y-75199954D01*
X143779954Y-75360858D01*
X143649432Y-75547265D01*
X143649431Y-75547267D01*
X143622382Y-75605275D01*
X143576209Y-75657714D01*
X143509016Y-75676866D01*
X143442135Y-75656650D01*
X143397618Y-75605275D01*
X143370686Y-75547520D01*
X143370568Y-75547266D01*
X143257273Y-75385462D01*
X143240045Y-75360858D01*
X143076819Y-75197632D01*
X143043334Y-75136309D01*
X143040500Y-75109951D01*
X143040500Y-73581157D01*
X143040499Y-73581153D01*
X143012371Y-73439741D01*
X143009737Y-73426503D01*
X143009735Y-73426498D01*
X143007893Y-73422052D01*
X142983533Y-73363240D01*
X142983533Y-73363239D01*
X142949397Y-73280827D01*
X142949390Y-73280814D01*
X142861790Y-73149712D01*
X142807242Y-73095164D01*
X142750289Y-73038211D01*
X141943668Y-72231590D01*
X141910183Y-72170267D01*
X141915167Y-72100575D01*
X141943668Y-72056228D01*
X141970500Y-72029396D01*
X142008495Y-71991401D01*
X142138425Y-71805842D01*
X142193002Y-71762217D01*
X142262500Y-71755023D01*
X142324855Y-71786546D01*
X142341575Y-71805842D01*
X142471500Y-71991395D01*
X142471505Y-71991401D01*
X142638599Y-72158495D01*
X142658445Y-72172391D01*
X142832165Y-72294032D01*
X142832167Y-72294033D01*
X142832170Y-72294035D01*
X143046337Y-72393903D01*
X143274592Y-72455063D01*
X143445319Y-72470000D01*
X143509999Y-72475659D01*
X143510000Y-72475659D01*
X143510001Y-72475659D01*
X143574681Y-72470000D01*
X143745408Y-72455063D01*
X143973663Y-72393903D01*
X144187830Y-72294035D01*
X144381401Y-72158495D01*
X144548495Y-71991401D01*
X144678425Y-71805842D01*
X144733002Y-71762217D01*
X144802500Y-71755023D01*
X144864855Y-71786546D01*
X144881575Y-71805842D01*
X145011500Y-71991395D01*
X145011505Y-71991401D01*
X145178599Y-72158495D01*
X145198445Y-72172391D01*
X145372165Y-72294032D01*
X145372167Y-72294033D01*
X145372170Y-72294035D01*
X145586337Y-72393903D01*
X145814592Y-72455063D01*
X145985319Y-72470000D01*
X146049999Y-72475659D01*
X146050000Y-72475659D01*
X146050001Y-72475659D01*
X146114681Y-72470000D01*
X146285408Y-72455063D01*
X146513663Y-72393903D01*
X146727830Y-72294035D01*
X146921401Y-72158495D01*
X147088495Y-71991401D01*
X147218425Y-71805842D01*
X147273002Y-71762217D01*
X147342500Y-71755023D01*
X147404855Y-71786546D01*
X147421575Y-71805842D01*
X147551500Y-71991395D01*
X147551505Y-71991401D01*
X147718599Y-72158495D01*
X147738445Y-72172391D01*
X147912165Y-72294032D01*
X147912167Y-72294033D01*
X147912170Y-72294035D01*
X148126337Y-72393903D01*
X148354592Y-72455063D01*
X148525319Y-72470000D01*
X148589999Y-72475659D01*
X148590000Y-72475659D01*
X148590001Y-72475659D01*
X148654681Y-72470000D01*
X148825408Y-72455063D01*
X149053663Y-72393903D01*
X149267830Y-72294035D01*
X149461401Y-72158495D01*
X149628495Y-71991401D01*
X149758425Y-71805842D01*
X149813002Y-71762217D01*
X149882500Y-71755023D01*
X149944855Y-71786546D01*
X149961575Y-71805842D01*
X150091500Y-71991395D01*
X150091505Y-71991401D01*
X150258599Y-72158495D01*
X150278445Y-72172391D01*
X150452165Y-72294032D01*
X150452167Y-72294033D01*
X150452170Y-72294035D01*
X150666337Y-72393903D01*
X150894592Y-72455063D01*
X151065319Y-72470000D01*
X151129999Y-72475659D01*
X151130000Y-72475659D01*
X151130001Y-72475659D01*
X151194681Y-72470000D01*
X151365408Y-72455063D01*
X151593663Y-72393903D01*
X151807830Y-72294035D01*
X152001401Y-72158495D01*
X152168495Y-71991401D01*
X152298425Y-71805842D01*
X152353002Y-71762217D01*
X152422500Y-71755023D01*
X152484855Y-71786546D01*
X152501575Y-71805842D01*
X152631500Y-71991395D01*
X152631505Y-71991401D01*
X152798599Y-72158495D01*
X152818445Y-72172391D01*
X152992165Y-72294032D01*
X152992167Y-72294033D01*
X152992170Y-72294035D01*
X153206337Y-72393903D01*
X153434592Y-72455063D01*
X153605319Y-72470000D01*
X153669999Y-72475659D01*
X153670000Y-72475659D01*
X153670001Y-72475659D01*
X153734681Y-72470000D01*
X153905408Y-72455063D01*
X154133663Y-72393903D01*
X154347830Y-72294035D01*
X154541401Y-72158495D01*
X154708495Y-71991401D01*
X154838425Y-71805842D01*
X154893002Y-71762217D01*
X154962500Y-71755023D01*
X155024855Y-71786546D01*
X155041575Y-71805842D01*
X155171500Y-71991395D01*
X155171505Y-71991401D01*
X155338599Y-72158495D01*
X155358445Y-72172391D01*
X155532165Y-72294032D01*
X155532167Y-72294033D01*
X155532170Y-72294035D01*
X155746337Y-72393903D01*
X155974592Y-72455063D01*
X156145319Y-72470000D01*
X156209999Y-72475659D01*
X156210000Y-72475659D01*
X156210001Y-72475659D01*
X156274681Y-72470000D01*
X156445408Y-72455063D01*
X156673663Y-72393903D01*
X156887830Y-72294035D01*
X157081401Y-72158495D01*
X157248495Y-71991401D01*
X157378425Y-71805842D01*
X157433002Y-71762217D01*
X157502500Y-71755023D01*
X157564855Y-71786546D01*
X157581575Y-71805842D01*
X157711500Y-71991395D01*
X157711505Y-71991401D01*
X157878599Y-72158495D01*
X157898445Y-72172391D01*
X158072165Y-72294032D01*
X158072167Y-72294033D01*
X158072170Y-72294035D01*
X158286337Y-72393903D01*
X158514592Y-72455063D01*
X158685319Y-72470000D01*
X158749999Y-72475659D01*
X158750000Y-72475659D01*
X158750001Y-72475659D01*
X158814681Y-72470000D01*
X158985408Y-72455063D01*
X159213663Y-72393903D01*
X159427830Y-72294035D01*
X159621401Y-72158495D01*
X159788495Y-71991401D01*
X159918425Y-71805842D01*
X159973002Y-71762217D01*
X160042500Y-71755023D01*
X160104855Y-71786546D01*
X160121575Y-71805842D01*
X160251500Y-71991395D01*
X160251505Y-71991401D01*
X160418599Y-72158495D01*
X160438445Y-72172391D01*
X160612165Y-72294032D01*
X160612167Y-72294033D01*
X160612170Y-72294035D01*
X160826337Y-72393903D01*
X161054592Y-72455063D01*
X161225319Y-72470000D01*
X161289999Y-72475659D01*
X161290000Y-72475659D01*
X161290001Y-72475659D01*
X161354681Y-72470000D01*
X161525408Y-72455063D01*
X161753663Y-72393903D01*
X161967830Y-72294035D01*
X162161401Y-72158495D01*
X162328495Y-71991401D01*
X162458425Y-71805842D01*
X162513002Y-71762217D01*
X162582500Y-71755023D01*
X162644855Y-71786546D01*
X162661575Y-71805842D01*
X162791500Y-71991395D01*
X162791505Y-71991401D01*
X162958599Y-72158495D01*
X162978445Y-72172391D01*
X163152165Y-72294032D01*
X163152167Y-72294033D01*
X163152170Y-72294035D01*
X163366337Y-72393903D01*
X163594592Y-72455063D01*
X163765319Y-72470000D01*
X163829999Y-72475659D01*
X163830000Y-72475659D01*
X163830001Y-72475659D01*
X163894681Y-72470000D01*
X164065408Y-72455063D01*
X164293663Y-72393903D01*
X164507830Y-72294035D01*
X164701401Y-72158495D01*
X164868495Y-71991401D01*
X164998425Y-71805842D01*
X165053002Y-71762217D01*
X165122500Y-71755023D01*
X165184855Y-71786546D01*
X165201575Y-71805842D01*
X165331500Y-71991395D01*
X165331505Y-71991401D01*
X165498599Y-72158495D01*
X165518445Y-72172391D01*
X165692165Y-72294032D01*
X165692167Y-72294033D01*
X165692170Y-72294035D01*
X165906337Y-72393903D01*
X166134592Y-72455063D01*
X166305319Y-72470000D01*
X166369999Y-72475659D01*
X166370000Y-72475659D01*
X166370001Y-72475659D01*
X166434681Y-72470000D01*
X166605408Y-72455063D01*
X166833663Y-72393903D01*
X167047830Y-72294035D01*
X167241401Y-72158495D01*
X167408495Y-71991401D01*
X167538425Y-71805842D01*
X167593002Y-71762217D01*
X167662500Y-71755023D01*
X167724855Y-71786546D01*
X167741575Y-71805842D01*
X167871500Y-71991395D01*
X167871505Y-71991401D01*
X168038599Y-72158495D01*
X168058445Y-72172391D01*
X168232165Y-72294032D01*
X168232167Y-72294033D01*
X168232170Y-72294035D01*
X168446337Y-72393903D01*
X168674592Y-72455063D01*
X168845319Y-72470000D01*
X168909999Y-72475659D01*
X168910000Y-72475659D01*
X168910001Y-72475659D01*
X168974681Y-72470000D01*
X169145408Y-72455063D01*
X169373663Y-72393903D01*
X169587830Y-72294035D01*
X169781401Y-72158495D01*
X169948495Y-71991401D01*
X170078425Y-71805842D01*
X170133002Y-71762217D01*
X170202500Y-71755023D01*
X170264855Y-71786546D01*
X170281575Y-71805842D01*
X170411501Y-71991396D01*
X170411506Y-71991402D01*
X170413181Y-71993077D01*
X170413682Y-71993995D01*
X170414982Y-71995544D01*
X170414670Y-71995805D01*
X170446666Y-72054400D01*
X170449500Y-72080758D01*
X170449500Y-73758544D01*
X170474876Y-73886117D01*
X170487946Y-73951827D01*
X170487949Y-73951837D01*
X170563364Y-74133907D01*
X170563371Y-74133920D01*
X170672859Y-74297780D01*
X170672860Y-74297781D01*
X170672861Y-74297782D01*
X170812218Y-74437139D01*
X170812219Y-74437139D01*
X170819286Y-74444206D01*
X170819285Y-74444206D01*
X170819289Y-74444209D01*
X177804284Y-81429205D01*
X177804290Y-81429210D01*
X178033181Y-81658101D01*
X178066666Y-81719424D01*
X178069500Y-81745782D01*
X178069500Y-93805217D01*
X178049815Y-93872256D01*
X177997011Y-93918011D01*
X177927853Y-93927955D01*
X177864297Y-93898930D01*
X177857819Y-93892898D01*
X176133250Y-92168330D01*
X176133247Y-92168326D01*
X176133247Y-92168327D01*
X176126180Y-92161260D01*
X176126180Y-92161259D01*
X175986823Y-92021902D01*
X175986822Y-92021901D01*
X175986821Y-92021900D01*
X175822961Y-91912412D01*
X175822952Y-91912407D01*
X175733905Y-91875523D01*
X175694206Y-91859079D01*
X175640877Y-91836990D01*
X175640873Y-91836989D01*
X175640869Y-91836987D01*
X175544229Y-91817765D01*
X175447585Y-91798541D01*
X175447582Y-91798541D01*
X174950758Y-91798541D01*
X174883719Y-91778856D01*
X174863077Y-91762222D01*
X174861402Y-91760547D01*
X174861396Y-91760542D01*
X174675842Y-91630616D01*
X174632217Y-91576039D01*
X174625023Y-91506541D01*
X174656546Y-91444186D01*
X174675842Y-91427466D01*
X174698026Y-91411932D01*
X174861401Y-91297536D01*
X175028495Y-91130442D01*
X175164035Y-90936871D01*
X175263903Y-90722704D01*
X175325063Y-90494449D01*
X175345659Y-90259041D01*
X175325063Y-90023633D01*
X175263903Y-89795378D01*
X175164035Y-89581212D01*
X175028495Y-89387640D01*
X174906179Y-89265324D01*
X174872696Y-89204004D01*
X174877680Y-89134312D01*
X174919551Y-89078378D01*
X174950529Y-89061463D01*
X175082086Y-89012395D01*
X175082093Y-89012391D01*
X175197187Y-88926231D01*
X175197190Y-88926228D01*
X175283350Y-88811134D01*
X175283354Y-88811127D01*
X175333596Y-88676420D01*
X175333598Y-88676413D01*
X175339999Y-88616885D01*
X175340000Y-88616868D01*
X175340000Y-87969041D01*
X174423012Y-87969041D01*
X174455925Y-87912034D01*
X174490000Y-87784867D01*
X174490000Y-87653215D01*
X174455925Y-87526048D01*
X174423012Y-87469041D01*
X175340000Y-87469041D01*
X175340000Y-86821213D01*
X175339999Y-86821196D01*
X175333598Y-86761668D01*
X175333596Y-86761661D01*
X175283354Y-86626954D01*
X175283350Y-86626947D01*
X175197190Y-86511853D01*
X175197187Y-86511850D01*
X175082093Y-86425690D01*
X175082086Y-86425686D01*
X174947379Y-86375444D01*
X174947372Y-86375442D01*
X174887844Y-86369041D01*
X174240000Y-86369041D01*
X174240000Y-87286029D01*
X174182993Y-87253116D01*
X174055826Y-87219041D01*
X173924174Y-87219041D01*
X173797007Y-87253116D01*
X173740000Y-87286029D01*
X173740000Y-86369041D01*
X173092155Y-86369041D01*
X173032627Y-86375442D01*
X173032620Y-86375444D01*
X172897913Y-86425686D01*
X172897906Y-86425690D01*
X172782812Y-86511850D01*
X172782809Y-86511853D01*
X172696649Y-86626947D01*
X172696645Y-86626954D01*
X172646403Y-86761661D01*
X172646401Y-86761668D01*
X172640000Y-86821196D01*
X172640000Y-87469041D01*
X173556988Y-87469041D01*
X173524075Y-87526048D01*
X173490000Y-87653215D01*
X173490000Y-87784867D01*
X173524075Y-87912034D01*
X173556988Y-87969041D01*
X172640000Y-87969041D01*
X172640000Y-88616885D01*
X172646401Y-88676413D01*
X172646403Y-88676420D01*
X172696645Y-88811127D01*
X172696649Y-88811134D01*
X172782809Y-88926228D01*
X172782812Y-88926231D01*
X172897906Y-89012391D01*
X172897913Y-89012395D01*
X173029470Y-89061462D01*
X173085403Y-89103333D01*
X173109821Y-89168797D01*
X173094970Y-89237070D01*
X173073819Y-89265325D01*
X172951503Y-89387641D01*
X172815965Y-89581210D01*
X172815964Y-89581212D01*
X172716098Y-89795376D01*
X172716094Y-89795385D01*
X172654938Y-90023627D01*
X172654936Y-90023637D01*
X172634341Y-90259040D01*
X172634341Y-90259041D01*
X172654936Y-90494444D01*
X172654938Y-90494454D01*
X172716094Y-90722696D01*
X172716096Y-90722700D01*
X172716097Y-90722704D01*
X172806912Y-90917457D01*
X172815965Y-90936871D01*
X172815967Y-90936875D01*
X172951501Y-91130436D01*
X172951506Y-91130443D01*
X173118597Y-91297534D01*
X173118603Y-91297539D01*
X173304158Y-91427466D01*
X173347783Y-91482043D01*
X173354977Y-91551541D01*
X173323454Y-91613896D01*
X173304158Y-91630616D01*
X173118597Y-91760546D01*
X172951505Y-91927638D01*
X172815965Y-92121210D01*
X172815964Y-92121212D01*
X172716098Y-92335376D01*
X172716094Y-92335385D01*
X172654938Y-92563627D01*
X172654936Y-92563637D01*
X172634341Y-92799040D01*
X172634341Y-92799041D01*
X172654936Y-93034444D01*
X172654938Y-93034454D01*
X172716094Y-93262696D01*
X172716096Y-93262700D01*
X172716097Y-93262704D01*
X172734617Y-93302420D01*
X172815965Y-93476871D01*
X172815967Y-93476875D01*
X172888107Y-93579901D01*
X172951505Y-93670442D01*
X173118599Y-93837536D01*
X173197664Y-93892898D01*
X173312165Y-93973073D01*
X173312167Y-93973074D01*
X173312170Y-93973076D01*
X173526337Y-94072944D01*
X173754592Y-94134104D01*
X173942918Y-94150580D01*
X173989999Y-94154700D01*
X173990000Y-94154700D01*
X173990001Y-94154700D01*
X174029234Y-94151267D01*
X174225408Y-94134104D01*
X174453663Y-94072944D01*
X174667830Y-93973076D01*
X174841583Y-93851412D01*
X174907789Y-93829086D01*
X174975556Y-93846096D01*
X175000387Y-93865307D01*
X176763181Y-95628101D01*
X176796666Y-95689424D01*
X176799500Y-95715782D01*
X176799500Y-98594217D01*
X176779815Y-98661256D01*
X176763181Y-98681898D01*
X174897426Y-100547652D01*
X174836103Y-100581137D01*
X174766411Y-100576153D01*
X174738622Y-100561546D01*
X174701590Y-100535616D01*
X174657965Y-100481039D01*
X174650771Y-100411541D01*
X174682294Y-100349186D01*
X174701590Y-100332466D01*
X174754554Y-100295380D01*
X174887149Y-100202536D01*
X175054243Y-100035442D01*
X175189783Y-99841871D01*
X175289651Y-99627704D01*
X175350811Y-99399449D01*
X175371407Y-99164041D01*
X175350811Y-98928633D01*
X175289651Y-98700378D01*
X175189783Y-98486212D01*
X175179576Y-98471635D01*
X175054244Y-98292641D01*
X175025510Y-98263907D01*
X174931927Y-98170324D01*
X174898444Y-98109004D01*
X174903428Y-98039312D01*
X174945299Y-97983378D01*
X174976277Y-97966463D01*
X175107834Y-97917395D01*
X175107841Y-97917391D01*
X175222935Y-97831231D01*
X175222938Y-97831228D01*
X175309098Y-97716134D01*
X175309102Y-97716127D01*
X175359344Y-97581420D01*
X175359346Y-97581413D01*
X175365747Y-97521885D01*
X175365748Y-97521868D01*
X175365748Y-96874041D01*
X174448760Y-96874041D01*
X174481673Y-96817034D01*
X174515748Y-96689867D01*
X174515748Y-96558215D01*
X174481673Y-96431048D01*
X174448760Y-96374041D01*
X175365748Y-96374041D01*
X175365748Y-95726213D01*
X175365747Y-95726196D01*
X175359346Y-95666668D01*
X175359344Y-95666661D01*
X175309102Y-95531954D01*
X175309098Y-95531947D01*
X175222938Y-95416853D01*
X175222935Y-95416850D01*
X175107841Y-95330690D01*
X175107834Y-95330686D01*
X174973127Y-95280444D01*
X174973120Y-95280442D01*
X174913592Y-95274041D01*
X174265748Y-95274041D01*
X174265748Y-96191029D01*
X174208741Y-96158116D01*
X174081574Y-96124041D01*
X173949922Y-96124041D01*
X173822755Y-96158116D01*
X173765748Y-96191029D01*
X173765748Y-95274041D01*
X173117903Y-95274041D01*
X173058375Y-95280442D01*
X173058368Y-95280444D01*
X172923661Y-95330686D01*
X172923654Y-95330690D01*
X172808560Y-95416850D01*
X172808557Y-95416853D01*
X172722397Y-95531947D01*
X172722393Y-95531954D01*
X172672151Y-95666661D01*
X172672149Y-95666668D01*
X172665748Y-95726196D01*
X172665748Y-96374041D01*
X173582736Y-96374041D01*
X173549823Y-96431048D01*
X173515748Y-96558215D01*
X173515748Y-96689867D01*
X173549823Y-96817034D01*
X173582736Y-96874041D01*
X172665748Y-96874041D01*
X172665748Y-97521885D01*
X172672149Y-97581413D01*
X172672151Y-97581420D01*
X172722393Y-97716127D01*
X172722397Y-97716134D01*
X172808557Y-97831228D01*
X172808560Y-97831231D01*
X172923654Y-97917391D01*
X172923661Y-97917395D01*
X173055218Y-97966462D01*
X173111151Y-98008333D01*
X173135569Y-98073797D01*
X173120718Y-98142070D01*
X173099567Y-98170325D01*
X172977251Y-98292641D01*
X172841713Y-98486210D01*
X172841712Y-98486212D01*
X172741846Y-98700376D01*
X172741842Y-98700385D01*
X172680686Y-98928627D01*
X172680684Y-98928637D01*
X172660089Y-99164040D01*
X172660089Y-99164041D01*
X172680684Y-99399444D01*
X172680686Y-99399454D01*
X172741842Y-99627696D01*
X172741844Y-99627700D01*
X172741845Y-99627704D01*
X172793002Y-99737410D01*
X172841713Y-99841871D01*
X172841715Y-99841875D01*
X172904403Y-99931402D01*
X172967874Y-100022048D01*
X172977249Y-100035436D01*
X172977254Y-100035443D01*
X173144345Y-100202534D01*
X173144351Y-100202539D01*
X173329906Y-100332466D01*
X173373531Y-100387043D01*
X173380725Y-100456541D01*
X173349202Y-100518896D01*
X173329906Y-100535616D01*
X173144345Y-100665546D01*
X172977253Y-100832638D01*
X172841713Y-101026210D01*
X172841712Y-101026212D01*
X172741846Y-101240376D01*
X172741842Y-101240385D01*
X172680686Y-101468627D01*
X172680684Y-101468637D01*
X172660089Y-101704040D01*
X172660089Y-101704041D01*
X172680684Y-101939444D01*
X172680686Y-101939454D01*
X172741842Y-102167696D01*
X172741844Y-102167700D01*
X172741845Y-102167704D01*
X172807918Y-102309397D01*
X172841713Y-102381871D01*
X172841715Y-102381875D01*
X172932304Y-102511248D01*
X172977253Y-102575442D01*
X173144347Y-102742536D01*
X173207641Y-102786855D01*
X173337913Y-102878073D01*
X173337915Y-102878074D01*
X173337918Y-102878076D01*
X173552085Y-102977944D01*
X173780340Y-103039104D01*
X173968666Y-103055580D01*
X174015747Y-103059700D01*
X174015748Y-103059700D01*
X174015749Y-103059700D01*
X174054982Y-103056267D01*
X174251156Y-103039104D01*
X174479411Y-102977944D01*
X174693578Y-102878076D01*
X174738622Y-102846534D01*
X174804824Y-102824207D01*
X174872592Y-102841215D01*
X174897426Y-102860428D01*
X178033181Y-105996183D01*
X178066666Y-106057506D01*
X178069500Y-106083864D01*
X178069500Y-114565237D01*
X178049815Y-114632276D01*
X178033181Y-114652918D01*
X175501556Y-117184542D01*
X175440233Y-117218027D01*
X175370541Y-117213043D01*
X175324552Y-117179041D01*
X174423012Y-117179041D01*
X174455925Y-117122034D01*
X174490000Y-116994867D01*
X174490000Y-116863215D01*
X174455925Y-116736048D01*
X174423012Y-116679041D01*
X175320636Y-116679041D01*
X175320635Y-116679040D01*
X175263432Y-116465554D01*
X175263429Y-116465548D01*
X175163600Y-116251463D01*
X175163599Y-116251461D01*
X175028113Y-116057967D01*
X175028108Y-116057961D01*
X174906053Y-115935906D01*
X174872568Y-115874583D01*
X174877552Y-115804891D01*
X174919424Y-115748958D01*
X174950400Y-115732043D01*
X175080972Y-115683344D01*
X175082326Y-115682839D01*
X175082326Y-115682838D01*
X175082331Y-115682837D01*
X175197546Y-115596587D01*
X175283796Y-115481372D01*
X175334091Y-115346524D01*
X175340500Y-115286914D01*
X175340499Y-113491169D01*
X175334091Y-113431558D01*
X175290671Y-113315144D01*
X175283797Y-113296712D01*
X175283793Y-113296705D01*
X175197547Y-113181496D01*
X175197544Y-113181493D01*
X175082335Y-113095247D01*
X175082328Y-113095243D01*
X174947482Y-113044949D01*
X174947483Y-113044949D01*
X174887883Y-113038542D01*
X174887881Y-113038541D01*
X174887873Y-113038541D01*
X174887864Y-113038541D01*
X173092129Y-113038541D01*
X173092123Y-113038542D01*
X173032516Y-113044949D01*
X172897671Y-113095243D01*
X172897664Y-113095247D01*
X172782455Y-113181493D01*
X172782452Y-113181496D01*
X172696206Y-113296705D01*
X172696202Y-113296712D01*
X172645908Y-113431558D01*
X172639501Y-113491157D01*
X172639501Y-113491164D01*
X172639500Y-113491176D01*
X172639500Y-115286911D01*
X172639501Y-115286917D01*
X172645908Y-115346524D01*
X172696202Y-115481369D01*
X172696206Y-115481376D01*
X172782452Y-115596585D01*
X172782455Y-115596588D01*
X172897664Y-115682834D01*
X172897671Y-115682838D01*
X172920512Y-115691357D01*
X173029598Y-115732043D01*
X173085531Y-115773914D01*
X173109949Y-115839378D01*
X173095098Y-115907651D01*
X173073947Y-115935906D01*
X172951886Y-116057967D01*
X172816400Y-116251461D01*
X172816399Y-116251463D01*
X172716570Y-116465548D01*
X172716567Y-116465554D01*
X172659364Y-116679040D01*
X172659364Y-116679041D01*
X173556988Y-116679041D01*
X173524075Y-116736048D01*
X173490000Y-116863215D01*
X173490000Y-116994867D01*
X173524075Y-117122034D01*
X173556988Y-117179041D01*
X172659364Y-117179041D01*
X172716567Y-117392527D01*
X172716570Y-117392533D01*
X172816399Y-117606619D01*
X172951894Y-117800123D01*
X173118917Y-117967146D01*
X173312421Y-118102641D01*
X173399225Y-118143118D01*
X173451664Y-118189290D01*
X173470816Y-118256484D01*
X173450600Y-118323365D01*
X173397435Y-118368699D01*
X173346820Y-118379500D01*
X159850235Y-118379500D01*
X159783196Y-118359815D01*
X159762554Y-118343181D01*
X159025992Y-117606619D01*
X157937359Y-116517987D01*
X157903875Y-116456665D01*
X157908859Y-116386973D01*
X157950731Y-116331040D01*
X157992946Y-116310533D01*
X158033799Y-116299587D01*
X158247966Y-116199719D01*
X158441537Y-116064179D01*
X158608631Y-115897085D01*
X158738866Y-115711089D01*
X158793443Y-115667465D01*
X158862941Y-115660271D01*
X158925296Y-115691794D01*
X158942015Y-115711089D01*
X159072026Y-115896762D01*
X159239053Y-116063789D01*
X159432557Y-116199284D01*
X159646643Y-116299113D01*
X159646652Y-116299117D01*
X159860136Y-116356318D01*
X159860136Y-115458696D01*
X159917143Y-115491609D01*
X160044310Y-115525684D01*
X160175962Y-115525684D01*
X160303129Y-115491609D01*
X160360136Y-115458696D01*
X160360136Y-116356317D01*
X160573619Y-116299117D01*
X160573628Y-116299113D01*
X160787714Y-116199284D01*
X160981218Y-116063789D01*
X161148241Y-115896766D01*
X161278561Y-115710652D01*
X161333138Y-115667028D01*
X161402637Y-115659835D01*
X161464991Y-115691357D01*
X161481711Y-115710652D01*
X161612030Y-115896766D01*
X161779053Y-116063789D01*
X161972557Y-116199284D01*
X162186643Y-116299113D01*
X162186652Y-116299117D01*
X162400136Y-116356318D01*
X162400136Y-115458696D01*
X162457143Y-115491609D01*
X162584310Y-115525684D01*
X162715962Y-115525684D01*
X162843129Y-115491609D01*
X162900136Y-115458696D01*
X162900136Y-116356317D01*
X163113619Y-116299117D01*
X163113628Y-116299113D01*
X163327714Y-116199284D01*
X163521218Y-116063789D01*
X163688241Y-115896766D01*
X163818255Y-115711089D01*
X163872832Y-115667465D01*
X163942331Y-115660272D01*
X164004685Y-115691794D01*
X164021405Y-115711089D01*
X164151641Y-115897085D01*
X164318735Y-116064179D01*
X164415520Y-116131949D01*
X164512301Y-116199716D01*
X164512303Y-116199717D01*
X164512306Y-116199719D01*
X164726473Y-116299587D01*
X164726479Y-116299588D01*
X164726480Y-116299589D01*
X164772176Y-116311833D01*
X164954728Y-116360747D01*
X165131170Y-116376184D01*
X165190135Y-116381343D01*
X165190136Y-116381343D01*
X165190137Y-116381343D01*
X165249102Y-116376184D01*
X165425544Y-116360747D01*
X165653799Y-116299587D01*
X165867966Y-116199719D01*
X166061537Y-116064179D01*
X166228631Y-115897085D01*
X166358561Y-115711526D01*
X166413138Y-115667901D01*
X166482636Y-115660707D01*
X166544991Y-115692230D01*
X166561711Y-115711526D01*
X166691417Y-115896766D01*
X166691641Y-115897085D01*
X166858735Y-116064179D01*
X166955520Y-116131949D01*
X167052301Y-116199716D01*
X167052303Y-116199717D01*
X167052306Y-116199719D01*
X167266473Y-116299587D01*
X167266479Y-116299588D01*
X167266480Y-116299589D01*
X167312176Y-116311833D01*
X167494728Y-116360747D01*
X167671170Y-116376184D01*
X167730135Y-116381343D01*
X167730136Y-116381343D01*
X167730137Y-116381343D01*
X167789102Y-116376184D01*
X167965544Y-116360747D01*
X168193799Y-116299587D01*
X168407966Y-116199719D01*
X168601537Y-116064179D01*
X168723465Y-115942250D01*
X168784784Y-115908768D01*
X168854476Y-115913752D01*
X168910410Y-115955623D01*
X168927325Y-115986601D01*
X168976338Y-116118012D01*
X168976342Y-116118019D01*
X169062588Y-116233228D01*
X169062591Y-116233231D01*
X169177800Y-116319477D01*
X169177807Y-116319481D01*
X169312653Y-116369775D01*
X169312652Y-116369775D01*
X169319580Y-116370519D01*
X169372263Y-116376184D01*
X171168008Y-116376183D01*
X171227619Y-116369775D01*
X171362467Y-116319480D01*
X171477682Y-116233230D01*
X171563932Y-116118015D01*
X171614227Y-115983167D01*
X171620636Y-115923557D01*
X171620635Y-114127812D01*
X171614227Y-114068201D01*
X171613138Y-114065282D01*
X171563933Y-113933355D01*
X171563929Y-113933348D01*
X171477683Y-113818139D01*
X171477680Y-113818136D01*
X171362471Y-113731890D01*
X171362464Y-113731886D01*
X171227618Y-113681592D01*
X171227619Y-113681592D01*
X171168019Y-113675185D01*
X171168017Y-113675184D01*
X171168009Y-113675184D01*
X171168000Y-113675184D01*
X169372265Y-113675184D01*
X169372259Y-113675185D01*
X169312652Y-113681592D01*
X169177807Y-113731886D01*
X169177800Y-113731890D01*
X169062591Y-113818136D01*
X169062588Y-113818139D01*
X168976342Y-113933348D01*
X168976339Y-113933353D01*
X168927325Y-114064767D01*
X168885453Y-114120700D01*
X168819989Y-114145117D01*
X168751716Y-114130265D01*
X168723462Y-114109114D01*
X168601538Y-113987190D01*
X168601531Y-113987185D01*
X168572725Y-113967015D01*
X168562657Y-113959965D01*
X168407970Y-113851651D01*
X168407966Y-113851649D01*
X168407964Y-113851648D01*
X168193799Y-113751781D01*
X168193795Y-113751780D01*
X168193791Y-113751778D01*
X167965549Y-113690622D01*
X167965539Y-113690620D01*
X167730137Y-113670025D01*
X167730135Y-113670025D01*
X167494732Y-113690620D01*
X167494722Y-113690622D01*
X167266480Y-113751778D01*
X167266471Y-113751782D01*
X167052307Y-113851648D01*
X167052305Y-113851649D01*
X166858733Y-113987189D01*
X166691641Y-114154281D01*
X166561711Y-114339842D01*
X166507134Y-114383467D01*
X166437636Y-114390661D01*
X166375281Y-114359138D01*
X166358561Y-114339842D01*
X166228630Y-114154281D01*
X166061538Y-113987190D01*
X166061531Y-113987185D01*
X166032725Y-113967015D01*
X166022657Y-113959965D01*
X165867970Y-113851651D01*
X165867966Y-113851649D01*
X165867964Y-113851648D01*
X165653799Y-113751781D01*
X165653795Y-113751780D01*
X165653791Y-113751778D01*
X165425549Y-113690622D01*
X165425539Y-113690620D01*
X165190137Y-113670025D01*
X165190135Y-113670025D01*
X164954732Y-113690620D01*
X164954722Y-113690622D01*
X164726480Y-113751778D01*
X164726471Y-113751782D01*
X164512307Y-113851648D01*
X164512305Y-113851649D01*
X164318733Y-113987189D01*
X164151644Y-114154278D01*
X164021405Y-114340279D01*
X163966828Y-114383903D01*
X163897329Y-114391096D01*
X163834975Y-114359574D01*
X163818255Y-114340278D01*
X163688249Y-114154610D01*
X163688244Y-114154604D01*
X163521218Y-113987578D01*
X163327714Y-113852083D01*
X163113628Y-113752254D01*
X163113622Y-113752251D01*
X162900136Y-113695048D01*
X162900136Y-114592672D01*
X162843129Y-114559759D01*
X162715962Y-114525684D01*
X162584310Y-114525684D01*
X162457143Y-114559759D01*
X162400136Y-114592672D01*
X162400136Y-113695048D01*
X162400135Y-113695048D01*
X162186649Y-113752251D01*
X162186643Y-113752254D01*
X161972558Y-113852083D01*
X161972556Y-113852084D01*
X161779062Y-113987570D01*
X161779056Y-113987575D01*
X161612027Y-114154604D01*
X161612026Y-114154606D01*
X161481711Y-114340715D01*
X161427134Y-114384339D01*
X161357635Y-114391532D01*
X161295281Y-114360010D01*
X161278561Y-114340715D01*
X161148245Y-114154606D01*
X161148244Y-114154604D01*
X160981218Y-113987578D01*
X160787714Y-113852083D01*
X160573628Y-113752254D01*
X160573622Y-113752251D01*
X160360136Y-113695048D01*
X160360136Y-114592672D01*
X160303129Y-114559759D01*
X160175962Y-114525684D01*
X160044310Y-114525684D01*
X159917143Y-114559759D01*
X159860136Y-114592672D01*
X159860136Y-113695048D01*
X159860135Y-113695048D01*
X159646649Y-113752251D01*
X159646643Y-113752254D01*
X159432558Y-113852083D01*
X159432556Y-113852084D01*
X159239062Y-113987570D01*
X159239056Y-113987575D01*
X159072027Y-114154604D01*
X159072026Y-114154606D01*
X158942016Y-114340279D01*
X158887439Y-114383903D01*
X158817940Y-114391096D01*
X158755586Y-114359574D01*
X158738866Y-114340278D01*
X158608630Y-114154281D01*
X158441538Y-113987190D01*
X158441531Y-113987185D01*
X158412725Y-113967015D01*
X158402657Y-113959965D01*
X158247970Y-113851651D01*
X158247966Y-113851649D01*
X158247964Y-113851648D01*
X158033799Y-113751781D01*
X158033795Y-113751780D01*
X158033791Y-113751778D01*
X157805549Y-113690622D01*
X157805539Y-113690620D01*
X157570137Y-113670025D01*
X157570135Y-113670025D01*
X157334732Y-113690620D01*
X157334722Y-113690622D01*
X157106480Y-113751778D01*
X157106471Y-113751782D01*
X156892307Y-113851648D01*
X156892305Y-113851649D01*
X156698733Y-113987189D01*
X156531641Y-114154281D01*
X156401711Y-114339842D01*
X156347134Y-114383467D01*
X156277636Y-114390661D01*
X156215281Y-114359138D01*
X156198561Y-114339842D01*
X156068630Y-114154281D01*
X155901538Y-113987190D01*
X155901531Y-113987185D01*
X155872725Y-113967015D01*
X155862657Y-113959965D01*
X155707970Y-113851651D01*
X155707966Y-113851649D01*
X155707964Y-113851648D01*
X155493799Y-113751781D01*
X155493795Y-113751780D01*
X155493791Y-113751778D01*
X155265549Y-113690622D01*
X155265539Y-113690620D01*
X155030137Y-113670025D01*
X155030135Y-113670025D01*
X154794732Y-113690620D01*
X154794722Y-113690622D01*
X154566480Y-113751778D01*
X154566471Y-113751782D01*
X154352307Y-113851648D01*
X154352305Y-113851649D01*
X154158733Y-113987189D01*
X153991644Y-114154278D01*
X153861405Y-114340279D01*
X153806828Y-114383903D01*
X153737329Y-114391096D01*
X153674975Y-114359574D01*
X153658255Y-114340278D01*
X153528249Y-114154610D01*
X153528244Y-114154604D01*
X153361218Y-113987578D01*
X153167714Y-113852083D01*
X152953628Y-113752254D01*
X152953622Y-113752251D01*
X152740136Y-113695048D01*
X152740136Y-114592672D01*
X152683129Y-114559759D01*
X152555962Y-114525684D01*
X152424310Y-114525684D01*
X152297143Y-114559759D01*
X152240136Y-114592672D01*
X152240136Y-113695048D01*
X152240135Y-113695048D01*
X152026649Y-113752251D01*
X152026643Y-113752254D01*
X151812558Y-113852083D01*
X151812556Y-113852084D01*
X151619062Y-113987570D01*
X151619056Y-113987575D01*
X151452027Y-114154604D01*
X151452022Y-114154610D01*
X151316536Y-114348104D01*
X151316535Y-114348106D01*
X151216706Y-114562191D01*
X151216703Y-114562197D01*
X151159500Y-114775683D01*
X151159500Y-114775684D01*
X152057124Y-114775684D01*
X152024211Y-114832691D01*
X151990136Y-114959858D01*
X151990136Y-115091510D01*
X152024211Y-115218677D01*
X152057124Y-115275684D01*
X151159500Y-115275684D01*
X151216703Y-115489170D01*
X151216706Y-115489176D01*
X151316535Y-115703262D01*
X151452030Y-115896766D01*
X151619053Y-116063789D01*
X151812557Y-116199284D01*
X152026643Y-116299113D01*
X152026652Y-116299117D01*
X152240136Y-116356318D01*
X152240136Y-115458696D01*
X152297143Y-115491609D01*
X152424310Y-115525684D01*
X152555962Y-115525684D01*
X152683129Y-115491609D01*
X152740136Y-115458696D01*
X152740136Y-116356317D01*
X152953619Y-116299117D01*
X152953628Y-116299113D01*
X153167714Y-116199284D01*
X153361218Y-116063789D01*
X153528241Y-115896766D01*
X153658255Y-115711089D01*
X153712832Y-115667465D01*
X153782331Y-115660272D01*
X153844685Y-115691794D01*
X153861405Y-115711089D01*
X153991641Y-115897085D01*
X154158735Y-116064179D01*
X154255520Y-116131949D01*
X154352301Y-116199716D01*
X154352303Y-116199717D01*
X154352306Y-116199719D01*
X154566473Y-116299587D01*
X154566479Y-116299588D01*
X154566480Y-116299589D01*
X154612176Y-116311833D01*
X154794728Y-116360747D01*
X154920232Y-116371727D01*
X154985300Y-116397179D01*
X154997105Y-116407574D01*
X158607312Y-120017781D01*
X158607313Y-120017782D01*
X158746670Y-120157139D01*
X158746671Y-120157140D01*
X158910531Y-120266628D01*
X158910544Y-120266635D01*
X159039285Y-120319961D01*
X159082196Y-120337735D01*
X159092616Y-120342051D01*
X159189264Y-120361275D01*
X159237587Y-120370887D01*
X159285910Y-120380500D01*
X159285911Y-120380500D01*
X174819562Y-120380500D01*
X174838890Y-120376655D01*
X174916208Y-120361275D01*
X175012856Y-120342051D01*
X175066185Y-120319961D01*
X175194934Y-120266632D01*
X175297050Y-120198400D01*
X180859595Y-120198400D01*
X180859595Y-120450323D01*
X180899005Y-120699147D01*
X180976855Y-120938745D01*
X181091227Y-121163210D01*
X181239296Y-121367011D01*
X181239300Y-121367016D01*
X181417440Y-121545156D01*
X181417445Y-121545160D01*
X181595212Y-121674314D01*
X181621250Y-121693232D01*
X181764279Y-121766109D01*
X181845711Y-121807601D01*
X181845713Y-121807601D01*
X181845716Y-121807603D01*
X182085310Y-121885452D01*
X182334133Y-121924862D01*
X182334134Y-121924862D01*
X182586056Y-121924862D01*
X182586057Y-121924862D01*
X182834880Y-121885452D01*
X183074474Y-121807603D01*
X183298940Y-121693232D01*
X183502751Y-121545155D01*
X183680888Y-121367018D01*
X183828965Y-121163207D01*
X183943336Y-120938741D01*
X184021185Y-120699147D01*
X184060595Y-120450324D01*
X184060595Y-120198400D01*
X184021185Y-119949577D01*
X183943336Y-119709983D01*
X183943334Y-119709980D01*
X183943334Y-119709978D01*
X183901842Y-119628546D01*
X183828965Y-119485517D01*
X183685801Y-119288468D01*
X183680893Y-119281712D01*
X183680889Y-119281707D01*
X183502749Y-119103567D01*
X183502744Y-119103563D01*
X183298943Y-118955494D01*
X183298942Y-118955493D01*
X183298940Y-118955492D01*
X183228842Y-118919775D01*
X183074478Y-118841122D01*
X182834880Y-118763272D01*
X182628712Y-118730618D01*
X182586057Y-118723862D01*
X182334133Y-118723862D01*
X182291478Y-118730618D01*
X182085309Y-118763272D01*
X181845711Y-118841122D01*
X181621246Y-118955494D01*
X181417445Y-119103563D01*
X181417440Y-119103567D01*
X181239300Y-119281707D01*
X181239296Y-119281712D01*
X181091227Y-119485513D01*
X180976855Y-119709978D01*
X180899005Y-119949576D01*
X180859595Y-120198400D01*
X175297050Y-120198400D01*
X175358802Y-120157139D01*
X175498159Y-120017782D01*
X175498159Y-120017780D01*
X175508367Y-120007573D01*
X175508368Y-120007570D01*
X179847139Y-115668802D01*
X179935892Y-115535973D01*
X179956632Y-115504934D01*
X180020355Y-115351092D01*
X180032051Y-115322856D01*
X180070500Y-115129561D01*
X180070500Y-114932480D01*
X180070500Y-105519541D01*
X180048711Y-105410000D01*
X180032051Y-105326246D01*
X180021507Y-105300790D01*
X180006721Y-105265094D01*
X180006709Y-105265067D01*
X179956635Y-105144174D01*
X179956633Y-105144170D01*
X179956632Y-105144168D01*
X179877189Y-105025273D01*
X179847139Y-104980299D01*
X179704686Y-104837846D01*
X179704655Y-104837817D01*
X176658560Y-101791722D01*
X176625075Y-101730399D01*
X176630059Y-101660707D01*
X176658560Y-101616360D01*
X177572797Y-100702123D01*
X178577140Y-99697781D01*
X178577141Y-99697779D01*
X178584201Y-99690719D01*
X178584207Y-99690712D01*
X179707778Y-98567141D01*
X179707782Y-98567139D01*
X179847139Y-98427782D01*
X179956632Y-98263914D01*
X179987361Y-98189728D01*
X180012380Y-98129327D01*
X180032049Y-98081840D01*
X180032051Y-98081836D01*
X180070500Y-97888540D01*
X180070500Y-97691460D01*
X180070500Y-81384675D01*
X180070501Y-81384654D01*
X180070501Y-81310565D01*
X180071098Y-81298411D01*
X180072646Y-81282694D01*
X180071098Y-81266976D01*
X180070501Y-81254823D01*
X180070501Y-81181460D01*
X180056184Y-81109489D01*
X180054404Y-81097484D01*
X180053329Y-81086563D01*
X180053327Y-81086556D01*
X180050146Y-81076069D01*
X180047191Y-81064278D01*
X180032052Y-80988165D01*
X180002355Y-80916472D01*
X179998260Y-80905026D01*
X179996119Y-80897968D01*
X179992647Y-80891473D01*
X179987445Y-80880478D01*
X179956632Y-80806086D01*
X179911903Y-80739144D01*
X179905645Y-80728703D01*
X179903215Y-80724157D01*
X179899945Y-80720173D01*
X179892697Y-80710400D01*
X179847140Y-80642219D01*
X179789145Y-80584224D01*
X179780983Y-80575218D01*
X179778186Y-80571810D01*
X179774780Y-80569015D01*
X179765763Y-80560842D01*
X179219210Y-80014290D01*
X179219208Y-80014287D01*
X173373481Y-74168560D01*
X180832556Y-74168560D01*
X180832556Y-74420483D01*
X180871966Y-74669307D01*
X180949816Y-74908905D01*
X181017864Y-75042455D01*
X181047055Y-75099746D01*
X181064188Y-75133370D01*
X181212257Y-75337171D01*
X181212261Y-75337176D01*
X181390401Y-75515316D01*
X181390406Y-75515320D01*
X181563230Y-75640883D01*
X181594211Y-75663392D01*
X181732934Y-75734075D01*
X181818672Y-75777761D01*
X181818674Y-75777761D01*
X181818677Y-75777763D01*
X182058271Y-75855612D01*
X182307094Y-75895022D01*
X182307095Y-75895022D01*
X182559017Y-75895022D01*
X182559018Y-75895022D01*
X182807841Y-75855612D01*
X183047435Y-75777763D01*
X183271901Y-75663392D01*
X183475712Y-75515315D01*
X183653849Y-75337178D01*
X183801926Y-75133367D01*
X183916297Y-74908901D01*
X183994146Y-74669307D01*
X184033556Y-74420484D01*
X184033556Y-74168560D01*
X183994146Y-73919737D01*
X183916297Y-73680143D01*
X183916295Y-73680140D01*
X183916295Y-73680138D01*
X183855825Y-73561460D01*
X183801926Y-73455677D01*
X183734766Y-73363239D01*
X183653854Y-73251872D01*
X183653850Y-73251867D01*
X183475710Y-73073727D01*
X183475705Y-73073723D01*
X183271904Y-72925654D01*
X183271903Y-72925653D01*
X183271901Y-72925652D01*
X183201803Y-72889935D01*
X183047439Y-72811282D01*
X182807841Y-72733432D01*
X182559018Y-72694022D01*
X182307094Y-72694022D01*
X182182682Y-72713727D01*
X182058270Y-72733432D01*
X181818672Y-72811282D01*
X181594207Y-72925654D01*
X181390406Y-73073723D01*
X181390401Y-73073727D01*
X181212261Y-73251867D01*
X181212257Y-73251872D01*
X181064188Y-73455673D01*
X180949816Y-73680138D01*
X180871966Y-73919736D01*
X180832556Y-74168560D01*
X173373481Y-74168560D01*
X172486819Y-73281898D01*
X172453334Y-73220575D01*
X172450500Y-73194217D01*
X172450500Y-72239430D01*
X172470185Y-72172391D01*
X172522989Y-72126636D01*
X172592147Y-72116692D01*
X172655703Y-72145717D01*
X172690682Y-72196097D01*
X172696645Y-72212086D01*
X172696649Y-72212093D01*
X172782809Y-72327187D01*
X172782812Y-72327190D01*
X172897906Y-72413350D01*
X172897913Y-72413354D01*
X173032620Y-72463596D01*
X173032627Y-72463598D01*
X173092155Y-72469999D01*
X173092172Y-72470000D01*
X173740000Y-72470000D01*
X173740000Y-71553012D01*
X173797007Y-71585925D01*
X173924174Y-71620000D01*
X174055826Y-71620000D01*
X174182993Y-71585925D01*
X174240000Y-71553012D01*
X174240000Y-72470000D01*
X174887828Y-72470000D01*
X174887844Y-72469999D01*
X174947372Y-72463598D01*
X174947379Y-72463596D01*
X175082086Y-72413354D01*
X175082093Y-72413350D01*
X175197187Y-72327190D01*
X175197190Y-72327187D01*
X175283350Y-72212093D01*
X175283354Y-72212086D01*
X175333596Y-72077379D01*
X175333598Y-72077372D01*
X175339999Y-72017844D01*
X175340000Y-72017827D01*
X175340000Y-71370000D01*
X174423012Y-71370000D01*
X174455925Y-71312993D01*
X174490000Y-71185826D01*
X174490000Y-71054174D01*
X174455925Y-70927007D01*
X174423012Y-70870000D01*
X175340000Y-70870000D01*
X175340000Y-70222172D01*
X175339999Y-70222155D01*
X175333598Y-70162627D01*
X175333596Y-70162620D01*
X175283354Y-70027913D01*
X175283350Y-70027906D01*
X175197190Y-69912812D01*
X175197187Y-69912809D01*
X175082093Y-69826649D01*
X175082086Y-69826645D01*
X174947379Y-69776403D01*
X174947372Y-69776401D01*
X174887844Y-69770000D01*
X174240000Y-69770000D01*
X174240000Y-70686988D01*
X174182993Y-70654075D01*
X174055826Y-70620000D01*
X173924174Y-70620000D01*
X173797007Y-70654075D01*
X173740000Y-70686988D01*
X173740000Y-69770000D01*
X173092155Y-69770000D01*
X173032627Y-69776401D01*
X173032620Y-69776403D01*
X172897913Y-69826645D01*
X172897906Y-69826649D01*
X172782812Y-69912809D01*
X172782809Y-69912812D01*
X172696649Y-70027906D01*
X172696645Y-70027913D01*
X172647578Y-70159470D01*
X172605707Y-70215404D01*
X172540242Y-70239821D01*
X172471969Y-70224969D01*
X172443715Y-70203819D01*
X172389532Y-70149636D01*
X172321401Y-70081505D01*
X172321397Y-70081502D01*
X172321396Y-70081501D01*
X172127834Y-69945967D01*
X172127830Y-69945965D01*
X172056727Y-69912809D01*
X171913663Y-69846097D01*
X171913659Y-69846096D01*
X171913655Y-69846094D01*
X171685413Y-69784938D01*
X171685403Y-69784936D01*
X171450001Y-69764341D01*
X171449998Y-69764341D01*
X171302007Y-69777288D01*
X171233507Y-69763521D01*
X171203519Y-69741441D01*
X170259840Y-68797761D01*
X170226355Y-68736438D01*
X170231339Y-68666746D01*
X170273211Y-68610813D01*
X170338675Y-68586396D01*
X170347521Y-68586080D01*
X185510537Y-68586080D01*
X185577576Y-68605765D01*
X185623331Y-68658569D01*
X185634537Y-68710080D01*
X185634537Y-124336000D01*
X185614852Y-124403039D01*
X185562048Y-124448794D01*
X185510537Y-124460000D01*
X112490112Y-124460000D01*
X112423073Y-124440315D01*
X112377318Y-124387511D01*
X112366112Y-124336000D01*
X112366112Y-120205156D01*
X113812464Y-120205156D01*
X113812464Y-120457079D01*
X113851874Y-120705903D01*
X113929724Y-120945501D01*
X114008377Y-121099865D01*
X114040653Y-121163210D01*
X114044096Y-121169966D01*
X114192165Y-121373767D01*
X114192169Y-121373772D01*
X114370309Y-121551912D01*
X114370314Y-121551916D01*
X114548081Y-121681070D01*
X114574119Y-121699988D01*
X114717148Y-121772865D01*
X114798580Y-121814357D01*
X114798582Y-121814357D01*
X114798585Y-121814359D01*
X115038179Y-121892208D01*
X115287002Y-121931618D01*
X115287003Y-121931618D01*
X115538925Y-121931618D01*
X115538926Y-121931618D01*
X115787749Y-121892208D01*
X116027343Y-121814359D01*
X116251809Y-121699988D01*
X116455620Y-121551911D01*
X116633757Y-121373774D01*
X116781834Y-121169963D01*
X116896205Y-120945497D01*
X116974054Y-120705903D01*
X117013464Y-120457080D01*
X117013464Y-120205156D01*
X116974054Y-119956333D01*
X116896205Y-119716739D01*
X116896203Y-119716736D01*
X116896203Y-119716734D01*
X116854711Y-119635302D01*
X116781834Y-119492273D01*
X116762916Y-119466235D01*
X116633762Y-119288468D01*
X116633758Y-119288463D01*
X116455618Y-119110323D01*
X116455613Y-119110319D01*
X116251812Y-118962250D01*
X116251811Y-118962249D01*
X116251809Y-118962248D01*
X116181711Y-118926531D01*
X116027347Y-118847878D01*
X115787749Y-118770028D01*
X115538926Y-118730618D01*
X115287002Y-118730618D01*
X115162590Y-118750323D01*
X115038178Y-118770028D01*
X114798580Y-118847878D01*
X114574115Y-118962250D01*
X114370314Y-119110319D01*
X114370309Y-119110323D01*
X114192169Y-119288463D01*
X114192165Y-119288468D01*
X114044096Y-119492269D01*
X113929724Y-119716734D01*
X113851874Y-119956332D01*
X113812464Y-120205156D01*
X112366112Y-120205156D01*
X112366112Y-114754999D01*
X112974364Y-114754999D01*
X112974364Y-114755000D01*
X113871988Y-114755000D01*
X113839075Y-114812007D01*
X113805000Y-114939174D01*
X113805000Y-115070826D01*
X113839075Y-115197993D01*
X113871988Y-115255000D01*
X112974364Y-115255000D01*
X113031567Y-115468486D01*
X113031570Y-115468492D01*
X113131399Y-115682578D01*
X113266894Y-115876082D01*
X113433917Y-116043105D01*
X113627421Y-116178600D01*
X113841507Y-116278429D01*
X113841516Y-116278433D01*
X114055000Y-116335634D01*
X114055000Y-115438012D01*
X114112007Y-115470925D01*
X114239174Y-115505000D01*
X114370826Y-115505000D01*
X114497993Y-115470925D01*
X114555000Y-115438012D01*
X114555000Y-116335633D01*
X114768483Y-116278433D01*
X114768492Y-116278429D01*
X114982578Y-116178600D01*
X115176078Y-116043108D01*
X115298133Y-115921053D01*
X115359456Y-115887568D01*
X115429148Y-115892552D01*
X115485082Y-115934423D01*
X115501997Y-115965401D01*
X115551202Y-116097328D01*
X115551206Y-116097335D01*
X115637452Y-116212544D01*
X115637455Y-116212547D01*
X115752664Y-116298793D01*
X115752671Y-116298797D01*
X115887517Y-116349091D01*
X115887516Y-116349091D01*
X115894444Y-116349835D01*
X115947127Y-116355500D01*
X117742872Y-116355499D01*
X117802483Y-116349091D01*
X117937331Y-116298796D01*
X118052546Y-116212546D01*
X118138796Y-116097331D01*
X118189091Y-115962483D01*
X118195500Y-115902873D01*
X118195499Y-114107128D01*
X118189091Y-114047517D01*
X118188002Y-114044598D01*
X118138797Y-113912671D01*
X118138793Y-113912664D01*
X118052547Y-113797455D01*
X118052544Y-113797452D01*
X117937335Y-113711206D01*
X117937328Y-113711202D01*
X117802482Y-113660908D01*
X117802483Y-113660908D01*
X117742883Y-113654501D01*
X117742881Y-113654500D01*
X117742873Y-113654500D01*
X117742864Y-113654500D01*
X115947129Y-113654500D01*
X115947123Y-113654501D01*
X115887516Y-113660908D01*
X115752671Y-113711202D01*
X115752664Y-113711206D01*
X115637455Y-113797452D01*
X115637452Y-113797455D01*
X115551206Y-113912664D01*
X115551202Y-113912671D01*
X115501997Y-114044598D01*
X115460126Y-114100532D01*
X115394661Y-114124949D01*
X115326388Y-114110097D01*
X115298134Y-114088946D01*
X115176082Y-113966894D01*
X114982578Y-113831399D01*
X114768492Y-113731570D01*
X114768486Y-113731567D01*
X114555000Y-113674364D01*
X114555000Y-114571988D01*
X114497993Y-114539075D01*
X114370826Y-114505000D01*
X114239174Y-114505000D01*
X114112007Y-114539075D01*
X114055000Y-114571988D01*
X114055000Y-113674364D01*
X114054999Y-113674364D01*
X113841513Y-113731567D01*
X113841507Y-113731570D01*
X113627422Y-113831399D01*
X113627420Y-113831400D01*
X113433926Y-113966886D01*
X113433920Y-113966891D01*
X113266891Y-114133920D01*
X113266886Y-114133926D01*
X113131400Y-114327420D01*
X113131399Y-114327422D01*
X113031570Y-114541507D01*
X113031567Y-114541513D01*
X112974364Y-114754999D01*
X112366112Y-114754999D01*
X112366112Y-74134939D01*
X113774833Y-74134939D01*
X113774833Y-74386862D01*
X113814243Y-74635686D01*
X113892093Y-74875284D01*
X113970746Y-75029648D01*
X113991017Y-75069432D01*
X114006465Y-75099749D01*
X114154534Y-75303550D01*
X114154538Y-75303555D01*
X114332678Y-75481695D01*
X114332683Y-75481699D01*
X114465523Y-75578212D01*
X114536488Y-75629771D01*
X114674320Y-75700000D01*
X114760949Y-75744140D01*
X114760951Y-75744140D01*
X114760954Y-75744142D01*
X115000548Y-75821991D01*
X115249371Y-75861401D01*
X115249372Y-75861401D01*
X115501294Y-75861401D01*
X115501295Y-75861401D01*
X115750118Y-75821991D01*
X115989712Y-75744142D01*
X116214178Y-75629771D01*
X116417989Y-75481694D01*
X116596126Y-75303557D01*
X116744203Y-75099746D01*
X116858574Y-74875280D01*
X116936423Y-74635686D01*
X116975833Y-74386863D01*
X116975833Y-74134939D01*
X116936423Y-73886116D01*
X116858574Y-73646522D01*
X116858572Y-73646519D01*
X116858572Y-73646517D01*
X116814809Y-73560629D01*
X116744203Y-73422056D01*
X116701470Y-73363239D01*
X116596131Y-73218251D01*
X116596127Y-73218246D01*
X116417987Y-73040106D01*
X116417982Y-73040102D01*
X116214181Y-72892033D01*
X116214180Y-72892032D01*
X116214178Y-72892031D01*
X116144080Y-72856314D01*
X115989716Y-72777661D01*
X115750118Y-72699811D01*
X115713568Y-72694022D01*
X115501295Y-72660401D01*
X115249371Y-72660401D01*
X115124959Y-72680106D01*
X115000547Y-72699811D01*
X114760949Y-72777661D01*
X114536484Y-72892033D01*
X114332683Y-73040102D01*
X114332678Y-73040106D01*
X114154538Y-73218246D01*
X114154534Y-73218251D01*
X114006465Y-73422052D01*
X113892093Y-73646517D01*
X113814243Y-73886115D01*
X113774833Y-74134939D01*
X112366112Y-74134939D01*
X112366112Y-68710080D01*
X112385797Y-68643041D01*
X112438601Y-68597286D01*
X112490112Y-68586080D01*
X123022480Y-68586080D01*
X123089519Y-68605765D01*
G37*
%TD.AperFunction*%
%TA.AperFunction,Conductor*%
G36*
X162184211Y-114832691D02*
G01*
X162150136Y-114959858D01*
X162150136Y-115091510D01*
X162184211Y-115218677D01*
X162217124Y-115275684D01*
X160543148Y-115275684D01*
X160576061Y-115218677D01*
X160610136Y-115091510D01*
X160610136Y-114959858D01*
X160576061Y-114832691D01*
X160543148Y-114775684D01*
X162217124Y-114775684D01*
X162184211Y-114832691D01*
G37*
%TD.AperFunction*%
%TD*%
M02*
