M48
; DRILL file {KiCad 8.0.4} date 2025-01-29T09:39:37+0100
; FORMAT={-:-/ absolute / inch / decimal}
; #@! TF.CreationDate,2025-01-29T09:39:37+01:00
; #@! TF.GenerationSoftware,Kicad,Pcbnew,8.0.4
; #@! TF.FileFunction,Plated,1,2,PTH
FMAT,2
INCH
; #@! TA.AperFunction,Plated,PTH,ViaDrill
T1C0.0197
; #@! TA.AperFunction,Plated,PTH,ViaDrill
T2C0.0276
; #@! TA.AperFunction,Plated,PTH,ComponentDrill
T3C0.0394
%
G90
G05
T1
X4.55Y-3.35
X4.55Y-3.85
X4.6265Y-3.1121
X4.6623Y-3.1623
X4.7Y-3.2611
X4.7021Y-3.3258
X4.7534Y-4.0332
X4.8Y-3.4
X4.8167Y-3.1741
X4.85Y-2.95
X5.1Y-3.05
X5.1Y-3.3521
X5.45Y-2.9084
X5.6154Y-4.15
X5.65Y-3.9
X5.7Y-3.95
X5.9081Y-3.8824
X6.0952Y-4.1772
X6.1673Y-4.1691
X6.5Y-3.35
X7.0499Y-3.2001
T2
X4.8599Y-4.0651
X4.9729Y-3.8992
X5.0449Y-3.6
X5.05Y-3.9
X5.1166Y-3.7916
X5.1253Y-3.8992
X5.3407Y-3.4746
X5.4411Y-3.4746
X5.95Y-3.3
X6.05Y-3.3
X6.1259Y-3.9012
X6.1497Y-4.3997
X6.1812Y-3.9568
X6.2161Y-4.4
X6.35Y-3.8
X6.35Y-4.3
X6.35Y-4.4
X6.4Y-3.75
X6.6196Y-3.2014
X6.7Y-3.2
T3
X4.5002Y-4.5278
X4.6002Y-4.5278
X4.8Y-4.5268
X4.85Y-3.6
X4.85Y-3.7
X4.85Y-3.8
X4.9Y-4.5268
X4.95Y-2.8
X5.0Y-4.5268
X5.05Y-2.8
X5.15Y-2.8
X5.1535Y-4.5278
X5.2Y-3.0
X5.2Y-3.6
X5.25Y-2.8
X5.2535Y-4.5278
X5.3Y-3.0
X5.3Y-3.6
X5.35Y-2.8
X5.3535Y-4.5278
X5.4Y-3.0
X5.4Y-3.6
X5.45Y-2.8
X5.5Y-3.0
X5.5Y-3.6
X5.5037Y-4.5286
X5.55Y-2.8
X5.55Y-3.9
X5.55Y-4.0
X5.6Y-3.0
X5.6Y-3.6
X5.6037Y-4.5286
X5.65Y-2.8
X5.7Y-3.0
X5.7Y-3.6
X5.75Y-2.8
X5.7537Y-4.5286
X5.8Y-3.0
X5.8Y-3.6
X5.85Y-2.8
X5.8537Y-4.5286
X5.9Y-3.0
X5.9Y-3.6
X5.95Y-2.8
X6.0Y-3.0
X6.0Y-3.6
X6.0035Y-4.5286
X6.05Y-2.8
X6.1Y-3.0
X6.1Y-3.6
X6.1035Y-4.5286
X6.15Y-2.8
X6.2Y-3.0
X6.2Y-3.6
X6.2035Y-4.5286
X6.25Y-2.8
X6.3Y-3.0
X6.3Y-3.6
X6.3035Y-4.5286
X6.35Y-2.8
X6.4Y-3.0
X6.4Y-3.6
X6.4035Y-4.5286
X6.45Y-2.8
X6.5Y-3.0
X6.5Y-3.6
X6.5035Y-4.5286
X6.55Y-2.8
X6.6Y-3.0
X6.6Y-3.6
X6.6035Y-4.5286
X6.65Y-2.8
X6.7035Y-4.5286
X6.75Y-2.8
X6.85Y-2.8
X6.85Y-3.4535
X6.85Y-3.5535
X6.85Y-3.6535
X6.85Y-4.5035
X6.85Y-4.6035
X6.851Y-3.8041
X6.851Y-3.9041
X6.851Y-4.0041
X6.8524Y-4.1506
X6.8524Y-4.2506
X6.8524Y-4.3506
M30
