%TF.GenerationSoftware,KiCad,Pcbnew,8.0.4*%
%TF.CreationDate,2025-01-29T09:39:19+01:00*%
%TF.ProjectId,DA_Sender,44415f53-656e-4646-9572-2e6b69636164,rev?*%
%TF.SameCoordinates,Original*%
%TF.FileFunction,Soldermask,Top*%
%TF.FilePolarity,Negative*%
%FSLAX46Y46*%
G04 Gerber Fmt 4.6, Leading zero omitted, Abs format (unit mm)*
G04 Created by KiCad (PCBNEW 8.0.4) date 2025-01-29 09:39:19*
%MOMM*%
%LPD*%
G01*
G04 APERTURE LIST*
G04 Aperture macros list*
%AMRoundRect*
0 Rectangle with rounded corners*
0 $1 Rounding radius*
0 $2 $3 $4 $5 $6 $7 $8 $9 X,Y pos of 4 corners*
0 Add a 4 corners polygon primitive as box body*
4,1,4,$2,$3,$4,$5,$6,$7,$8,$9,$2,$3,0*
0 Add four circle primitives for the rounded corners*
1,1,$1+$1,$2,$3*
1,1,$1+$1,$4,$5*
1,1,$1+$1,$6,$7*
1,1,$1+$1,$8,$9*
0 Add four rect primitives between the rounded corners*
20,1,$1+$1,$2,$3,$4,$5,0*
20,1,$1+$1,$4,$5,$6,$7,0*
20,1,$1+$1,$6,$7,$8,$9,0*
20,1,$1+$1,$8,$9,$2,$3,0*%
G04 Aperture macros list end*
%ADD10RoundRect,0.250000X0.450000X-0.262500X0.450000X0.262500X-0.450000X0.262500X-0.450000X-0.262500X0*%
%ADD11RoundRect,0.250000X0.475000X-0.250000X0.475000X0.250000X-0.475000X0.250000X-0.475000X-0.250000X0*%
%ADD12RoundRect,0.250000X0.787500X1.025000X-0.787500X1.025000X-0.787500X-1.025000X0.787500X-1.025000X0*%
%ADD13RoundRect,0.250000X-0.450000X0.262500X-0.450000X-0.262500X0.450000X-0.262500X0.450000X0.262500X0*%
%ADD14RoundRect,0.250000X-0.262500X-0.450000X0.262500X-0.450000X0.262500X0.450000X-0.262500X0.450000X0*%
%ADD15C,2.700000*%
%ADD16R,1.700000X1.700000*%
%ADD17O,1.700000X1.700000*%
%ADD18R,1.600000X1.600000*%
%ADD19O,1.600000X1.600000*%
%ADD20RoundRect,0.162500X-0.447500X-0.162500X0.447500X-0.162500X0.447500X0.162500X-0.447500X0.162500X0*%
%ADD21RoundRect,0.250000X-1.025000X0.787500X-1.025000X-0.787500X1.025000X-0.787500X1.025000X0.787500X0*%
%ADD22RoundRect,0.250000X0.262500X0.450000X-0.262500X0.450000X-0.262500X-0.450000X0.262500X-0.450000X0*%
%ADD23RoundRect,0.150000X0.825000X0.150000X-0.825000X0.150000X-0.825000X-0.150000X0.825000X-0.150000X0*%
%ADD24RoundRect,0.250000X0.250000X0.475000X-0.250000X0.475000X-0.250000X-0.475000X0.250000X-0.475000X0*%
G04 APERTURE END LIST*
D10*
%TO.C,R4*%
X123190000Y-78382500D03*
X123190000Y-76557500D03*
%TD*%
D11*
%TO.C,C3*%
X130946565Y-110976808D03*
X130946565Y-109076808D03*
%TD*%
D12*
%TO.C,C6*%
X152972500Y-110103448D03*
X146747500Y-110103448D03*
%TD*%
D13*
%TO.C,R11*%
X128270000Y-94343191D03*
X128270000Y-96168191D03*
%TD*%
D14*
%TO.C,R12*%
X141730897Y-94060870D03*
X143555897Y-94060870D03*
%TD*%
D15*
%TO.C,J7*%
X182460095Y-120324362D03*
%TD*%
D16*
%TO.C,SW3*%
X123190000Y-96520000D03*
D17*
X123190000Y-93980000D03*
X123190000Y-91440000D03*
%TD*%
D16*
%TO.C,J4*%
X116845000Y-115005000D03*
D17*
X114305000Y-115005000D03*
%TD*%
D15*
%TO.C,J9*%
X115375333Y-74260901D03*
%TD*%
D17*
%TO.C,J2*%
X139795136Y-115025684D03*
D16*
X142335136Y-115025684D03*
%TD*%
D18*
%TO.C,A1*%
X167640000Y-76200000D03*
D19*
X165100000Y-76200000D03*
X162560000Y-76200000D03*
X160020000Y-76200000D03*
X157480000Y-76200000D03*
X154940000Y-76200000D03*
X152400000Y-76200000D03*
X149860000Y-76200000D03*
X147320000Y-76200000D03*
X144780000Y-76200000D03*
X142240000Y-76200000D03*
X139700000Y-76200000D03*
X137160000Y-76200000D03*
X134620000Y-76200000D03*
X132080000Y-76200000D03*
X132080000Y-91440000D03*
X134620000Y-91440000D03*
X137160000Y-91440000D03*
X139700000Y-91440000D03*
X142240000Y-91440000D03*
X144780000Y-91440000D03*
X147320000Y-91440000D03*
X149860000Y-91440000D03*
X152400000Y-91440000D03*
X154940000Y-91440000D03*
X157480000Y-91440000D03*
X160020000Y-91440000D03*
X162560000Y-91440000D03*
X165100000Y-91440000D03*
X167640000Y-91440000D03*
%TD*%
D20*
%TO.C,Q1*%
X135850000Y-94300000D03*
X135850000Y-96200000D03*
X138470000Y-95250000D03*
%TD*%
D15*
%TO.C,J8*%
X182433056Y-74294522D03*
%TD*%
D13*
%TO.C,R3*%
X149860000Y-94337500D03*
X149860000Y-96162500D03*
%TD*%
D15*
%TO.C,J6*%
X115412964Y-120331118D03*
%TD*%
D13*
%TO.C,R2*%
X152400000Y-94337500D03*
X152400000Y-96162500D03*
%TD*%
D21*
%TO.C,C7*%
X174458202Y-74961452D03*
X174458202Y-81186452D03*
%TD*%
D22*
%TO.C,R13*%
X138282029Y-98283599D03*
X136457029Y-98283599D03*
%TD*%
D13*
%TO.C,R10*%
X131694050Y-94391482D03*
X131694050Y-96216482D03*
%TD*%
D16*
%TO.C,SW5*%
X148685136Y-115025684D03*
D17*
X146145136Y-115025684D03*
%TD*%
D10*
%TO.C,R9*%
X170180000Y-105052500D03*
X170180000Y-103227500D03*
%TD*%
D16*
%TO.C,SW1*%
X174050720Y-105425000D03*
D17*
X174050720Y-107965000D03*
X174050720Y-110505000D03*
%TD*%
D23*
%TO.C,U1*%
X128341565Y-110918464D03*
X128341565Y-109648464D03*
X128341565Y-108378464D03*
X128341565Y-107108464D03*
X123391565Y-107108464D03*
X123391565Y-108378464D03*
X123391565Y-109648464D03*
X123391565Y-110918464D03*
%TD*%
D13*
%TO.C,R14*%
X133884585Y-94309664D03*
X133884585Y-96134664D03*
%TD*%
D10*
%TO.C,R7*%
X115616656Y-79960430D03*
X115616656Y-78135430D03*
%TD*%
D11*
%TO.C,C1*%
X120721565Y-106153464D03*
X120721565Y-104253464D03*
%TD*%
D10*
%TO.C,R6*%
X115570000Y-83462500D03*
X115570000Y-81637500D03*
%TD*%
D14*
%TO.C,R8*%
X176961760Y-84068015D03*
X178786760Y-84068015D03*
%TD*%
D16*
%TO.C,RV2*%
X174015748Y-96624041D03*
D17*
X174015748Y-99164041D03*
X174015748Y-101704041D03*
%TD*%
D21*
%TO.C,C4*%
X135890000Y-102297500D03*
X135890000Y-108522500D03*
%TD*%
D24*
%TO.C,C5*%
X167320000Y-93980000D03*
X165420000Y-93980000D03*
%TD*%
D16*
%TO.C,J5*%
X140970000Y-101600000D03*
D17*
X140970000Y-99060000D03*
%TD*%
D16*
%TO.C,SW6*%
X173990000Y-114389041D03*
D17*
X173990000Y-116929041D03*
%TD*%
D16*
%TO.C,J3*%
X173990000Y-71120000D03*
D17*
X171450000Y-71120000D03*
X168910000Y-71120000D03*
X166370000Y-71120000D03*
X163830000Y-71120000D03*
X161290000Y-71120000D03*
X158750000Y-71120000D03*
X156210000Y-71120000D03*
X153670000Y-71120000D03*
X151130000Y-71120000D03*
X148590000Y-71120000D03*
X146050000Y-71120000D03*
X143510000Y-71120000D03*
X140970000Y-71120000D03*
X138430000Y-71120000D03*
X135890000Y-71120000D03*
X133350000Y-71120000D03*
X130810000Y-71120000D03*
X128270000Y-71120000D03*
X125730000Y-71120000D03*
%TD*%
D12*
%TO.C,C2*%
X166942500Y-100330000D03*
X160717500Y-100330000D03*
%TD*%
D22*
%TO.C,R1*%
X127576434Y-105037392D03*
X125751434Y-105037392D03*
%TD*%
D16*
%TO.C,SW4*%
X127000000Y-114981199D03*
D17*
X124460000Y-114981199D03*
X121920000Y-114981199D03*
%TD*%
D16*
%TO.C,SW2*%
X135980136Y-115005510D03*
D17*
X133440136Y-115005510D03*
X130900136Y-115005510D03*
%TD*%
D16*
%TO.C,RV1*%
X173990000Y-87719041D03*
D17*
X173990000Y-90259041D03*
X173990000Y-92799041D03*
%TD*%
D10*
%TO.C,R5*%
X119380000Y-78382500D03*
X119380000Y-76557500D03*
%TD*%
D16*
%TO.C,J1*%
X170270136Y-115025684D03*
D17*
X167730136Y-115025684D03*
X165190136Y-115025684D03*
X162650136Y-115025684D03*
X160110136Y-115025684D03*
X157570136Y-115025684D03*
X155030136Y-115025684D03*
X152490136Y-115025684D03*
%TD*%
M02*
